<svg xmlns="http://www.w3.org/2000/svg" xmlns:xlink="http://www.w3.org/1999/xlink" width="504pt" height="242.623pt" viewBox="0 0 504 242.623"><defs><symbol overflow="visible"><path d="M0 0h6.188v-8.656H-.188V0zm3.125-4.97l-1.89-2.827H4.75L3-5.157zm.36.736l2.03-3.063-.312-.094v6.124l.313-.11-1.97-2.952zM1.077-.64L3-3.5 4.75-.86H1.234zm-.61-6.657l1.97 2.97-1.97 2.952.313.11v-6.126z"/></symbol><symbol overflow="visible" id="o"><path d="M8.078-5.094c0-.468-.86-.875-1.25-.875-.47 0-1.11.454-1.47.736-.264.218-.56.421-.874.578-.03.03.063 0 .032 0-.063 0 .078.093.078.03 0-.046.03-.077.03-.108.314-.64 1.298-1.594 1.298-2.22 0-.39-.47-1.187-.938-1.187-.421 0-1.11.515-1.218.92-.032.126-.047.314-.047.44 0 .296.046.593.077.89.047.343.062.687.062 1.046 0 .063.187.032.093.032-.047 0 .016-.032-.015-.08-.422-.56-.626-1.592-1.08-2.06-.217-.204-.686-.36-.983-.36-.5 0-.922.39-.922.875 0 1.296 1.578 1.42 2.438 2.03.047.032.047-.015.047.032 0 .14-.093 0-.187 0-.578 0-1.156-.156-1.72-.156-.14 0-.264 0-.405.046-.39.093-1.03.734-1.03 1.14 0 .47.858.89 1.264.89.468 0 1.093-.468 1.452-.733.266-.22.563-.422.876-.58.03-.03-.047 0-.016 0 .062 0-.094-.092-.094-.03 0 .047-.03.03-.03.063-.314.64-1.298 1.64-1.298 2.265 0 .392.47 1.19.938 1.19.437 0 1.11-.564 1.218-.97.032-.125.047-.266.047-.39 0-.61-.14-1.188-.14-1.798 0-.078-.204-.17-.094-.17.06 0-.017.014.014.06.407.58.64 1.61 1.079 2.08.218.202.703.36 1 .36.484 0 .906-.392.906-.876 0-.313-.157-.735-.376-.954C6.39-3.39 5.36-3.625 4.78-4.016c-.046-.03-.046.016-.046-.046 0-.125.11.015.204.015.578 0 1.14.14 1.718.14.14 0 .266 0 .407-.03.39-.094 1.015-.735 1.015-1.157z"/></symbol><symbol overflow="visible" id="p"><path d="M10.313-.234l-4.985-8.64L.203 0H10.47z"/></symbol><symbol overflow="visible"><path d="M0 0h6.406v-9.016H-.172V0zm3.234-5.156l-1.968-2.97H4.97L3.124-5.343zm.375.75l2.124-3.188-.28-.093v6.375l.28-.094L3.672-4.5zm-2.5 3.75l2.015-3L4.97-.89H1.265zM.5-7.594L2.563-4.5.5-1.406l.28.093v-6.375z"/></symbol><symbol overflow="visible" id="q"><path d="M8.39-5.28c0-.5-.86-.923-1.28-.923-.485 0-1.14.484-1.516.78-.282.22-.578.44-.907.595-.03.03.047-.016.016-.016-.062 0 .063.11.063.047 0-.047.015-.094.03-.125.313-.672 1.345-1.656 1.345-2.297 0-.42-.452-1.25-.937-1.25-.453 0-1.14.548-1.25.97-.047.14-.047.313-.047.453 0 .313.047.625.078.922.047.36.063.72.063 1.094 0 .06.172.03.078.03-.063 0 0-.016-.03-.063-.44-.593-.657-1.656-1.126-2.156-.236-.218-.704-.374-1.017-.374-.516 0-.937.39-.937.89 0 1.36 1.64 1.485 2.53 2.11.048.047.048 0 .048.063 0 .124-.11-.017-.203-.017-.61 0-1.203-.156-1.796-.156-.14 0-.282 0-.422.047-.406.093-1.047.75-1.047 1.187 0 .5.875.908 1.28.908.5 0 1.126-.47 1.5-.766.298-.22.595-.438.923-.594.03-.03-.047 0 0 0 .063 0-.078-.094-.078-.03 0 .046-.03.046-.03.093-.314.657-1.345 1.688-1.345 2.33 0 .42.47 1.25.953 1.25.453 0 1.125-.58 1.235-1 .03-.142.046-.282.046-.423 0-.625-.14-1.234-.14-1.86 0-.093-.19-.203-.064-.203.063 0-.015.032.016.08.422.592.672 1.67 1.125 2.155.234.218.72.374 1.03.374.517 0 .923-.39.923-.89 0-.33-.156-.767-.39-.985-.454-.486-1.548-.72-2.14-1.126-.064-.032-.064 0-.064-.063 0-.124.14 0 .235 0 .594 0 1.204.157 1.798.157.14 0 .28 0 .406-.03.422-.11 1.047-.75 1.047-1.188z"/></symbol><symbol overflow="visible" id="r"><path d="M10.734-.22L5.563-9.186.232 0h10.642z"/></symbol><symbol overflow="visible"><path/></symbol><symbol overflow="visible" id="s"><path d="M.797-.797c-.03.172-.094.422-.094.47 0 .202.313.452.47.452.14 0 .483-.25.546-.422 0 .03.405-1.562.452-1.766.078-.36.28-1.124.344-1.42.046-.142.312-.548.578-.783.078-.078.28-.312.75-.312.297 0 .453.125.47.125L4.31-4.75c-.328.047-.734.47-.734.75 0 .172.28.53.578.53.297 0 .75-.405.75-.796 0-.375-.5-.86-1.062-.86-.703 0-1.297.58-1.516.876l.28.11c-.092-.485-.64-.985-1.14-.985-.515 0-.843.47-.937.672-.186.36-.374 1.125-.374 1.156 0 .11.266.266.297.266.11 0 .266-.173.328-.408.19-.765.25-1.14.642-1.14.187 0 .187-.063.187.344 0 .234-.032.36-.188.92z"/></symbol><symbol overflow="visible" id="ab"><path d="M2.25-4.36h1.016c.218 0 .484-.156.484-.374C3.75-4.86 3.484-5 3.297-5H2.53c.345-1.406.408-1.625.408-1.688 0-.187-.282-.437-.47-.437-.03 0-.5.156-.61.53L1.47-5H.58c-.22 0-.484.14-.484.36 0 .124.25.28.47.28h.75C.56-1.42.53-1.233.53-1.03c0 .577.564 1.155 1.157 1.155 1.11 0 1.89-1.75 1.89-1.844 0-.108-.233-.25-.28-.25-.094 0-.28.19-.328.298-.47 1.14-.892 1.25-1.25 1.25-.236 0-.19 0-.19-.36 0-.25.017-.327.064-.515L2.36-4.36z"/></symbol><symbol overflow="visible"><path/></symbol><symbol overflow="visible" id="t"><path d="M3.78 2.47c0-.033-.06-.173-.25-.36C2.173.733 1.876-1.204 1.876-2.876c0-1.906.36-3.688 1.703-5.047.14-.14.203-.266.203-.297 0-.077-.217-.264-.28-.264-.11 0-1.266.875-1.906 2.265C1.03-5.015.906-3.796.906-2.874c0 .844.125 2.172.72 3.406C2.28 1.86 3.39 2.72 3.5 2.72c.063 0 .28-.173.28-.25z"/></symbol><symbol overflow="visible" id="u"><path d="M2.797-7.36c-.11-.25-.297-.39-.547-.39H.234v.64h.438c.828 0 .687-.03.687.36v5.453c0 .297.17.656-1.126.656v.656C.78-.016 1.313-.03 1.672-.03c.375 0 .906.014 1.453.046V-.64C1.828-.64 2-1 2-1.298V-7.03h-.266L4.297-.39c.062.14.28.39.39.39.125 0 .313-.234.36-.36l2.625-6.75h-.266V-1c0 .39.157.36-.687.36h-.44v.656C6.86-.03 7.61-.03 8.03-.03c.423 0 1.158 0 1.72.046V-.64h-.422c-.844 0-.703.03-.703-.36v-5.75c0-.39-.14-.36.703-.36h.422v-.64h-2c-.297 0-.47.14-.547.344l-2.375 6.14.328.016z"/></symbol><symbol overflow="visible" id="v"><path d="M2.047-4.25v-.89L.125-5v.64c.953 0 .86-.093.86.39v5.11c0 .485.046.33-.86.33v.655c.547-.016 1.125-.047 1.406-.047.298 0 .845.03 1.392.047V1.47c-.89 0-.844.155-.844-.33V-.796h-.344c.047.172.688.922 1.516.922 1.297 0 2.594-1.22 2.594-2.64 0-1.376-1.22-2.61-2.438-2.61-.86 0-1.437.516-1.656.766zm.03 2.86v-2.423c.25-.468.69-.734 1.236-.734.796 0 1.296.813 1.296 2.03 0 1.33-.594 2.095-1.407 2.095-.437 0-.734-.172-1.03-.625-.157-.234-.095-.125-.095-.344z"/></symbol><symbol overflow="visible" id="w"><path d="M1.438-2.53c0-1.783.734-2.08 1.312-2.08.094 0 .656-.03.813.11-.094.016-.33.5-.33.64 0 .282.36.657.673.657.28 0 .656-.344.656-.672 0-.734-.984-1.313-1.828-1.313-1.36 0-2.53 1.33-2.53 2.672 0 1.407 1.25 2.64 2.515 2.64 1.452 0 1.967-1.468 1.967-1.577 0-.11-.265-.266-.296-.266-.11 0-.296.19-.327.25C3.75-.452 3.219-.452 2.813-.452c-.58 0-1.376-.328-1.376-2.078z"/></symbol><symbol overflow="visible" id="x"><path d="M3.313-2.875c0-.86-.11-2.172-.72-3.406C1.94-7.626.844-8.485.734-8.485c-.06 0-.28.203-.28.265 0 .033.047.158.25.36 1.078 1.08 1.64 2.704 1.64 4.985C2.344-1.015 2 .797.642 2.172c-.14.125-.187.265-.187.297 0 .06.22.25.28.25.11 0 1.25-.892 1.892-2.267.563-1.203.688-2.422.688-3.328z"/></symbol><symbol overflow="visible" id="Y"><path d="M1.03-3.906v2.922c0 .5.048.343-.858.343v.656C.734-.016 1.282-.03 1.578-.03c.28 0 .86.014 1.39.046V-.64c-.89 0-.86.156-.86-.344v-2c0-1.14.61-1.594 1.314-1.594.687 0 .64.437.64 1.062v2.532c0 .5.047.343-.86.343v.656C3.767-.016 4.313-.03 4.61-.03c.28 0 .86.014 1.39.046V-.64c-.89 0-.86.156-.86-.344v-2c0-1.14.626-1.594 1.313-1.594.688 0 .64.437.64 1.062v2.532c0 .5.048.343-.86.343v.656c.564-.032 1.11-.047 1.408-.047.282 0 .86.014 1.39.046V-.64c-.733 0-.842.156-.858-.172v-2.094c0-.938-.047-1.375-.39-1.766-.14-.187-.61-.453-1.25-.453-.923 0-1.563.797-1.75 1.203l.327.016c-.14-.953-1.126-1.22-1.61-1.22-.797 0-1.484.61-1.78 1.282l.327.016V-5.14L.172-5v.64c.937 0 .86-.077.86.454z"/></symbol><symbol overflow="visible" id="Z"><path d="M1.938-5.125L.234-5v.64c.875 0 .797-.093.797.438v2.938c0 .5.064.343-.843.343v.656C.704-.016 1.298-.03 1.563-.03c.375 0 .766.014 1.297.046V-.64c-.89 0-.766.093-.766-.33v-4.17zm.203-1.75c0-.344-.437-.734-.75-.734-.327 0-.75.454-.75.735 0 .297.422.734.75.734.313 0 .75-.376.75-.735z"/></symbol><symbol overflow="visible" id="aa"><path d="M1.03-3.906v2.922c0 .5.048.343-.858.343v.656C.734-.016 1.282-.03 1.578-.03c.28 0 .86.014 1.39.046V-.64c-.89 0-.86.156-.86-.344v-2c0-1.14.61-1.594 1.314-1.594.687 0 .64.437.64 1.062v2.532c0 .5.047.343-.86.343v.656C3.767-.016 4.313-.03 4.61-.03c.28 0 .86.014 1.39.046V-.64c-.734 0-.844.156-.86-.172v-2.094c0-.938-.046-1.375-.39-1.766-.14-.187-.61-.453-1.25-.453-.797 0-1.484.61-1.78 1.28l.327.017V-5.14L.172-5v.64c.937 0 .86-.077.86.454z"/></symbol><symbol overflow="visible" id="af"><path d="M6.344-.734c.14.25.703.718.828.718.094 0 .25-.234.25-.406v-1.89c0-.422-.11-.33.75-.33v-.655c-.563.03-1.156.047-1.485.047-.437 0-1.36 0-1.937-.047v.656h.53c.986 0 .845-.032.845.374v.688c0 1.234-1.22 1.172-1.516 1.172-.72 0-2.72-.22-2.72-3.47 0-3.265 1.985-3.468 2.64-3.468 1.173 0 1.986.828 2.204 2.422.032.156.204.344.36.344.172 0 .328-.188.328-.422v-2.578c0-.188-.156-.422-.28-.422-.048 0-.205.047-.298.188l-.453.656C6.19-7.36 5.485-8 4.407-8 2.376-8 .438-6.125.438-3.875c0 2.234 1.92 4.11 3.984 4.11.797 0 1.78-.33 2.047-.766z"/></symbol><symbol overflow="visible" id="ag"><path d="M4.688-3.813c.28-.687.67-.546 1.015-.546v-.67c-.406.046-.734.06-.984.06-.19 0-.704-.03-1.126-.046v.657c.515 0 .515.048.515.313 0 .11-.016.125-.063.25L2.937-1.11l.344.016L2.08-4.03C2.03-4.14 2-4.188 2-4.235c0-.282.25-.125.625-.125v-.656c-.453.016-1.172.047-1.36.047-.296 0-.734-.014-1.234-.046v.657c.704 0 .736-.156.892.22L2.547-.157c-.047.14-.203.5-.266.64-.233.594-.374 1.204-1.077 1.204-.047 0-.187.046-.156.062-.016 0 .234-.39.234-.563 0-.28-.358-.61-.608-.61-.22 0-.64.298-.64.626 0 .484.64 1.03 1.17 1.03.69 0 1.314-.764 1.564-1.39z"/></symbol><symbol overflow="visible" id="ah"><path d="M1.984-3.78v-1.36L.124-5v.64c.94 0 .86-.077.86.454v2.922c0 .5.047.343-.86.343v.656C.735-.016 1.25-.03 1.548-.03c.437 0 .953 0 1.547.046V-.64h-.39c-.813 0-.657.03-.657-.36v-1.688c0-1.078.28-1.89 1.11-1.89.077 0-.016-.047 0-.03l.124-.267c-.03.016-.42.297-.42.578 0 .313.406.625.64.625.203 0 .64-.28.64-.64 0-.344-.515-.813-.984-.813-.797 0-1.36.875-1.515 1.344z"/></symbol><symbol overflow="visible"><path/></symbol><symbol overflow="visible" id="y"><path d="M-4.36-2.25v-1.016c0-.218-.156-.484-.374-.484-.125 0-.266.266-.266.453v.766c-1.406-.345-1.625-.408-1.688-.408-.187 0-.437.282-.437.47 0 .03.156.5.53.61L-5-1.47v.89c0 .22.14.484.36.484.124 0 .28-.25.28-.47v-.75c2.938.752 3.126.783 3.33.783.577 0 1.155-.564 1.155-1.157 0-1.11-1.75-1.89-1.844-1.89-.108 0-.25.233-.25.28 0 .094.19.28.298.328 1.14.47 1.25.892 1.25 1.25 0 .236 0 .19-.36.19-.25 0-.327-.017-.515-.064L-4.36-2.36z"/></symbol><symbol overflow="visible" id="C"><path d="M-7.922-4.938C-8.062-5-8.11-5-8.11-5c-.124 0-.374.25-.374.375 0 .078.078.266.218.344L2.156-.485c.14.046.188.046.203.046.11 0 .36-.265.36-.374 0-.14-.22-.33-.408-.39z"/></symbol><symbol overflow="visible"><path/></symbol><symbol overflow="visible" id="z"><path d="M-3.53-2.938c.077.235.436.454.53.454.22 0 .563-.344.563-.563 0-.22-.33-.562-.563-.562-.5 0-.922.72-.922 1.47 0 1.11 1.063 2.046 2.016 2.046C-.89-.094.078-1.11.078-2.11c0-1.124-1.125-1.593-1.22-1.593-.092 0-.28.297-.28.312 0 .062.188.296.28.312.158.062.61.094.61.89 0 .485-.202 1.016-1.374 1.016-1.157 0-1.407-.406-1.407-.984 0-.078-.046-.36.094-.64z"/></symbol><symbol overflow="visible" id="A"><path d="M-1.875-4.172c-1 0-2.047 1.016-2.047 2.063 0 1.047 1.047 2.063 2.047 2.063C-.89-.047.078-1.094.078-2.11c0-1.03-.97-2.062-1.953-2.062zM-.53-2.11c0 .422-.157.64-.44.813-.327.203-.577.172-.983.172-.297 0-.656.047-1-.203-.28-.203-.375-.406-.375-.78 0-.423.14-.626.422-.814.328-.203.64-.156.953-.156.375 0 .672-.047 1.016.172.312.22.406.437.406.797z"/></symbol><symbol overflow="visible" id="B"><path d="M-5.89-1.516l.093 1.375h.625c0-.735-.14-.61.25-.61h4.11c.36 0 .187-.094.187.61h.64C-.03-.64-.03-1.095-.03-1.235c0-.157 0-.58.046-1.079h-.64c0 .688.17.61-.189.61h-5.093z"/></symbol><symbol overflow="visible" id="D"><path d="M-3.172-3.813v-1.14h-.625v.984h-.72c-.717 0-.874-.217-.874-.56 0-.032 0-.126.046-.236l-.312.14c.062.142.328.235.437.235.204 0 .548-.344.548-.548 0-.218-.344-.546-.547-.546-.343 0-.75.515-.75.937 0 .297.157.78.25.89-.17.157-.25.75-.25.97 0 .796.58 2 1.47 2h.703v.64h.625v-.64h2.36c.36 0 .187-.094.187.593h.64C-.03-.594-.03-1.03-.03-1.172c0-.156 0-.594.046-1.078h-.64c0 .688.17.594-.189.594h-2.36V-3.03h2.36c.36 0 .188-.095.188.592h.64c-.046-.5-.046-.937-.046-1.124 0-.47 0-.485.046-1.188h-.64v.344c0 .578.093.406-.204.406h-2.344zm-.453 2.188h-.86c-.78 0-.906-.516-.906-1.047 0-.078-.048-.25-.08-.187-.077-.218.282 0 .36 0 .063 0 .423-.203.423-.17h.89v1.405z"/></symbol><symbol overflow="visible"><path/></symbol><symbol overflow="visible" id="E"><path d="M2.28-5.47h-.233c-.5.517-1 .486-1.547.517v.734c.438-.014.797-.03 1-.124v3.61H.547V0h2.875v-.734h-.97V-5.47z"/></symbol><symbol overflow="visible" id="F"><path d="M3.672-2.64c0-.594-.094-1.407-.406-2.032-.313-.562-.97-.797-1.36-.797-.453 0-1.172.314-1.484 1-.25.564-.28 1.22-.28 1.83 0 .61.03 1.17.25 1.718C.7-.187 1.468.172 1.905.172c.547 0 1.22-.47 1.453-.984.234-.5.312-1 .312-1.83zM1.906-.595c-.39 0-.53-.14-.687-.687-.126-.44-.126-.845-.126-1.454 0-.47 0-.938.125-1.36.046-.14.06-.625.686-.625.594 0 .61.44.657.58.156.42.156.937.156 1.406 0 .515 0 .968-.142 1.437-.203.703-.422.703-.672.703z"/></symbol><symbol overflow="visible" id="an"><path d="M2.875-5.594h-.797L-.032 0h.923l.594-1.563H3.47L4.046 0H5.11L3-5.594zm.547 3.313H1.75l.453-1.236c.156-.453.39-1.093.422-1.234h-.297c-.015-.047.047.156.22.656l.64 1.813z"/></symbol><symbol overflow="visible" id="ao"><path d="M1.203-5.594H.437V0h.954v-.11c-.11-.11.344.188.86.188.766 0 1.594-.906 1.594-1.922 0-.953-.703-1.922-1.406-1.922-.313 0-.907.125-1.063.25v-2.078zm.14 3c.126-.187.282-.422.704-.422.437 0 .844.188.844 1.172 0 .985-.453 1.172-.92 1.172-.298 0-.44-.094-.58-.344v-1.671z"/></symbol><symbol overflow="visible" id="ap"><path d="M3.344-1.813c0-.265-.063-.937-.36-1.39-.312-.485-.906-.61-1.187-.61-.844 0-1.72.954-1.72 1.938C.078-.86 1 .078 1.923.078c.484 0 1.03-.22 1.39-.47l-.078-.89c-.765.626-1.14.61-1.312.61-.61 0-.922-.39-.938-1h2.36zm-2.328-.42c.125-.58.36-.83.78-.83.407 0 .64.126.735.672H1.048z"/></symbol><symbol overflow="visible" id="aq"><path d="M1.188-5.594h-.75V0h.937v-5.594z"/></symbol><symbol overflow="visible" id="ar"><path d="M.875-4.078c.22-.53.547-.656 1.016-.656.39 0 .58.078.58.562 0 .47-.126.78-.595.89-.047 0-.063 0-.78.063v.75h.718c.828 0 .812.564.812.94 0 .593-.172.936-.75.936-.53 0-1.016-.22-1.344-.734l-.31.062-.095.516C.75.047 1.578.172 1.89.172c.923 0 1.782-.89 1.782-1.688 0-.703-.72-1.312-.875-1.36.344-.187.672-.812.672-1.296 0-.656-.814-1.297-1.58-1.297-.577 0-1.265.345-1.656.986l.5.75z"/></symbol><symbol overflow="visible" id="as"><path d="M2.844-1.313h.937v-.75h-.764v-3.234h-.97L.032-1.922v.61h2.033V0h.953v-1.313zm-1.906-.5c.39-.656 1.515-2.578 1.515-3.015h-.36v2.766H1.08z"/></symbol><symbol overflow="visible" id="at"><path d="M1.766-4.47c.093 0 .187-.014.28-.014h.58C1.718-3.47.983-1.844.983.078h1c0-2.437 1.032-3.953 1.688-4.687v-.687H.142v.828z"/></symbol><symbol overflow="visible" id="au"><path d="M2.438-2.72c.687-.217 1.124-.858 1.124-1.264 0-.72-.828-1.485-1.656-1.485-.86 0-1.656.782-1.656 1.486 0 .406.438 1.046 1.125 1.265V-3C.812-2.812.14-2.187.14-1.516c0 .83.89 1.688 1.766 1.688.907 0 1.766-.875 1.766-1.688 0-.703-.72-1.312-1.235-1.484zm-.532-.514c-.578 0-.765-.235-.765-.75 0-.532.204-.75.766-.75.594 0 .766.25.766.75 0 .546-.22.75-.766.75zm0 2.64c-.515 0-.797-.22-.797-.937 0-.798.374-.94.796-.94.438 0 .782.158.782.94 0 .75-.282.936-.782.936z"/></symbol><symbol overflow="visible" id="av"><path d="M.422-.22c.266.19.672.392 1.14.392 1 0 2.11-1.22 2.11-2.875 0-2.14-1.094-2.766-1.735-2.766-.546 0-.984.267-1.25.564C.204-4.39.14-3.796.14-3.47c0 .986.688 1.986 1.422 1.986.47 0 1.08-.25 1.407-.672l-.298-.14c-.094 1.233-.5 1.702-1.094 1.702-.266 0-.39-.015-.844-.375l-.39.69zm2.22-3.25c.014.048.014.126.014.19 0 .624-.203 1.046-.797 1.046-.36 0-.454-.14-.61-.422-.172-.297-.125-.47-.125-.813 0-.327-.047-.53.172-.874.14-.218.234-.39.64-.39.75 0 .688.89.704 1.265z"/></symbol><symbol overflow="visible" id="aw"><path d="M3.172-5.313c-.39-.156-.703-.156-.813-.156C1.28-5.47.14-4.25.14-2.61.14-.437 1.267.173 1.923.173c.453 0 .906-.22 1.203-.563.344-.39.547-.844.547-1.454 0-.968-.688-1.968-1.422-1.968-.234 0-.953.093-1.422.67l.313.095c.094-1.22.532-1.687 1.235-1.687.28 0 .53.046.97.234v-.75zm-2.03 3.5c0-.11 0-.125.014-.218 0-.564.172-1.033.797-1.033.375 0 .453.157.61.438.156.28.124.438.124.78 0 .267.047.517-.14.83-.125.218-.188.42-.625.42-.813 0-.75-.968-.78-1.218z"/></symbol><symbol overflow="visible" id="ax"><path d="M3.672-5.328c-.422-.25-.953-.438-1.516-.438C1.094-5.766.25-4.86.25-4.11c0 .33.156.75.453 1.08.328.342.797.467 1.25.577.64.156.594.14.813.344.14.126.265.266.265.594 0 .5-.25.86-.936.86-.313 0-.875-.03-1.766-.766L.14-.438c.735.454 1.485.61 1.954.61 1.015 0 1.89-.922 1.89-1.766 0-.484-.28-.953-.453-1.14-.358-.39-.733-.5-1.436-.672-.438-.11-.438-.094-.672-.297-.047-.047-.22-.156-.22-.5 0-.453.236-.766.94-.766.64 0 .89.22 1.405.657l.187-.984z"/></symbol><symbol overflow="visible" id="ay"><path d="M1.375-1.78c0-.767.375-1.173 1.297-1.19v-.796c-.86 0-1.406.422-1.64.782l.312.093v-.844H.437V0h.938z"/></symbol><symbol overflow="visible" id="az"><path d="M2.625-3.563c-.406-.187-.72-.25-1.11-.25-.187 0-1.452.14-1.452 1.14 0 .376.28.736.468.876.236.172.532.234.954.328.282.048.547 0 .547.407 0 .516-.42.375-.546.375-.61 0-.92-.234-1.312-.5l-.156.86c.312.156.86.406 1.484.406.14 0 .672-.03 1-.28.25-.173.422-.595.422-.923 0-.422-.328-.78-.344-.797-.297-.266-.625-.36-1.015-.437C1.14-2.437.97-2.374.97-2.75c0-.47.374-.328.468-.328.25 0 .53 0 1.218.406l.14-.797z"/></symbol><symbol overflow="visible" id="aA"><path d="M1.25-5.484H.375v.968h1.047v-.968zm-.063 1.796h-.75V0h.938v-3.688z"/></symbol><symbol overflow="visible" id="aB"><path d="M3.25-3.438c-.453-.265-.828-.374-1.297-.374C.89-3.813.093-2.75.093-1.845.094-.89.97.078 1.924.078c.42 0 .952-.14 1.42-.453l-.077-.906c-.657.53-.938.593-1.329.593-.64 0-.89-.407-.89-1.157 0-.593.11-1.187.922-1.187.39 0 .514.014 1.186.452l.156-.828z"/></symbol><symbol overflow="visible" id="aC"><path d="M1.172-4.516H3.36v-.78H.437v3.11l.796-.002c.188-.453.297-.61.75-.61.36 0 .58.173.58 1.08C2.56-.44 1.81-.595 1.748-.595c-.516 0-.86-.25-1.203-.875L.11-.702c.374.515 1.03.875 1.64.875.922 0 1.86-.906 1.86-1.875 0-.953-.83-1.844-1.626-1.844-.296 0-.718.156-.64.078v-1.046z"/></symbol><symbol overflow="visible" id="aD"><path d="M2.28-1.625v-.578H-.093v.734H2.28z"/></symbol><symbol overflow="visible" id="aE"><path d="M1.203-1.688l-1 1V0H3.61v-.828H1.343c-.047.047.53-.53.765-.75.156-.14.546-.47.687-.594.344-.344.812-.86.812-1.515 0-.876-.797-1.782-1.813-1.782-.86 0-1.47.704-1.672 1.407.156.235.203.266.22.297 0 .016.077.11.358.5.266-.968.297-1.421 1-1.421.72 0 .922.42.922 1.015 0 .656-.39.985-.844 1.453z"/></symbol><symbol overflow="visible" id="aF"><path d="M4.688-5.594h-.875v2.313H1.578v-2.314H.53V0H1.58v-2.516h2.234V0H4.86v-5.594z"/></symbol><symbol overflow="visible" id="aG"><path d="M3.406-3.688h-.703C1.656-1.14 1.64-.78 1.64-.717h.33c-.032-.376-.642-1.798-.673-1.86l-.484-1.11H-.14L1.405-.155c-.093.218-.25.594-.28.672C.937.953.983.844.875.844.75.844.515.814.077.64l.078.83c.344.077.547.093.72.093.265 0 .733-.235 1.046-1.016l1.72-4.234z"/></symbol><symbol overflow="visible" id="aH"><path d="M3.313-5.594h-.75v2.047c-.11-.094-.657-.22-.938-.22-.75 0-1.53.94-1.53 1.923 0 1 .764 1.922 1.5 1.922.25 0 .827-.094.936-.22V0h.954v-5.594zm-.782 4.39c0 .11.048.14-.186.36-.188.156-.25.172-.438.172-.484 0-.86-.22-.86-1.156 0-1.016.485-1.188.938-1.188.344 0 .438.14.547.313z"/></symbol><symbol overflow="visible" id="aI"><path d="M3.22-2.36c0-.765-.736-1.453-1.44-1.453-.483 0-.968.172-1.374.407l.078.875c.672-.486.922-.548 1.297-.548.36 0 .486.172.486.734v.188c-.954.015-2.11.47-2.11 1.14 0 .329.39 1.094 1.047 1.094.11 0 .953-.047 1.094-.156V0h.922zm-.954 1.204c0 .14.062.234-.204.39-.218.125-.374.094-.468.094-.36 0-.532-.03-.532-.36 0-.53 1.063-.437 1.204-.437z"/></symbol><symbol overflow="visible" id="aJ"><path d="M4.313-1.11c-.454.298-.58.407-1.33.407-1.108 0-1.608-1-1.608-2.094 0-1.047.453-2.094 1.625-2.094.53 0 .75.077 1.438.515l.156-.953c-.516-.25-1.11-.344-1.594-.344-1.406 0-2.672 1.328-2.672 2.938C.328-1.53 1.406.078 3 .078c.703 0 1.125-.156 1.672-.5l-.078-.875z"/></symbol><symbol overflow="visible" id="aK"><path d="M3.5-2.422c0-.5-.297-1.344-1.22-1.344-.686 0-1.202.563-1.233.625l.297.093v-.687H.437V0h.954v-2.016c0-.5.016-1 .594-1 .735 0 .563.407.563.64V0H3.5z"/></symbol><symbol overflow="visible" id="aL"><path d="M1.344-2.953h1.25v-.735H1.516v-.968h-.89v.968h-.657v.735h.64v1.906C.61-.594.89.078 1.42.078c.53 0 1.047-.22 1.312-.36l-.218-.796c-.438.344-.547.39-.782.39-.296 0-.218-.093-.218-.5v-1.765z"/></symbol><symbol overflow="visible" id="aM"><path d="M3.328-3.688h-.78v2.36c0 .578-.25.703-.736.703-.546 0-.42-.063-.42-.39V-3.69H.437v2.704c0 .562.36 1.062.984 1.062.406 0 1.078-.156 1.14-.22V0H3.5v-3.688z"/></symbol><symbol overflow="visible"><path/></symbol><symbol overflow="visible" id="G"><path d="M3.906-1.266c.078 0 .39-.17.39-.296 0-.125-.312-.297-.39-.297H.703c-.094 0-.406.173-.406.298s.312.296.406.296z"/></symbol><symbol overflow="visible"><path/></symbol><symbol overflow="visible" id="H"><path d="M.688-2.906c.234-.453.5-.53.765-.53.328-.002.39.03.39.342 0 .297-.015.5-.437.563-.03.014-.047.014-.61.046v.687h.626c.53 0 .547.25.547.61 0 .437-.095.61-.532.61-.39 0-.72-.142-1.22-.798l-.17.813c.39.437.968.67 1.405.67.734 0 1.438-.702 1.438-1.296 0-.453-.546-.984-.984-1.11l.125.282c.423-.218.69-.718.69-1.078 0-.47-.658-1.015-1.25-1.015-.5 0-1.048.313-1.36.766l.468.64z"/></symbol><symbol overflow="visible" id="I"><path d="M1.578-.766H.735l.14.297.86-.764c.093-.094.374-.297.484-.39.233-.22.624-.626.624-1.11 0-.64-.656-1.375-1.453-1.375-.593 0-1.14.47-1.343 1.094l.53.672c.236-.86.25-1.047.736-1.047.468 0 .64.156.64.656 0 .468-.22.61-.547.937-.125.11-.422.36-.53.47-.173.14-.548.514-.767.702V0h2.734v-.766z"/></symbol><symbol overflow="visible" id="J"><path d="M1.797-4.11h-.203c-.422.39-.75.36-1.266.376v.687c.406-.015.688-.03.78-.062v2.422H.36V0h2.345v-.688H1.97v-3.42z"/></symbol><symbol overflow="visible"><path/></symbol><symbol overflow="visible" id="K"><path d="M-5.47-2.28v.233c.517.5.486 1 .517 1.547h.734c-.014-.438-.03-.797-.124-1h3.61v.953H0v-2.875h-.734v.97H-5.47z"/></symbol><symbol overflow="visible" id="L"><path d="M-2.64-3.672c-.594 0-1.407.094-2.032.406-.562.313-.797.97-.797 1.36 0 .453.314 1.172 1 1.484.564.25 1.22.28 1.83.28.61 0 1.17-.03 1.718-.25C-.187-.7.172-1.468.172-1.905c0-.547-.47-1.22-.984-1.453-.5-.234-1-.312-1.83-.312zm2.046 1.766c0 .39-.14.53-.687.687-.44.126-.845.126-1.454.126-.47 0-.938 0-1.36-.125-.14-.046-.625-.06-.625-.686 0-.594.44-.61.58-.657.42-.156.937-.156 1.406-.156.515 0 .968 0 1.437.142.703.203.703.422.703.672z"/></symbol><symbol overflow="visible"><path/></symbol><symbol overflow="visible" id="M"><path d="M-.766-1.578v.843l.297-.14-.764-.86c-.094-.093-.297-.374-.39-.484-.22-.233-.626-.624-1.11-.624-.64 0-1.375.656-1.375 1.453 0 .593.47 1.14 1.094 1.343l.672-.53c-.86-.236-1.047-.25-1.047-.736 0-.468.156-.64.656-.64.468 0 .61.22.937.547.11.125.36.422.47.53.14.173.514.548.702.767H0v-2.734h-.766z"/></symbol><symbol overflow="visible" id="N"><path d="M-2.906-.688c-.453-.234-.53-.5-.53-.765-.002-.328.03-.39.342-.39.297 0 .5.015.563.437.014.03.014.047.046.61h.687v-.626c0-.53.25-.547.61-.547.437 0 .61.095.61.532 0 .39-.142.72-.798 1.22l.813.17c.437-.39.67-.968.67-1.405 0-.734-.702-1.438-1.296-1.438-.453 0-.984.546-1.11.984l.282-.125c-.218-.423-.718-.69-1.078-.69-.47 0-1.015.658-1.015 1.25 0 .5.313 1.048.766 1.36l.64-.468z"/></symbol><symbol overflow="visible"><path/></symbol><symbol overflow="visible" id="O"><path d="M4.53-2.922v-.656H1.72v-1.766h1.014c.094 0 .204.016.313.016h1.72v-.813H.624V0h4.25v-.86H3.64c-.093 0-.203.016-.296.016H1.72v-1.953h2.81z"/></symbol><symbol overflow="visible" id="P"><path d="M2.328-1.984l1.75-2.047H2.984L1.922-2.735.828-4.03H-.266l1.72 1.952L-.313 0H.78l1.157-1.484L3.125 0H4.22L2.405-2.078z"/></symbol><symbol overflow="visible" id="Q"><path d="M1.484-3.28H2.86v-.75H1.655v-1.095H.734v1.094h-.75v.75h.72v2.14c0 .515.296 1.234.874 1.234.61 0 1.14-.25 1.422-.39l-.22-.83c-.436.345-.577.423-.858.423-.313 0-.266-.125-.266-.578v-2z"/></symbol><symbol overflow="visible" id="R"><path d="M3.688-2c0-.28-.063-1.016-.39-1.53-.345-.517-.986-.658-1.282-.658-.954 0-1.89 1.032-1.89 2.14C.125-.92 1.108.095 2.14.095c.532 0 1.126-.235 1.516-.516l-.078-.906c-.797.64-1.234.64-1.437.64-.67 0-1.062-.468-1.078-1.17h2.625zm-2.594-.47c.14-.64.437-.936.922-.936.437 0 .75.156.843.812H1.124z"/></symbol><symbol overflow="visible" id="S"><path d="M3.86-2.672c0-.562-.282-1.453-1.33-1.453-.764 0-1.296.61-1.342.672l.28.094v-.734H.517V0h1v-2.22c0-.56.046-1.14.703-1.14.81 0 .655.485.655.75V0h.984z"/></symbol><symbol overflow="visible" id="T"><path d="M3.703-6.172H2.89v2.313c-.17-.14-.765-.265-1.078-.265-.843 0-1.67 1.016-1.67 2.11 0 1.11.827 2.11 1.624 2.11.28 0 .906-.11 1.093-.298V0h1v-6.172zm-.844 4.86c0 .125.046.187-.235.42-.188.173-.28.205-.5.205-.53 0-1-.266-1-1.33 0-1.124.578-1.342 1.078-1.342.39 0 .516.172.656.36z"/></symbol><symbol overflow="visible" id="U"><path d="M5.22-6.172h-.923v2.594H1.72v-2.594H.624V0H1.72v-2.813h2.577V0h1.078v-6.172z"/></symbol><symbol overflow="visible" id="W"><path d="M1.875-6.172H.64V0h1v-5.313h-.265c.11.235.516 1.047.563 1.14L4.047 0h1.31v-6.172h-.983V-.86h.25c-.094-.218-.5-1.046-.547-1.14l-2.11-4.172z"/></symbol><symbol overflow="visible" id="X"><path d="M4.156-2c0-1.14-1.015-2.188-2.03-2.188C1.077-4.188.077-3.107.077-2 .078-.875 1.125.094 2.125.094 3.14.094 4.155-.89 4.155-2zM2.126-.703c-.595 0-1.048-.36-1.048-1.39 0-1.016.484-1.313 1.047-1.313.594 0 1.03.312 1.03 1.312 0 1.016-.405 1.39-1.03 1.39z"/></symbol><symbol overflow="visible"><path/></symbol><symbol overflow="visible" id="V"><path d="M3.313-.938c.578-.625.843-1.578.843-1.625 0-.062-.234-.296-.297-.296-.08 0-.297.235-.33.36-.17.64-.342.922-.358.922-.016 0 .187.047.187-.047 0-1.094-.922-1.53-1.344-1.53-.875 0-1.954 1.06-1.954 1.936C.063-.61.703.063 1.36.063c.437 0 1.046-.218 1.265-.39.047.156.625.39.734.39.36 0 .765-.515.765-.64 0-.078-.28-.28-.297-.28-.078 0-.297.217-.312.264-.11.266-.11.078-.125.078-.093 0 .016.204-.015-.484zm-.75-.078c-.454.407-.83.5-1.188.5-.313 0-.39.016-.39-.484 0-.22.03-.72.328-1.14.25-.344.437-.422.703-.422.328 0 .312.03.39.406.094.422.047.922.078 1.203z"/></symbol><symbol overflow="visible"><path/></symbol><symbol overflow="visible" id="ac"><path d="M2.938-3.53c-.235.077-.454.436-.454.53 0 .22.344.563.563.563.22 0 .562-.33.562-.563 0-.5-.72-.922-1.47-.922C1.03-3.922.095-2.86.095-1.906.094-.89 1.11.078 2.11.078c1.124 0 1.593-1.125 1.593-1.22 0-.092-.297-.28-.312-.28-.062 0-.296.188-.312.28-.062.158-.094.61-.89.61-.485 0-1.016-.202-1.016-1.374 0-1.157.406-1.407.984-1.407.078 0 .36-.046.64.094z"/></symbol><symbol overflow="visible" id="ad"><path d="M4.172-1.875c0-1-1.016-2.047-2.063-2.047-1.047 0-2.063 1.047-2.063 2.047C.047-.89 1.094.078 2.11.078c1.03 0 2.062-.97 2.062-1.953zM2.11-.53c-.422 0-.64-.157-.813-.44-.203-.327-.172-.577-.172-.983 0-.297-.047-.656.203-1 .203-.28.406-.375.78-.375.423 0 .626.14.814.422.203.328.156.64.156.953 0 .375.047.672-.172 1.016-.22.312-.437.406-.797.406z"/></symbol><symbol overflow="visible" id="ae"><path d="M1.516-5.89L.14-5.798v.625c.735 0 .61-.14.61.25v4.11c0 .36.094.187-.61.187v.64c.5-.046.954-.046 1.094-.046.157 0 .58 0 1.079.046v-.64c-.688 0-.61.17-.61-.189v-5.093z"/></symbol><symbol overflow="visible"><path/></symbol><symbol overflow="visible" id="ai"><path d="M-3.906-1.03h2.922c.5 0 .343-.048.343.858h.656C-.016-.734-.03-1.282-.03-1.578c0-.28.014-.86.046-1.39H-.64c0 .89.156.86-.344.86h-2c-1.14 0-1.594-.61-1.594-1.314 0-.687.437-.64 1.062-.64h2.532c.5 0 .343-.047.343.86h.656C-.016-3.767-.03-4.313-.03-4.61c0-.28.014-.86.046-1.39H-.64c0 .89.156.86-.344.86h-2c-1.14 0-1.594-.626-1.594-1.313 0-.688.437-.64 1.062-.64h2.532c.5 0 .343-.048.343.86h.656c-.032-.564-.047-1.11-.047-1.408 0-.282.014-.86.046-1.39H-.64c0 .733.156.842-.172.858h-2.094c-.938 0-1.375.047-1.766.39-.187.14-.453.61-.453 1.25 0 .923.797 1.563 1.203 1.75l.016-.327c-.953.14-1.22 1.126-1.22 1.61 0 .797.61 1.484 1.282 1.78l.016-.327H-5.14L-5-.172h.64c0-.937-.077-.86.454-.86z"/></symbol><symbol overflow="visible" id="aj"><path d="M-5.125-1.938L-5-.234h.64c0-.875-.093-.797.438-.797h2.938c.5 0 .343-.064.343.843h.656C-.016-.704-.03-1.298-.03-1.563c0-.375.014-.766.046-1.297H-.64c0 .89.093.766-.33.766h-4.17zm-1.75-.203c-.344 0-.734.437-.734.75 0 .327.454.75.735.75.297 0 .734-.422.734-.75 0-.313-.376-.75-.735-.75z"/></symbol><symbol overflow="visible" id="ak"><path d="M-3.906-1.03h2.922c.5 0 .343-.048.343.858h.656C-.016-.734-.03-1.282-.03-1.578c0-.28.014-.86.046-1.39H-.64c0 .89.156.86-.344.86h-2c-1.14 0-1.594-.61-1.594-1.314 0-.687.437-.64 1.062-.64h2.532c.5 0 .343-.047.343.86h.656C-.016-3.767-.03-4.313-.03-4.61c0-.28.014-.86.046-1.39H-.64c0 .734.156.844-.172.86h-2.094c-.938 0-1.375.046-1.766.39-.187.14-.453.61-.453 1.25 0 .797.61 1.484 1.28 1.78l.017-.327H-5.14L-5-.172h.64c0-.937-.077-.86.454-.86z"/></symbol><symbol overflow="visible" id="al"><path d="M2.47-3.78c-.033 0-.173.06-.36.25C.733-2.173-1.204-1.876-2.876-1.876c-1.906 0-3.688-.36-5.047-1.703-.14-.14-.266-.203-.297-.203-.077 0-.264.217-.264.28 0 .11.875 1.266 2.265 1.906 1.204.563 2.423.688 3.345.688.844 0 2.172-.125 3.406-.72C1.86-2.28 2.72-3.39 2.72-3.5c0-.063-.173-.28-.25-.28z"/></symbol><symbol overflow="visible" id="am"><path d="M-2.875-3.313c-.86 0-2.172.11-3.406.72-1.345.655-2.204 1.75-2.204 1.86 0 .06.203.28.265.28.033 0 .158-.047.36-.25 1.08-1.078 2.704-1.64 4.985-1.64 1.86 0 3.672.343 5.047 1.702.125.14.265.187.297.187.06 0 .25-.22.25-.28 0-.11-.892-1.25-2.267-1.892-1.203-.563-2.422-.688-3.328-.688z"/></symbol><clipPath id="a"><path d="M30.2 7.293h208.6v208.5H30.2z"/></clipPath><clipPath id="b"><path d="M30.2 57h208.6v158.793H30.2z"/></clipPath><clipPath id="c"><path d="M30.2 7.293h208.6v208.5H30.2z"/></clipPath><clipPath id="d"><path d="M30.2 44h208.6v171.793H30.2z"/></clipPath><clipPath id="e"><path d="M30.2 31h208.6v184.793H30.2z"/></clipPath><clipPath id="f"><path d="M30.2 27h208.6v188.793H30.2z"/></clipPath><clipPath id="g"><path d="M30.2 49h208.6v166.793H30.2z"/></clipPath><clipPath id="h"><path d="M30.2 7.293h208.6v208.5H30.2z"/></clipPath><clipPath id="i"><path d="M30.2 26h208.6v189.793H30.2z"/></clipPath><clipPath id="j"><path d="M30.2 7.293h208.6v208.5H30.2z"/></clipPath><clipPath id="k"><path d="M30.2 51h208.6v164.793H30.2z"/></clipPath><clipPath id="l"><path d="M30.2 62h208.6v153.793H30.2z"/></clipPath><clipPath id="m"><path d="M30.2 46h208.6v169.793H30.2z"/></clipPath><clipPath id="n"><path d="M30.2 35h208.6v180.793H30.2z"/></clipPath></defs><g><path d="M494 216H285V7h209zM239 216H30V7h209z" fill="#fff"/><g clip-path="url(#a)"><path d="M30.2 95.19l4.902 4.5L40 104.294l4.8 4.5 4.9 4.5 4.902 4.398 4.796 4.302 4.903 4.2 4.9 4.1 4.8 4 4.898 3.802 4.903 3.5 4.802 3.3 4.898 2.9 4.898 2.5 4.8 2.1 4.904 1.5 4.898.9 4.898.198 4.8-.5 4.904-1.2 4.898-2 4.8-2.698 4.9-3.403 4.902-4.096 4.796-4.602 4.903-5.2 4.9-5.6 4.8-6 4.898-6.297 4.903-6.602 4.802-6.8L186 92.894l4.898-7.204 4.8-7.397 4.904-7.5 4.898-7.602 4.8-7.698 4.9-7.8 4.902-8 4.796-7.9 4.903-8.1 4.9-8.098 4.8-8.102 4.898-8.2 4.903-8.3 4.802-8.2 4.898-8.3 4.898-8.2 4.903-8.3 4.802 7140.602" fill="none" stroke-width="1.5" stroke-linecap="round" stroke-linejoin="round" stroke="rgb(9.799194%,9.799194%,43.998718%)" stroke-miterlimit="2"/></g><g clip-path="url(#b)"><path d="M30.2 125.895l4.902 3.597L40 132.895l4.8 3.398 4.9 3.102 4.902 2.898 4.796 2.7 4.903 2.5 4.9 2.198 4.8 2 4.898 1.705 4.903 1.398 4.802 1.2 4.898.8 4.898.602 4.8.296h4.904l4.898-.295 4.898-.602 4.8-.8 4.904-1.098 4.898-1.403 4.8-1.597 4.9-1.8 4.902-2 4.796-2.302 4.903-2.398 4.9-2.602 4.8-2.8 4.898-3 4.903-3.098 4.802-3.204 4.898-3.397 4.898-3.5 4.8-3.602 4.904-3.698 4.898-3.7 4.8-3.897 4.9-4 4.902-4 4.796-4 4.903-4.102 4.9-4.2 4.8-4.1 4.898-4.2 4.903-4.102 4.802-4.096L259 65.992l4.898-3.898 4.903-3.903 4.802 7040.404" fill="none" stroke-width="1.5" stroke-linecap="round" stroke-linejoin="round" stroke="rgb(9.799194%,9.799194%,43.998718%)" stroke-miterlimit="2"/></g><g clip-path="url(#c)"><path d="M30.2 120.395l4.902 4.097L40 128.395l4.8 3.796 4.9 3.705 4.902 3.398 4.796 3.2 4.903 2.902 4.9 2.597 4.8 2.3 4.898 1.802 4.903 1.5 4.802 1.097 4.898.603 4.898.102 4.8-.204 4.904-.698 4.898-1.2 4.898-1.5 4.8-1.8 4.904-2.3 4.898-2.5 4.8-2.797 4.9-3 4.902-3.3 4.796-3.5 4.903-3.7 4.9-4 4.8-4 4.898-4.3 4.903-4.404 4.802-4.596 4.898-4.7 4.898-4.8 4.8-5 4.904-5.102 4.898-5.2 4.8-5.3 4.9-5.398 4.902-5.602 4.796-5.597 4.903-5.704 4.9-5.795 4.8-5.8 4.898-6 4.903-6 4.802-6.103L259 19.395l4.898-6.204 4.903-6.198 4.802 7091.602" fill="none" stroke-width="1.5" stroke-linecap="round" stroke-linejoin="round" stroke="rgb(9.799194%,9.799194%,43.998718%)" stroke-miterlimit="2"/></g><g clip-path="url(#d)"><path d="M30.2 115.395l4.902 4.296L40 123.993l4.8 4.2 4.9 4.1 4.902 4 4.796 3.9 4.903 3.703 4.9 3.5 4.8 3.296 4.898 3.103 4.903 2.8 4.802 2.5 4.898 2.098 4.898 1.802 4.8 1.403 4.904 1 4.898.5 4.898.097 4.8-.398 4.904-.903 4.898-1.295 4.8-1.704 4.9-2.198 4.902-2.5 4.796-2.898 4.903-3.2 4.9-3.5 4.8-3.8 4.898-4 4.903-4.2 4.802-4.402 4.898-4.597 4.898-4.704 4.8-4.795 4.904-4.903 4.898-5 4.8-5.097 4.9-5.102 4.902-5.102 4.796-5.198 4.903-5.097 4.9-5.102 4.8-5 4.898-4.898 4.903-4.8 4.802-4.603 4.898-4.2 4.898-3.897 4.903-3.403 4.802 7053.102" fill="none" stroke-width="1.5" stroke-linecap="round" stroke-linejoin="round" stroke="rgb(9.799194%,9.799194%,43.998718%)" stroke-miterlimit="2"/></g><g clip-path="url(#e)"><path d="M30.2 175.895l4.902 1.398L40 178.395l4.8.7 4.9.397H54.6l4.796-.3 4.903-.7 4.9-.898 4.8-1.3 4.898-1.5 4.903-1.7 4.802-2.102 4.898-2.2 4.898-2.397 4.8-2.704 4.904-2.795 4.898-3 4.898-3.204 4.8-3.397 4.904-3.398 4.898-3.704 4.8-3.795 4.9-3.903 4.902-4 4.796-4.097 4.903-4.204 4.9-4.295 4.8-4.403 4.898-4.5 4.903-4.5 4.802-4.597L186 97.19l4.898-4.596 4.8-4.8 4.904-4.7 4.898-4.7 4.8-4.8 4.9-4.7 4.902-4.6 4.796-4.603 4.903-4.5 4.9-4.295 4.8-4.102 4.898-3.898 4.903-3.403 4.802-3 4.898-2.3 4.898-1.5 4.903-.598 4.802 7066.5" fill="none" stroke-width="1.5" stroke-linecap="round" stroke-linejoin="round" stroke="rgb(9.799194%,9.799194%,43.998718%)" stroke-miterlimit="2"/></g><g clip-path="url(#f)" fill="none" stroke-width="1.5" stroke-linecap="round" stroke-linejoin="round" stroke="rgb(9.799194%,9.799194%,43.998718%)" stroke-miterlimit="2"><path d="M30.2 117.293l4.902 4.398L40 125.993l4.8 4.3 4.9 4.2 4.902 4 4.796 4 4.903 3.8 4.9 3.603 4.8 3.398 4.898 3.2 4.903 2.902 4.802 2.597 4.898 2.2 4.898 1.902 4.8 1.398 4.904 1 4.898.5 4.898.102 4.8-.5 4.904-.903 4.898-1.5 4.8-1.795 4.9-2.403 4.902-2.7 4.796-3.1 4.903-3.4 4.9-3.8 4.8-4 4.898-4.3 4.903-4.598 4.802-4.7 4.898-4.902 4.898-5.097 4.8-5.204 4.904-5.397 4.898-5.398 4.8-5.602 4.9-5.7 4.902-5.698 4.796-5.903 4.903-5.898 4.9-5.903 4.8-6 4.898-6 4.903-6.096 4.802-6L259 40.492l4.898-6 4.903-6 4.802 7070.102M30.2 93.594l4.902 4.398L40 102.395l4.8 4.2 4.9 4.198 4.902 4.102 4.796 4 4.903 3.898 4.9 3.7 4.8 3.5 4.898 3.402 4.903 3.097 4.802 2.8 4.898 2.603 4.898 2.2 4.8 1.8 4.904 1.5 4.898 1.097 4.898.7 4.8.203 4.904-.3 4.898-.603 4.8-1.097 4.9-1.5 4.902-2 4.796-2.3 4.903-2.603 4.9-3 4.8-3.3 4.898-3.598 4.903-3.8 4.802-4 4.898-4.2 4.898-4.403 4.8-4.596 4.904-4.8 4.898-4.802 4.8-5 4.9-5.097 4.902-5.204 4.796-5.198 4.903-5.398 4.9-5.403 4.8-5.5 4.898-5.5 4.903-5.5 4.802-5.5L259 39.595l4.898-5.5 4.903-5.5 4.802 7070"/></g><g clip-path="url(#g)"><path d="M30.2 105.19l4.902 4.103L40 113.19l4.8 3.904 4.9 3.7 4.902 3.6 4.796 3.4 4.903 3.198 4.9 3 4.8 2.8 4.898 2.4 4.903 2.203 4.802 1.898 4.898 1.602 4.898 1.2 4.8.8 4.904.5 4.898.097 4.898-.3 4.8-.7 4.904-1 4.898-1.398 4.8-1.7 4.9-2 4.902-2.3 4.796-2.5 4.903-2.8 4.9-3.103 4.8-3.198 4.898-3.398 4.903-3.602 4.802-3.8 4.898-3.797 4.898-4 4.8-4 4.904-4.102 4.898-4.2 4.8-4.3 4.9-4.2 4.902-4.198 4.796-4.3 4.903-4.103 4.9-4.097 4.8-3.903 4.898-3.7 4.903-3.397 4.802-3.102L259 53.69l4.898-1.897 4.903-1.102 4.802 7047.904" fill="none" stroke-width="1.5" stroke-linecap="round" stroke-linejoin="round" stroke="rgb(9.799194%,9.799194%,43.998718%)" stroke-miterlimit="2"/></g><g clip-path="url(#h)"><path d="M30.2 165.69l4.902 1.603 4.898 1.2 4.8.6 4.9.2 4.902-.3 4.796-.802 4.903-1.295 4.9-1.704 4.8-2.096 4.898-2.403 4.903-2.795 4.802-3.102 4.898-3.398 4.898-3.602 4.8-3.8 4.904-4.098L113 135.69l4.898-4.397 4.8-4.602 4.904-4.698 4.898-4.898 4.8-5 4.9-5.102 4.902-5.3 4.796-5.4 4.903-5.5 4.9-5.6 4.8-5.7 4.898-5.898 4.903-5.903 4.802-6L186 55.595l4.898-6.102 4.8-6.3 4.904-6.297 4.898-6.403 4.8-6.398 4.9-6.5 4.902-6.602 4.796-6.5 4.903-6.7 4.9-6.6 4.8-6.7 4.898-6.597 4.903-6.704 4.802-6.596L259-42.008l4.898-6.5 4.903-6.5 4.802 7153.602" fill="none" stroke-width="1.5" stroke-linecap="round" stroke-linejoin="round" stroke="rgb(9.799194%,9.799194%,43.998718%)" stroke-miterlimit="2"/></g><g clip-path="url(#i)"><path d="M30.2 108.19l4.902 4.103 4.898 4 4.8 3.898 4.9 3.705 4.902 3.597 4.796 3.403 4.903 3.2 4.9 3 4.8 2.596 4.898 2.5 4.903 2 4.802 1.802 4.898 1.403 4.898 1.097 4.8.602 4.904.3 4.898-.1 4.898-.5 4.8-.9 4.904-1.203 4.898-1.5 4.8-1.897 4.9-2.2 4.902-2.5 4.796-2.8 4.903-3 4.9-3.3 4.8-3.4 4.898-3.698 4.903-3.8 4.802-4.103 4.898-4.097 4.898-4.3 4.8-4.404 4.904-4.596 4.898-4.602 4.8-4.7 9.802-9.8 4.796-4.898 4.903-5.102 4.9-5.097 4.8-5.102 4.898-5.102 4.903-5.198 4.802-5.097L259 37.19l4.898-5.096 4.903-5 4.802 7071.5" fill="none" stroke-width="1.5" stroke-linecap="round" stroke-linejoin="round" stroke="rgb(69.799805%,13.198853%,13.198853%)" stroke-dasharray="4,2" stroke-miterlimit="2"/></g><g clip-path="url(#j)"><path d="M30.2 17.492l4.902 4.602 4.898 4.7 4.8 4.6 4.9 4.598 4.902 4.5 4.796 4.602L64.3 49.69l4.9 4.5 4.8 4.5 4.898 4.5 4.903 4.5 4.802 4.404 4.898 4.398 4.898 4.3 4.8 4.2 4.904 4.2 4.898 4.1 4.898 3.9 4.8 3.703 4.904 3.597 4.898 3.403 4.8 3 4.9 2.796 4.902 2.302 4.796 1.903 4.903 1.5 4.9.796 4.8.205 4.898-.403 4.903-1.2 4.802-1.897 4.898-2.602 4.898-3.2 4.8-3.902 4.904-4.5 4.898-5.096 4.8-5.5 4.9-5.903 4.902-6.295 4.796-6.5 4.903-6.8 4.9-7.103 4.8-7.2 4.898-7.397 4.903-7.602 4.802-7.602L259 21.896l4.898-7.8L268.8 6.19l4.802 7092.404" fill="none" stroke-width="1.5" stroke-linecap="round" stroke-linejoin="round" stroke="rgb(69.799805%,13.198853%,13.198853%)" stroke-dasharray="4,2" stroke-miterlimit="2"/></g><g clip-path="url(#k)"><path d="M30.2 114.594l4.902 2.597 4.898 2.5 4.8 2.205 4.9 2.097 4.902 1.8 4.796 1.603 4.903 1.398 4.9 1.2 4.8 1 4.898.8 4.903.602 4.802.398 4.898.2h4.898l4.8-.098 4.904-.3 4.898-.404 4.898-.698 4.8-.7 4.904-.897 4.898-1.102 4.8-1.2 4.9-1.3 4.902-1.5 4.796-1.602 4.903-1.795 4.9-1.903 4.8-2.097 4.898-2.204 4.903-2.295 4.802-2.5 4.898-2.5 4.898-2.704 4.8-2.795 4.904-2.903 4.898-3 4.8-3.097 4.9-3.204 4.902-3.198 4.796-3.398 4.903-3.3 4.9-3.5 4.8-3.4 4.898-3.5 4.903-3.5 4.802-3.6 4.898-3.5 4.898-3.4 4.903-3.5 4.802 7046.2" fill="none" stroke-width="1.5" stroke-linecap="round" stroke-linejoin="round" stroke="rgb(69.799805%,13.198853%,13.198853%)" stroke-dasharray="4,2" stroke-miterlimit="2"/></g><g clip-path="url(#l)"><path d="M30.2 63.19l4.902 4.205L40 71.492l4.8 4 4.9 3.903L54.6 83.19l4.796 3.802 4.903 3.602 4.9 3.5 4.8 3.3 4.898 3.2 4.903 3 4.802 2.8 4.898 2.7 4.898 2.398 4.8 2.2 4.904 1.902 4.898 1.8 4.898 1.4 4.8 1.198 4.904.903 4.898.7 4.8.3 4.9.097 4.902-.097 4.796-.5 4.903-.704 4.9-.897 4.8-1.2 4.898-1.402 4.903-1.596 4.802-1.8 4.898-2 4.898-2.2 4.8-2.3 4.904-2.4 4.898-2.6 4.8-2.7 4.9-2.8 4.902-2.9 4.796-3 4.903-3 4.9-3.1 4.8-3.103 4.898-3.096 4.903-3.102 4.802-3 4.898-3 4.898-2.898 4.903-2.7 4.802 7034.7" fill="none" stroke-width="1.5" stroke-linecap="round" stroke-linejoin="round" stroke="rgb(69.799805%,13.198853%,13.198853%)" stroke-dasharray="4,2" stroke-miterlimit="2"/></g><g clip-path="url(#m)"><path d="M30.2 114.094l4.902 3.597L40 121.095l4.8 3.2 4.9 3.1 4.902 2.9 4.796 2.6 4.903 2.4 4.9 2.198 4.8 1.903 4.898 1.7 4.903 1.397 4.802 1.102 4.898.8 4.898.5 4.8.297h4.904l4.898-.295 4.898-.602 4.8-.8 4.904-1 4.898-1.4 4.8-1.5 4.9-1.8 4.902-2 4.796-2.2 4.903-2.402 4.9-2.596 4.8-2.7 4.898-2.902 4.903-3.097 4.802-3.204 4.898-3.295 4.898-3.403 4.8-3.5 4.904-3.7 4.898-3.698 4.8-3.8 4.9-3.9 4.902-3.902 4.796-4 4.903-4 4.9-4.097 4.8-4.102 4.898-4 4.903-4.102 4.802-4L259 55.294l4.898-3.8 4.903-3.802 4.802 7050.904" fill="none" stroke-width="1.5" stroke-linecap="round" stroke-linejoin="round" stroke="rgb(69.799805%,13.198853%,13.198853%)" stroke-dasharray="4,2" stroke-miterlimit="2"/></g><g clip-path="url(#n)" fill="none" stroke-width="1.5" stroke-linecap="round" stroke-linejoin="round" stroke="rgb(69.799805%,13.198853%,13.198853%)" stroke-dasharray="4,2" stroke-miterlimit="2"><path d="M30.2 44.19l4.902 4.603 4.898 4.5 4.8 4.602 4.9 4.5 4.902 4.5 4.796 4.398 4.903 4.5 4.9 4.3 4.8 4.4 4.898 4.198 4.903 4.205 4.802 4.097 4.898 3.903 4.898 3.796 4.8 3.705 4.904 3.5L113 115.19l4.898 3 4.8 2.705 4.904 2.5 4.898 2 4.8 1.7 4.9 1.3 4.902.898 4.796.3 4.903-.1 4.9-.5 4.8-1.098 4.898-1.5 4.903-2 4.802-2.403 4.898-2.8 4.898-3.2 4.8-3.5 4.904-3.8 4.898-4.098 4.8-4.3 4.9-4.603 4.902-4.698 4.796-5 4.903-5 4.9-5.3 4.8-5.297 4.898-5.5 4.903-5.5 4.802-5.704L259 47.993l4.898-5.8 4.903-5.797 4.802 7062.2M30.2 35.895l4.902 4.097L40 44.094l4.8 4 4.9 3.898 4.902 3.8 4.796 3.7 4.903 3.602 4.9 3.398 4.8 3.3 4.898 3.103 4.903 3 4.802 2.796 4.898 2.5 4.898 2.404 4.8 2.097 4.904 1.904L113 89.19l4.898 1.404 4.8 1.097 4.904.904 4.898.597 4.8.302h4.9l4.902-.2 4.796-.397 4.903-.704 4.9-.897 4.8-1.2 4.898-1.3 4.903-1.5 4.802-1.602 9.796-3.795 4.8-2.102 4.904-2.2 4.898-2.198 4.8-2.3 4.9-2.404 4.902-2.295 4.796-2.403 4.903-2.3 4.9-2.098 4.8-2 4.898-1.8 4.903-1.302 4.802-.898 4.898-.2 4.898.7 4.903 1.8 4.802 7040.7"/></g><path d="M30.2 215.793h208.6" fill="none" stroke-width=".75" stroke-linecap="square" stroke-linejoin="round" stroke="#000" stroke-miterlimit="2"/><path d="M30.2 208.594v7.2m69.6-7.2v7.2m69.5-7.2v7.2m69.5-7.2v7.2" fill="none" stroke-width=".9" stroke-linecap="square" stroke-linejoin="round" stroke="#000" stroke-miterlimit="2"/><path d="M51.2 212.19v3.603m12.198-3.602v3.603m8.704-3.602v3.603m6.7-3.602v3.603m5.5-3.602v3.603M89 212.19v3.603m4-3.602v3.603m3.602-3.602v3.603m24.097-3.602v3.603m12.3-3.602v3.603m8.602-3.602v3.603m6.796-3.602v3.603m5.5-3.602v3.603m4.602-3.602v3.603m4.102-3.602v3.603m3.5-3.602v3.603m24.097-3.602v3.603m12.3-3.602v3.603m8.7-3.602v3.603m6.698-3.602v3.603m5.5-3.602v3.603m4.704-3.602v3.603m4-3.602v3.603m3.597-3.602v3.603" fill="none" stroke-width=".7" stroke-linecap="square" stroke-linejoin="round" stroke="#000" stroke-miterlimit="2"/><path d="M30.2 215.793V7.293" fill="none" stroke-width=".75" stroke-linecap="square" stroke-linejoin="round" stroke="#000" stroke-miterlimit="2"/><path d="M37.398 215.793h-7.2m7.2-69.5h-7.2m7.2-69.5h-7.2m7.2-69.5h-7.2" fill="none" stroke-width=".9" stroke-linecap="square" stroke-linejoin="round" stroke="#000" stroke-miterlimit="2"/><path d="M33.8 194.895h-3.6m3.6-12.204h-3.6m3.6-8.698h-3.6m3.6-6.8h-3.6m3.6-5.5h-3.6m3.6-4.598h-3.6m3.6-4.102h-3.6m3.6-3.5h-3.6m3.6-24.097h-3.6m3.6-12.3h-3.6m3.6-8.7h-3.6m3.6-6.704h-3.6m3.6-5.5h-3.6m3.6-4.698h-3.6m3.6-4h-3.6m3.6-3.5h-3.6m3.6-24.2h-3.6m3.6-12.198h-3.6m3.6-8.7h-3.6m3.6-6.703h-3.6m3.6-5.5h-3.6m3.6-4.698h-3.6m3.6-4h-3.6m3.6-3.597h-3.6" fill="none" stroke-width=".7" stroke-linecap="square" stroke-linejoin="round" stroke="#000" stroke-miterlimit="2"/><path d="M30.2 7.293h208.6" fill="none" stroke-width=".75" stroke-linecap="square" stroke-linejoin="round" stroke="#000" stroke-miterlimit="2"/><path d="M30.2 14.492v-7.2m69.6 7.2v-7.2m69.5 7.2v-7.2m69.5 7.2v-7.2" fill="none" stroke-width=".9" stroke-linecap="square" stroke-linejoin="round" stroke="#000" stroke-miterlimit="2"/><path d="M51.2 10.895V7.293m12.198 3.602V7.293m8.704 3.602V7.293m6.7 3.602V7.293m5.5 3.602V7.293M89 10.895V7.293m4 3.602V7.293m3.602 3.602V7.293m24.097 3.602V7.293m12.3 3.602V7.293m8.602 3.602V7.293m6.796 3.602V7.293m5.5 3.602V7.293m4.602 3.602V7.293m4.102 3.602V7.293m3.5 3.602V7.293m24.097 3.602V7.293m12.3 3.602V7.293m8.7 3.602V7.293m6.698 3.602V7.293m5.5 3.602V7.293m4.704 3.602V7.293m4 3.602V7.293m3.597 3.602V7.293" fill="none" stroke-width=".7" stroke-linecap="square" stroke-linejoin="round" stroke="#000" stroke-miterlimit="2"/><path d="M238.8 215.793V7.293" fill="none" stroke-width=".75" stroke-linecap="square" stroke-linejoin="round" stroke="#000" stroke-miterlimit="2"/><path d="M231.602 215.793h7.2m-7.2-69.5h7.2m-7.2-69.5h7.2m-7.2-69.5h7.2" fill="none" stroke-width=".9" stroke-linecap="square" stroke-linejoin="round" stroke="#000" stroke-miterlimit="2"/><path d="M235.2 194.895h3.6m-3.6-12.204h3.6m-3.6-8.698h3.6m-3.6-6.8h3.6m-3.6-5.5h3.6m-3.6-4.598h3.6m-3.6-4.102h3.6m-3.6-3.5h3.6m-3.6-24.097h3.6m-3.6-12.3h3.6m-3.6-8.7h3.6m-3.6-6.704h3.6m-3.6-5.5h3.6m-3.6-4.698h3.6m-3.6-4h3.6m-3.6-3.5h3.6m-3.6-24.2h3.6m-3.6-12.198h3.6m-3.6-8.7h3.6m-3.6-6.703h3.6m-3.6-5.5h3.6m-3.6-4.698h3.6m-3.6-4h3.6m-3.6-3.597h3.6" fill="none" stroke-width=".7" stroke-linecap="square" stroke-linejoin="round" stroke="#000" stroke-miterlimit="2"/><path d="M139.2 180.094h14.1" fill="none" stroke-width="1.3" stroke-linecap="round" stroke-linejoin="round" stroke="rgb(9.799194%,9.799194%,43.998718%)" stroke-miterlimit="2"/><path d="M139.2 197.793h14.1" fill="none" stroke-width="1.3" stroke-linecap="round" stroke-linejoin="round" stroke="rgb(69.799805%,13.198853%,13.198853%)" stroke-dasharray="4,2" stroke-miterlimit="2"/><use xlink:href="#o" x="375.348" y="128.779" fill="rgb(9.799194%,9.799194%,43.998718%)"/><use xlink:href="#o" x="341.159" y="132.727" fill="rgb(9.799194%,9.799194%,43.998718%)"/><use xlink:href="#o" x="354.515" y="129.379" fill="rgb(9.799194%,9.799194%,43.998718%)"/><use xlink:href="#o" x="357.096" y="145.171" fill="rgb(9.799194%,9.799194%,43.998718%)"/><use xlink:href="#o" x="312.384" y="165.487" fill="rgb(9.799194%,9.799194%,43.998718%)"/><use xlink:href="#o" x="351.539" y="149.839" fill="rgb(9.799194%,9.799194%,43.998718%)"/><use xlink:href="#o" x="370.404" y="120.283" fill="rgb(9.799194%,9.799194%,43.998718%)"/><use xlink:href="#o" x="362.291" y="117.427" fill="rgb(9.799194%,9.799194%,43.998718%)"/><use xlink:href="#o" x="314.88" y="150.187" fill="rgb(9.799194%,9.799194%,43.998718%)"/><use xlink:href="#p" x="358.8" y="120.415" fill="rgb(69.799805%,13.198853%,13.198853%)"/><use xlink:href="#p" x="430.212" y="70.351" fill="rgb(69.799805%,13.198853%,13.198853%)"/><use xlink:href="#p" x="361.188" y="95.875" fill="rgb(69.799805%,13.198853%,13.198853%)"/><use xlink:href="#p" x="394.236" y="79.363" fill="rgb(69.799805%,13.198853%,13.198853%)"/><use xlink:href="#p" x="347.688" y="114.115" fill="rgb(69.799805%,13.198853%,13.198853%)"/><use xlink:href="#p" x="407.928" y="90.199" fill="rgb(69.799805%,13.198853%,13.198853%)"/><use xlink:href="#p" x="426.911" y="36.619" fill="rgb(69.799805%,13.198853%,13.198853%)"/><path d="M285.2 215.793h208.6" fill="none" stroke-width=".75" stroke-linecap="square" stroke-linejoin="round" stroke="#000" stroke-miterlimit="2"/><path d="M285.2 208.594v7.2m69.5-7.2v7.2m69.6-7.2v7.2m69.5-7.2v7.2" fill="none" stroke-width=".9" stroke-linecap="square" stroke-linejoin="round" stroke="#000" stroke-miterlimit="2"/><path d="M306.102 212.19v3.603m12.296-3.602v3.603m8.704-3.602v3.603m6.7-3.602v3.603m5.5-3.602v3.603M344 212.19v3.603m4-3.602v3.603m3.602-3.602v3.603m24.097-3.602v3.603m12.198-3.602v3.603m8.704-3.602v3.603m6.796-3.602v3.603m5.5-3.602v3.603m4.602-3.602v3.603m4-3.602v3.603m3.602-3.602v3.603m24.097-3.602v3.603m12.3-3.602v3.603m8.602-3.602v3.603m6.796-3.602v3.603m5.5-3.602v3.603m4.704-3.602v3.603m4-3.602v3.603m3.5-3.602v3.603" fill="none" stroke-width=".7" stroke-linecap="square" stroke-linejoin="round" stroke="#000" stroke-miterlimit="2"/><path d="M285.2 215.793V7.293" fill="none" stroke-width=".75" stroke-linecap="square" stroke-linejoin="round" stroke="#000" stroke-miterlimit="2"/><path d="M292.398 215.793h-7.2m7.2-104.3h-7.2m7.2-104.2h-7.2" fill="none" stroke-width=".9" stroke-linecap="square" stroke-linejoin="round" stroke="#000" stroke-miterlimit="2"/><path d="M288.8 184.395h-3.6m3.6-18.3h-3.6m3.6-13.103h-3.6m3.6-10.097h-3.6m3.6-8.204h-3.6m3.6-7h-3.6m3.6-6.096h-3.6m3.6-5.3h-3.6m3.6-36.2h-3.6m3.6-18.3h-3.6m3.6-13h-3.6m3.6-10.2h-3.6m3.6-8.2h-3.6m3.6-7h-3.6m3.6-6h-3.6m3.6-5.402h-3.6" fill="none" stroke-width=".7" stroke-linecap="square" stroke-linejoin="round" stroke="#000" stroke-miterlimit="2"/><path d="M285.2 7.293h208.6" fill="none" stroke-width=".75" stroke-linecap="square" stroke-linejoin="round" stroke="#000" stroke-miterlimit="2"/><path d="M285.2 14.492v-7.2m69.5 7.2v-7.2m69.6 7.2v-7.2m69.5 7.2v-7.2" fill="none" stroke-width=".9" stroke-linecap="square" stroke-linejoin="round" stroke="#000" stroke-miterlimit="2"/><path d="M306.102 10.895V7.293m12.296 3.602V7.293m8.704 3.602V7.293m6.7 3.602V7.293m5.5 3.602V7.293M344 10.895V7.293m4 3.602V7.293m3.602 3.602V7.293m24.097 3.602V7.293m12.198 3.602V7.293m8.704 3.602V7.293m6.796 3.602V7.293m5.5 3.602V7.293m4.602 3.602V7.293m4 3.602V7.293m3.602 3.602V7.293m24.097 3.602V7.293m12.3 3.602V7.293m8.602 3.602V7.293m6.796 3.602V7.293m5.5 3.602V7.293m4.704 3.602V7.293m4 3.602V7.293m3.5 3.602V7.293" fill="none" stroke-width=".7" stroke-linecap="square" stroke-linejoin="round" stroke="#000" stroke-miterlimit="2"/><path d="M493.8 215.793V7.293" fill="none" stroke-width=".75" stroke-linecap="square" stroke-linejoin="round" stroke="#000" stroke-miterlimit="2"/><path d="M486.602 215.793h7.2m-7.2-104.3h7.2m-7.2-104.2h7.2" fill="none" stroke-width=".9" stroke-linecap="square" stroke-linejoin="round" stroke="#000" stroke-miterlimit="2"/><path d="M490.2 184.395h3.6m-3.6-18.3h3.6m-3.6-13.103h3.6m-3.6-10.097h3.6m-3.6-8.204h3.6m-3.6-7h3.6m-3.6-6.096h3.6m-3.6-5.3h3.6m-3.6-36.2h3.6m-3.6-18.3h3.6m-3.6-13h3.6m-3.6-10.2h3.6m-3.6-8.2h3.6m-3.6-7h3.6m-3.6-6h3.6m-3.6-5.402h3.6" fill="none" stroke-width=".7" stroke-linecap="square" stroke-linejoin="round" stroke="#000" stroke-miterlimit="2"/><use xlink:href="#q" x="396.952" y="184.372" fill="rgb(9.799194%,9.799194%,43.998718%)"/><use xlink:href="#r" x="395.64" y="202.247" fill="rgb(69.799805%,13.198853%,13.198853%)"/><use xlink:href="#s" x="115.52" y="237.393"/><use xlink:href="#t" x="123.778" y="237.393"/><use xlink:href="#u" x="128.022" y="237.393"/><use xlink:href="#v" x="138.025" y="237.393"/><use xlink:href="#w" x="144.396" y="237.393"/><use xlink:href="#x" x="149.24" y="237.393"/><use xlink:href="#y" x="12.2" y="128.857"/><use xlink:href="#z" x="13.977" y="124.917"/><use xlink:href="#A" x="13.977" y="121.155"/><use xlink:href="#A" x="13.977" y="116.692"/><use xlink:href="#B" x="13.977" y="112.46"/><use xlink:href="#C" x="12.2" y="109.6"/><use xlink:href="#y" x="12.2" y="104.145"/><use xlink:href="#D" x="13.977" y="100.206"/><use xlink:href="#E" x="22.419" y="225.71"/><use xlink:href="#F" x="26.237" y="225.71"/><use xlink:href="#G" x="30.055" y="222.939"/><use xlink:href="#H" x="34.664" y="222.939"/><use xlink:href="#E" x="92.017" y="225.71"/><use xlink:href="#F" x="95.835" y="225.71"/><use xlink:href="#G" x="99.653" y="222.939"/><use xlink:href="#I" x="104.262" y="222.939"/><use xlink:href="#E" x="161.516" y="225.71"/><use xlink:href="#F" x="165.334" y="225.71"/><use xlink:href="#G" x="169.152" y="222.939"/><use xlink:href="#J" x="173.761" y="222.939"/><use xlink:href="#E" x="236.884" y="224.997"/><use xlink:href="#K" x="24.302" y="150.114"/><use xlink:href="#L" x="24.302" y="146.296"/><use xlink:href="#K" x="25.012" y="82.272"/><use xlink:href="#L" x="25.012" y="78.454"/><use xlink:href="#M" x="22.244" y="74.636"/><use xlink:href="#K" x="25.015" y="12.774"/><use xlink:href="#L" x="25.015" y="8.956"/><use xlink:href="#N" x="22.244" y="5.138"/><use xlink:href="#O" x="160.696" y="182.395"/><use xlink:href="#P" x="165.776" y="182.395"/><use xlink:href="#Q" x="169.699" y="182.395"/><use xlink:href="#R" x="172.77" y="182.395"/><use xlink:href="#S" x="176.548" y="182.395"/><use xlink:href="#T" x="180.948" y="182.395"/><use xlink:href="#R" x="185.347" y="182.395"/><use xlink:href="#T" x="189.125" y="182.395"/><use xlink:href="#U" x="196.358" y="182.395"/><use xlink:href="#V" x="202.39" y="183.671"/><use xlink:href="#W" x="160.696" y="200.194"/><use xlink:href="#X" x="166.72" y="200.194"/><use xlink:href="#O" x="173.809" y="200.194"/><use xlink:href="#P" x="178.888" y="200.194"/><use xlink:href="#Q" x="182.811" y="200.194"/><use xlink:href="#R" x="185.883" y="200.194"/><use xlink:href="#S" x="189.661" y="200.194"/><use xlink:href="#T" x="194.06" y="200.194"/><use xlink:href="#R" x="198.459" y="200.194"/><use xlink:href="#T" x="202.237" y="200.194"/><use xlink:href="#U" x="209.479" y="200.194"/><use xlink:href="#V" x="215.509" y="201.471"/><use xlink:href="#Y" x="351.475" y="237.393"/><use xlink:href="#Z" x="360.562" y="237.393"/><use xlink:href="#aa" x="363.595" y="237.393"/><use xlink:href="#t" x="369.66" y="237.393"/><use xlink:href="#ab" x="373.904" y="237.393"/><use xlink:href="#ac" x="377.838" y="239.171"/><use xlink:href="#ad" x="381.6" y="239.171"/><use xlink:href="#ad" x="386.071" y="239.171"/><use xlink:href="#ae" x="390.295" y="239.171"/><use xlink:href="#x" x="393.156" y="237.393"/><use xlink:href="#t" x="400.432" y="237.393"/><use xlink:href="#af" x="404.676" y="237.393"/><use xlink:href="#ag" x="413.24" y="237.393"/><use xlink:href="#ah" x="419" y="237.393"/><use xlink:href="#x" x="423.276" y="237.393"/><use xlink:href="#ai" x="267.193" y="142.19"/><use xlink:href="#aj" x="267.193" y="133.103"/><use xlink:href="#ak" x="267.193" y="130.07"/><use xlink:href="#al" x="267.193" y="124.005"/><use xlink:href="#y" x="267.193" y="119.761"/><use xlink:href="#z" x="268.97" y="115.826"/><use xlink:href="#A" x="268.97" y="112.064"/><use xlink:href="#A" x="268.97" y="107.601"/><use xlink:href="#B" x="268.97" y="103.369"/><use xlink:href="#C" x="267.193" y="100.508"/><use xlink:href="#y" x="267.193" y="95.053"/><use xlink:href="#D" x="268.97" y="91.114"/><use xlink:href="#am" x="267.193" y="85.047"/><use xlink:href="#an" x="386.39" y="127.248" fill="rgb(9.999084%,9.999084%,43.998718%)"/><use xlink:href="#ao" x="391.483" y="127.248" fill="rgb(9.999084%,9.999084%,43.998718%)"/><g fill="rgb(9.999084%,9.999084%,43.998718%)"><use xlink:href="#ap" x="395.645" y="127.248"/><use xlink:href="#aq" x="399.036" y="127.248"/></g><use xlink:href="#aq" x="400.861" y="127.248" fill="rgb(9.999084%,9.999084%,43.998718%)"/><g fill="rgb(9.999084%,9.999084%,43.998718%)"><use xlink:href="#E" x="405.229" y="127.248"/><use xlink:href="#ar" x="409.047" y="127.248"/><use xlink:href="#ar" x="412.865" y="127.248"/></g><use xlink:href="#an" x="306.994" y="131.249" fill="rgb(9.999084%,9.999084%,43.998718%)"/><use xlink:href="#ao" x="312.088" y="131.249" fill="rgb(9.999084%,9.999084%,43.998718%)"/><g fill="rgb(9.999084%,9.999084%,43.998718%)"><use xlink:href="#ap" x="316.25" y="131.249"/><use xlink:href="#aq" x="319.64" y="131.249"/></g><use xlink:href="#aq" x="321.465" y="131.249" fill="rgb(9.999084%,9.999084%,43.998718%)"/><g fill="rgb(9.999084%,9.999084%,43.998718%)"><use xlink:href="#as" x="325.833" y="131.249"/><use xlink:href="#at" x="329.652" y="131.249"/><use xlink:href="#au" x="333.47" y="131.249"/></g><use xlink:href="#an" x="358.594" y="135.151" fill="rgb(9.999084%,9.999084%,43.998718%)"/><use xlink:href="#ao" x="363.687" y="135.151" fill="rgb(9.999084%,9.999084%,43.998718%)"/><g fill="rgb(9.999084%,9.999084%,43.998718%)"><use xlink:href="#ap" x="367.849" y="135.151"/><use xlink:href="#aq" x="371.239" y="135.151"/></g><use xlink:href="#aq" x="373.064" y="135.151" fill="rgb(9.999084%,9.999084%,43.998718%)"/><g fill="rgb(9.999084%,9.999084%,43.998718%)"><use xlink:href="#as" x="377.433" y="135.151"/><use xlink:href="#av" x="381.251" y="135.151"/><use xlink:href="#aw" x="385.069" y="135.151"/></g><use xlink:href="#ax" x="368.093" y="143.651" fill="rgb(9.999084%,9.999084%,43.998718%)"/><g fill="rgb(9.999084%,9.999084%,43.998718%)"><use xlink:href="#ap" x="372.339" y="143.651"/><use xlink:href="#ay" x="375.73" y="143.651"/></g><g fill="rgb(9.999084%,9.999084%,43.998718%)"><use xlink:href="#az" x="378.341" y="143.651"/><use xlink:href="#aA" x="381.266" y="143.651"/></g><use xlink:href="#aB" x="383.091" y="143.651" fill="rgb(9.999084%,9.999084%,43.998718%)"/><g fill="rgb(9.999084%,9.999084%,43.998718%)"><use xlink:href="#E" x="389.025" y="143.651"/><use xlink:href="#aC" x="392.843" y="143.651"/><use xlink:href="#av" x="396.661" y="143.651"/><use xlink:href="#aD" x="400.479" y="143.651"/><use xlink:href="#F" x="403.022" y="143.651"/><use xlink:href="#ar" x="406.84" y="143.651"/></g><use xlink:href="#an" x="323.397" y="164.047" fill="rgb(9.999084%,9.999084%,43.998718%)"/><use xlink:href="#ao" x="328.491" y="164.047" fill="rgb(9.999084%,9.999084%,43.998718%)"/><g fill="rgb(9.999084%,9.999084%,43.998718%)"><use xlink:href="#ap" x="332.653" y="164.047"/><use xlink:href="#aq" x="336.043" y="164.047"/></g><use xlink:href="#aq" x="337.868" y="164.047" fill="rgb(9.999084%,9.999084%,43.998718%)"/><g fill="rgb(9.999084%,9.999084%,43.998718%)"><use xlink:href="#E" x="342.236" y="164.047"/><use xlink:href="#av" x="346.055" y="164.047"/><use xlink:href="#av" x="349.873" y="164.047"/><use xlink:href="#E" x="353.691" y="164.047"/></g><use xlink:href="#an" x="359.098" y="153.547" fill="rgb(9.999084%,9.999084%,43.998718%)"/><use xlink:href="#ao" x="364.191" y="153.547" fill="rgb(9.999084%,9.999084%,43.998718%)"/><g fill="rgb(9.999084%,9.999084%,43.998718%)"><use xlink:href="#ap" x="368.353" y="153.547"/><use xlink:href="#aq" x="371.743" y="153.547"/></g><use xlink:href="#aq" x="373.568" y="153.547" fill="rgb(9.999084%,9.999084%,43.998718%)"/><g fill="rgb(9.999084%,9.999084%,43.998718%)"><use xlink:href="#aE" x="377.937" y="153.547"/><use xlink:href="#aC" x="381.755" y="153.547"/><use xlink:href="#av" x="385.573" y="153.547"/><use xlink:href="#at" x="389.391" y="153.547"/></g><use xlink:href="#an" x="381.396" y="116.152" fill="rgb(9.999084%,9.999084%,43.998718%)"/><use xlink:href="#ao" x="386.489" y="116.152" fill="rgb(9.999084%,9.999084%,43.998718%)"/><g fill="rgb(9.999084%,9.999084%,43.998718%)"><use xlink:href="#ap" x="390.651" y="116.152"/><use xlink:href="#aq" x="394.042" y="116.152"/></g><use xlink:href="#aq" x="395.867" y="116.152" fill="rgb(9.999084%,9.999084%,43.998718%)"/><g fill="rgb(9.999084%,9.999084%,43.998718%)"><use xlink:href="#E" x="400.235" y="116.152"/><use xlink:href="#at" x="404.053" y="116.152"/><use xlink:href="#av" x="407.871" y="116.152"/><use xlink:href="#aC" x="411.689" y="116.152"/></g><g fill="rgb(9.999084%,9.999084%,43.998718%)"><use xlink:href="#aF" x="366.398" y="107.912"/><use xlink:href="#aG" x="371.804" y="107.912"/><use xlink:href="#aH" x="375.325" y="107.912"/></g><use xlink:href="#ay" x="379.273" y="107.912" fill="rgb(9.999084%,9.999084%,43.998718%)"/><use xlink:href="#aI" x="381.885" y="107.912" fill="rgb(9.999084%,9.999084%,43.998718%)"/><use xlink:href="#an" x="388.101" y="107.912" fill="rgb(9.999084%,9.999084%,43.998718%)"/><use xlink:href="#aJ" x="320.702" y="154.952" fill="rgb(9.999084%,9.999084%,43.998718%)"/><use xlink:href="#ap" x="325.581" y="154.952" fill="rgb(9.999084%,9.999084%,43.998718%)"/><g fill="rgb(9.999084%,9.999084%,43.998718%)"><use xlink:href="#aK" x="328.972" y="154.952"/><use xlink:href="#aL" x="332.92" y="154.952"/></g><g fill="rgb(9.999084%,9.999084%,43.998718%)"><use xlink:href="#aI" x="335.677" y="154.952"/><use xlink:href="#aM" x="339.35" y="154.952"/><use xlink:href="#ay" x="343.298" y="154.952"/><use xlink:href="#aM" x="345.909" y="154.952"/><use xlink:href="#az" x="349.857" y="154.952"/></g><use xlink:href="#an" x="329.4" y="121.452" fill="rgb(69.999695%,12.998962%,12.998962%)"/><use xlink:href="#ao" x="334.493" y="121.452" fill="rgb(69.999695%,12.998962%,12.998962%)"/><g fill="rgb(69.999695%,12.998962%,12.998962%)"><use xlink:href="#ap" x="338.655" y="121.452"/><use xlink:href="#aq" x="342.045" y="121.452"/></g><use xlink:href="#aq" x="343.871" y="121.452" fill="rgb(69.999695%,12.998962%,12.998962%)"/><g fill="rgb(69.999695%,12.998962%,12.998962%)"><use xlink:href="#au" x="348.239" y="121.452"/><use xlink:href="#aC" x="352.057" y="121.452"/></g><use xlink:href="#an" x="442.495" y="68.753" fill="rgb(69.999695%,12.998962%,12.998962%)"/><use xlink:href="#ao" x="447.588" y="68.753" fill="rgb(69.999695%,12.998962%,12.998962%)"/><g fill="rgb(69.999695%,12.998962%,12.998962%)"><use xlink:href="#ap" x="451.75" y="68.753"/><use xlink:href="#aq" x="455.141" y="68.753"/></g><use xlink:href="#aq" x="456.966" y="68.753" fill="rgb(69.999695%,12.998962%,12.998962%)"/><g fill="rgb(69.999695%,12.998962%,12.998962%)"><use xlink:href="#aw" x="461.334" y="68.753"/><use xlink:href="#as" x="465.152" y="68.753"/><use xlink:href="#as" x="468.97" y="68.753"/></g><use xlink:href="#an" x="324.795" y="94.251" fill="rgb(69.999695%,12.998962%,12.998962%)"/><use xlink:href="#ao" x="329.888" y="94.251" fill="rgb(69.999695%,12.998962%,12.998962%)"/><g fill="rgb(69.999695%,12.998962%,12.998962%)"><use xlink:href="#ap" x="334.05" y="94.251"/><use xlink:href="#aq" x="337.441" y="94.251"/></g><use xlink:href="#aq" x="339.266" y="94.251" fill="rgb(69.999695%,12.998962%,12.998962%)"/><g fill="rgb(69.999695%,12.998962%,12.998962%)"><use xlink:href="#as" x="343.634" y="94.251"/><use xlink:href="#F" x="347.452" y="94.251"/><use xlink:href="#aC" x="351.27" y="94.251"/><use xlink:href="#av" x="355.088" y="94.251"/></g><use xlink:href="#an" x="357.891" y="77.748" fill="rgb(69.999695%,12.998962%,12.998962%)"/><use xlink:href="#ao" x="362.984" y="77.748" fill="rgb(69.999695%,12.998962%,12.998962%)"/><g fill="rgb(69.999695%,12.998962%,12.998962%)"><use xlink:href="#ap" x="367.146" y="77.748"/><use xlink:href="#aq" x="370.537" y="77.748"/></g><use xlink:href="#aq" x="372.362" y="77.748" fill="rgb(69.999695%,12.998962%,12.998962%)"/><g fill="rgb(69.999695%,12.998962%,12.998962%)"><use xlink:href="#E" x="376.73" y="77.748"/><use xlink:href="#aw" x="380.548" y="77.748"/><use xlink:href="#aC" x="384.366" y="77.748"/><use xlink:href="#F" x="388.185" y="77.748"/></g><use xlink:href="#an" x="311.294" y="112.548" fill="rgb(69.999695%,12.998962%,12.998962%)"/><use xlink:href="#ao" x="316.387" y="112.548" fill="rgb(69.999695%,12.998962%,12.998962%)"/><g fill="rgb(69.999695%,12.998962%,12.998962%)"><use xlink:href="#ap" x="320.549" y="112.548"/><use xlink:href="#aq" x="323.94" y="112.548"/></g><use xlink:href="#aq" x="325.765" y="112.548" fill="rgb(69.999695%,12.998962%,12.998962%)"/><g fill="rgb(69.999695%,12.998962%,12.998962%)"><use xlink:href="#aE" x="330.133" y="112.548"/><use xlink:href="#F" x="333.951" y="112.548"/><use xlink:href="#aE" x="337.769" y="112.548"/><use xlink:href="#av" x="341.587" y="112.548"/></g><use xlink:href="#an" x="420.189" y="88.646" fill="rgb(69.999695%,12.998962%,12.998962%)"/><use xlink:href="#ao" x="425.282" y="88.646" fill="rgb(69.999695%,12.998962%,12.998962%)"/><g fill="rgb(69.999695%,12.998962%,12.998962%)"><use xlink:href="#ap" x="429.444" y="88.646"/><use xlink:href="#aq" x="432.835" y="88.646"/></g><use xlink:href="#aq" x="434.66" y="88.646" fill="rgb(69.999695%,12.998962%,12.998962%)"/><g fill="rgb(69.999695%,12.998962%,12.998962%)"><use xlink:href="#aE" x="439.028" y="88.646"/><use xlink:href="#E" x="442.846" y="88.646"/><use xlink:href="#as" x="446.664" y="88.646"/><use xlink:href="#aE" x="450.482" y="88.646"/></g><use xlink:href="#an" x="439.188" y="35.046" fill="rgb(69.999695%,12.998962%,12.998962%)"/><use xlink:href="#ao" x="444.282" y="35.046" fill="rgb(69.999695%,12.998962%,12.998962%)"/><g fill="rgb(69.999695%,12.998962%,12.998962%)"><use xlink:href="#ap" x="448.443" y="35.046"/><use xlink:href="#aq" x="451.834" y="35.046"/></g><use xlink:href="#aq" x="453.659" y="35.046" fill="rgb(69.999695%,12.998962%,12.998962%)"/><g fill="rgb(69.999695%,12.998962%,12.998962%)"><use xlink:href="#at" x="458.027" y="35.046"/><use xlink:href="#as" x="461.845" y="35.046"/><use xlink:href="#as" x="465.663" y="35.046"/></g><use xlink:href="#E" x="277.411" y="225.704"/><use xlink:href="#F" x="281.229" y="225.704"/><use xlink:href="#G" x="285.048" y="222.939"/><use xlink:href="#I" x="289.657" y="222.939"/><use xlink:href="#E" x="346.911" y="225.71"/><use xlink:href="#F" x="350.729" y="225.71"/><use xlink:href="#G" x="354.547" y="222.939"/><use xlink:href="#J" x="359.156" y="222.939"/><use xlink:href="#E" x="422.379" y="224.997"/><use xlink:href="#E" x="489.969" y="224.997"/><use xlink:href="#F" x="493.787" y="224.997"/><use xlink:href="#K" x="279.296" y="217.704"/><use xlink:href="#K" x="279.296" y="115.315"/><use xlink:href="#L" x="279.296" y="111.497"/><use xlink:href="#K" x="280.006" y="12.773"/><use xlink:href="#L" x="280.006" y="8.955"/><use xlink:href="#M" x="277.238" y="5.138"/><use xlink:href="#O" x="415.689" y="182.395"/><use xlink:href="#P" x="420.769" y="182.395"/><use xlink:href="#Q" x="424.692" y="182.395"/><use xlink:href="#R" x="427.763" y="182.395"/><use xlink:href="#S" x="431.541" y="182.395"/><use xlink:href="#T" x="435.941" y="182.395"/><use xlink:href="#R" x="440.34" y="182.395"/><use xlink:href="#T" x="444.118" y="182.395"/><use xlink:href="#U" x="451.351" y="182.395"/><use xlink:href="#V" x="457.384" y="183.671"/><use xlink:href="#W" x="415.689" y="200.194"/><use xlink:href="#X" x="421.713" y="200.194"/><use xlink:href="#O" x="428.802" y="200.194"/><use xlink:href="#P" x="433.881" y="200.194"/><use xlink:href="#Q" x="437.804" y="200.194"/><use xlink:href="#R" x="440.876" y="200.194"/><use xlink:href="#S" x="444.654" y="200.194"/><use xlink:href="#T" x="449.053" y="200.194"/><use xlink:href="#R" x="453.452" y="200.194"/><use xlink:href="#T" x="457.23" y="200.194"/><use xlink:href="#U" x="464.472" y="200.194"/><use xlink:href="#V" x="470.502" y="201.471"/></g></svg>