<svg xmlns="http://www.w3.org/2000/svg" xmlns:xlink="http://www.w3.org/1999/xlink" width="239.76pt" height="234.051pt" viewBox="0 0 239.76 234.051"><defs><symbol overflow="visible"><path/></symbol><symbol overflow="visible" id="m"><path d="M.797-.797c-.03.172-.094.422-.094.47 0 .202.313.452.47.452.14 0 .483-.25.546-.422 0 .03.405-1.562.452-1.766.078-.36.28-1.124.344-1.42.046-.142.312-.548.578-.783.078-.078.28-.312.75-.312.297 0 .453.125.47.125L4.31-4.75c-.328.047-.734.47-.734.75 0 .172.28.53.578.53.297 0 .75-.405.75-.796 0-.375-.5-.86-1.062-.86-.703 0-1.297.58-1.516.876l.28.11c-.092-.485-.64-.985-1.14-.985-.515 0-.843.47-.937.672-.186.36-.374 1.125-.374 1.156 0 .11.266.266.297.266.11 0 .266-.173.328-.408.19-.765.25-1.14.642-1.14.187 0 .187-.063.187.344 0 .234-.032.36-.188.92z"/></symbol><symbol overflow="visible" id="n"><path d="M4.938-7.922C5-8.062 5-8.11 5-8.11c0-.124-.25-.374-.375-.374-.078 0-.266.078-.344.218L.485 2.156c-.046.14-.046.188-.046.203 0 .11.265.36.374.36.14 0 .33-.22.39-.408z"/></symbol><symbol overflow="visible"><path/></symbol><symbol overflow="visible" id="o"><path d="M3.016-3.53c0-.126-.172-.392-.282-.392-.046 0-.203.063-.328.188-.015 0 .047.015.03.015-.014 0 .095.064.048.033-.125-.094-.484-.235-.843-.235-1.11 0-1.546.797-1.546 1.172 0 .406.344.766.375.78.31.236.624.33 1.17.423.376.078.798 0 .798.547 0 .313-.016.484-.75.484-.813 0-.86-.437-.97-.86C.69-1.468.5-1.702.407-1.702c-.125 0-.312.25-.312.406v.984c0 .126.187.39.28.39.064 0 .189-.06.33-.218.046-.032.14-.14.046-.047.22.203.734.265.938.265 1.015 0 1.546-.765 1.546-1.297 0-.374-.406-1.108-1.36-1.296-.062-.015-.515-.093-.546-.093-.25-.046-.437-.03-.437-.36 0-.233 0-.39.75-.39.89 0 .735.47.766.704 0 .062.25.265.297.265.14 0 .313-.235.313-.39z"/></symbol><symbol overflow="visible" id="p"><path d="M4.063-2.594c0-.672-.5-1.28-1.33-1.28-.702 0-1.202.5-1.31.702h.28v-2.734l-1.562.11v.624c.735 0 .594-.14.594.25v4.11c0 .36.11.187-.593.187v.64C.673-.03 1.017-.03 1.235-.03c.235 0 .563 0 1.094.046v-.64c-.687 0-.61.17-.61-.189V-2.25c0-.828.454-1.047.938-1.047.485 0 .422.172.422.672v1.813c0 .36.094.187-.61.187v.64C3-.03 3.36-.03 3.564-.03c.234 0 .578 0 1.093.046v-.64c-.687 0-.593.17-.593-.189z"/></symbol><symbol overflow="visible"><path/></symbol><symbol overflow="visible" id="q"><path d="M-6.766-4.813c-.312-.078-.218.032-.265-.093-.017-.094-.017-.453-.017-.688 0-1.11-.11-1.437.75-1.437.156 0 .578.046.86.093.046.015.187.03.218.03.064 0 .298-.187.298-.296 0-.11-.25-.297-.406-.313l-1.906-.296c-.047 0-.157-.016-.188-.016-.11 0-.266.266-.266.437v6.062c0 .266.157.437.375.516l1.875.64c-.046-.03.22.078.235.078.062 0 .28-.218.28-.297 0-.11-.218-.282-.39-.344-1.687-.58-1.734-.72-1.734-2.329v-.42c0-.314-.11-.142-.016-.142.063 0 .188.03.22.03l5.827 1.47C-.61-2.03-.64-2.155-.64-1c0 .406.156.625.36.625.124 0 .28-.28.28-.344 0-.296-.016-.593-.016-.89 0-.312-.015-.624-.015-.937 0-.297.014-.61.014-.906 0-.313.016-.64.016-.938 0-.11-.156-.39-.375-.39-.11 0-.266.233-.266.514 0 .282 0 .422-.032.704-.03.312.094.25-.078.25-.016 0-.063 0-.234-.047z"/></symbol><symbol overflow="visible" id="r"><path d="M-7.922-4.938C-8.062-5-8.11-5-8.11-5c-.124 0-.374.25-.374.375 0 .078.078.266.218.344L2.156-.485c.14.046.188.046.203.046.11 0 .36-.265.36-.374 0-.14-.22-.33-.408-.39z"/></symbol><symbol overflow="visible"><path/></symbol><symbol overflow="visible" id="s"><path d="M-2.797-3.72c-.453-.186-.36-.28-.375-.75h-.64c.03.454.03.47.03.798 0 .078 0 .453-.046.89h.656c.016-.468.016-.343.14-.343.08 0 .126.016.188.047l2.016.86v-.376l-2.156.938c-.11.047-.157.047-.172.047-.203 0-.016-.11-.016-.42h-.64c.03.53.03.905.03 1.046 0 .17 0 .546-.046 1h.656c0-.672-.14-.532.14-.64L-.28-1.83c.126-.047.36-.297.36-.406 0-.11-.25-.344-.344-.39z"/></symbol><symbol overflow="visible" id="t"><path d="M-5.094-1.734c-.234 0-.625.36-.625.625 0 .235.36.626.626.626s.625-.422.625-.625c0-.28-.42-.624-.624-.624zM-3.61-.172h.454c0-.703-.14-.578.25-.578h2.094c.36 0 .187-.094.187.61h.64C-.03-.64-.03-1.095-.03-1.22c0-.093 0-.577.046-1.03h-.64c0 .703.14.547-.173.547H-3.89l.11 1.53z"/></symbol><symbol overflow="visible" id="u"><path d="M-2-1.656c-.594 0-1.28-.063-1.297-.828l-.312.14c.047.047.235.188.407.188.25 0 .547-.39.547-.547 0-.188-.313-.547-.547-.547-.266 0-.672.438-.672.797 0 .515.563 1.062.828 1.156v-.297h-.844l.11 1.5h.624c0-.734-.14-.594.25-.594h2.094c.36 0 .187-.093.187.594h.64C-.03-.594-.03-1.03-.03-1.22c0-.468 0-.483.046-1.186h-.64v.344c0 .578.093.406-.204.406z"/></symbol><symbol overflow="visible"><path/></symbol><symbol overflow="visible" id="v"><path d="M3.672-2.64c0-.594-.094-1.407-.406-2.032-.313-.562-.97-.797-1.36-.797-.453 0-1.172.314-1.484 1-.25.564-.28 1.22-.28 1.83 0 .61.03 1.17.25 1.718C.7-.187 1.468.172 1.905.172c.547 0 1.22-.47 1.453-.984.234-.5.312-1 .312-1.83zM1.906-.595c-.39 0-.53-.14-.687-.687-.126-.44-.126-.845-.126-1.454 0-.47 0-.938.125-1.36.046-.14.06-.625.686-.625.594 0 .61.44.657.58.156.42.156.937.156 1.406 0 .515 0 .968-.142 1.437-.203.703-.422.703-.672.703z"/></symbol><symbol overflow="visible" id="x"><path d="M1.203-1.688l-1 1V0H3.61v-.828H1.343c-.047.047.53-.53.765-.75.156-.14.546-.47.687-.594.344-.344.812-.86.812-1.515 0-.876-.797-1.782-1.813-1.782-.86 0-1.47.704-1.672 1.407.156.235.203.266.22.297 0 .016.077.11.358.5.266-.968.297-1.421 1-1.421.72 0 .922.42.922 1.015 0 .656-.39.985-.844 1.453z"/></symbol><symbol overflow="visible" id="y"><path d="M2.844-1.313h.937v-.75h-.764v-3.234h-.97L.032-1.922v.61h2.033V0h.953v-1.313zm-1.906-.5c.39-.656 1.515-2.578 1.515-3.015h-.36v2.766H1.08z"/></symbol><symbol overflow="visible" id="z"><path d="M3.172-5.313c-.39-.156-.703-.156-.813-.156C1.28-5.47.14-4.25.14-2.61.14-.437 1.267.173 1.923.173c.453 0 .906-.22 1.203-.563.344-.39.547-.844.547-1.454 0-.968-.688-1.968-1.422-1.968-.234 0-.953.093-1.422.67l.313.095c.094-1.22.532-1.687 1.235-1.687.28 0 .53.046.97.234v-.75zm-2.03 3.5c0-.11 0-.125.014-.218 0-.564.172-1.033.797-1.033.375 0 .453.157.61.438.156.28.124.438.124.78 0 .267.047.517-.14.83-.125.218-.188.42-.625.42-.813 0-.75-.968-.78-1.218z"/></symbol><symbol overflow="visible" id="A"><path d="M2.438-2.72c.687-.217 1.124-.858 1.124-1.264 0-.72-.828-1.485-1.656-1.485-.86 0-1.656.782-1.656 1.486 0 .406.438 1.046 1.125 1.265V-3C.812-2.812.14-2.187.14-1.516c0 .83.89 1.688 1.766 1.688.907 0 1.766-.875 1.766-1.688 0-.703-.72-1.312-1.235-1.484zm-.532-.514c-.578 0-.765-.235-.765-.75 0-.532.204-.75.766-.75.594 0 .766.25.766.75 0 .546-.22.75-.766.75zm0 2.64c-.515 0-.797-.22-.797-.937 0-.798.374-.94.796-.94.438 0 .782.158.782.94 0 .75-.282.936-.782.936z"/></symbol><symbol overflow="visible" id="B"><path d="M2.28-5.47h-.233c-.5.517-1 .486-1.547.517v.734c.438-.014.797-.03 1-.124v3.61H.547V0h2.875v-.734h-.97V-5.47z"/></symbol><symbol overflow="visible"><path/></symbol><symbol overflow="visible" id="w"><path d="M1.64-.578c0-.22-.36-.578-.577-.578-.22 0-.594.36-.594.578 0 .22.374.578.593.578.218 0 .578-.36.578-.578z"/></symbol><symbol overflow="visible"><path/></symbol><symbol overflow="visible" id="C"><path d="M-2.64-3.672c-.594 0-1.407.094-2.032.406-.562.313-.797.97-.797 1.36 0 .453.314 1.172 1 1.484.564.25 1.22.28 1.83.28.61 0 1.17-.03 1.718-.25C-.187-.7.172-1.468.172-1.905c0-.547-.47-1.22-.984-1.453-.5-.234-1-.312-1.83-.312zm2.046 1.766c0 .39-.14.53-.687.687-.44.126-.845.126-1.454.126-.47 0-.938 0-1.36-.125-.14-.046-.625-.06-.625-.686 0-.594.44-.61.58-.657.42-.156.937-.156 1.406-.156.515 0 .968 0 1.437.142.703.203.703.422.703.672z"/></symbol><symbol overflow="visible" id="E"><path d="M-1.688-1.203l1 1H0V-3.61h-.828v2.266c.047.047-.53-.53-.75-.765-.14-.156-.47-.546-.594-.687-.344-.344-.86-.812-1.515-.812-.876 0-1.782.797-1.782 1.813 0 .86.704 1.47 1.407 1.672.235-.156.266-.203.297-.22.016 0 .11-.077.5-.358-.968-.266-1.421-.297-1.421-1 0-.72.42-.922 1.015-.922.656 0 .985.39 1.453.844z"/></symbol><symbol overflow="visible" id="F"><path d="M-1.313-2.844v-.937h-.75v.764h-3.234v.97l3.375 2.015h.61v-2.033H0v-.953h-1.313zm-.5 1.906c-.656-.39-2.578-1.515-3.015-1.515v.36h2.766v1.015z"/></symbol><symbol overflow="visible" id="G"><path d="M-5.313-3.172c-.156.39-.156.703-.156.813 0 1.08 1.22 2.22 2.86 2.22C-.437-.14.173-1.267.173-1.923c0-.453-.22-.906-.563-1.203-.39-.344-.844-.547-1.454-.547-.968 0-1.968.688-1.968 1.422 0 .234.093.953.67 1.422l.095-.313c-1.22-.094-1.687-.532-1.687-1.235 0-.28.046-.53.234-.97h-.75zm3.5 2.03c-.11 0-.125 0-.218-.014-.564 0-1.033-.172-1.033-.797 0-.375.157-.453.438-.61.28-.156.438-.124.78-.124.267 0 .517-.047.83.14.218.125.42.188.42.625 0 .813-.968.75-1.218.78z"/></symbol><symbol overflow="visible" id="H"><path d="M-2.72-2.438c-.217-.687-.858-1.124-1.264-1.124-.72 0-1.485.828-1.485 1.656 0 .86.782 1.656 1.486 1.656.406 0 1.046-.438 1.265-1.125H-3c.188.563.813 1.234 1.484 1.234.83 0 1.688-.89 1.688-1.766 0-.907-.875-1.766-1.688-1.766-.703 0-1.312.72-1.484 1.235zm-.514.532c0 .578-.235.765-.75.765-.532 0-.75-.204-.75-.766 0-.594.25-.766.75-.766.546 0 .75.22.75.766zm2.64 0c0 .515-.22.797-.937.797-.798 0-.94-.374-.94-.796 0-.438.158-.782.94-.782.75 0 .936.282.936.782z"/></symbol><symbol overflow="visible" id="I"><path d="M-5.47-2.28v.233c.517.5.486 1 .517 1.547h.734c-.014-.438-.03-.797-.124-1h3.61v.953H0v-2.875h-.734v.97H-5.47z"/></symbol><symbol overflow="visible"><path/></symbol><symbol overflow="visible" id="D"><path d="M-.578-1.64c-.22 0-.578.36-.578.577 0 .22.36.594.578.594.22 0 .578-.374.578-.593 0-.218-.36-.578-.578-.578z"/></symbol><symbol overflow="visible"><path/></symbol><symbol overflow="visible" id="J"><path d="M1.438-2.89h.656c.14 0 .422-.188.422-.33 0-.077-.25-.28-.39-.28H1.75l.203-.844c.03-.093.03-.11.03-.156 0-.125-.296-.39-.39-.39-.046 0-.42.234-.484.452L.874-3.5H.36c-.14 0-.407.203-.407.344 0 .078.25.265.39.265H.72L.296-1.188C.25-.938.22-.875.22-.78c0 .343.452.858.843.858.734 0 1.312-1.25 1.312-1.297 0-.046-.22-.264-.266-.264-.016 0-.188.062-.204.078 0 .015-.078.156-.125.265-.155.36-.28.67-.686.67-.22 0-.032.017-.032-.14 0 0 0-.14.016-.234l.516-2.047z"/></symbol><symbol overflow="visible" id="N"><path d="M3.28-5.313c0-.015.048-.11.048-.125 0-.093-.28-.343-.344-.343-.03 0-.296.202-.36.358L.22 1.328s-.048.11-.048.125c0 .094.28.344.344.344.046 0 .312-.22.36-.36z"/></symbol><symbol overflow="visible" id="R"><path d="M1.516-.547c0-.203-.375-.547-.547-.547-.204 0-.548.375-.548.547C.422-.344.797 0 .97 0c.202 0 .546-.375.546-.547z"/></symbol><symbol overflow="visible"><path/></symbol><symbol overflow="visible" id="K"><path d="M1.375-3.453v.344c.516 0 .375-.156.375.08v1.014l.313-.14c-.157-.188-.516-.328-.766-.328-.594 0-1.328.64-1.328 1.265C-.03-.624.64.048 1.25.048c.28 0 .64-.188.813-.36l-.33-.124v.5l1.11-.08v-.53c-.515 0-.36.172-.36-.062v-3.093l-1.108.062zm.36 2.672c0 .077.046-.032-.016.06-.142.19-.22.25-.454.25-.22 0-.266-.06-.39-.233C.75-.89.78-.983.78-1.22c0-.264-.014-.327.095-.5.125-.17.203-.25.438-.25.234 0 .328.048.42.204z"/></symbol><symbol overflow="visible" id="L"><path d="M2.313-1.766c.11-.28.11-.125.453-.14v-.547c-.36.03-.375.03-.58.03-.014 0-.264 0-.592-.046v.564c.328.015.203-.11.203.015 0 .015 0 .046-.03.11L1.25-.626h.39l-.562-1.25c-.03-.078-.03-.078-.03-.094 0-.124-.032.064.264.064v-.547c-.406.03-.625.03-.718.03-.11 0-.328 0-.688-.03v.547c.453 0 .328-.172.406 0l.75 1.718c-.218.5-.156.64-.5.64C.438.453.5.735.5.735L.375.78C.405.78.703.53.703.39.703.267.406 0 .313 0c-.11 0-.407.25-.407.39 0 .22.406.58.656.58.422 0 .844-.704.86-.75z"/></symbol><symbol overflow="visible" id="M"><path d="M2.516-1.64c0-.407-.375-.844-.875-.844-.468 0-.827.39-.86.453h.298v-.47L0-2.422v.53c.516 0 .375-.17.375.064v1.266c0 .218.125.015-.375.015v.563c.406-.032.61-.032.734-.032.14 0 .344 0 .75.032v-.563c-.5 0-.375.203-.375-.015v-.86c0-.516.202-.547.484-.547.297 0 .172.017.172.314v1.093c0 .22.14.016-.36.016v.563c.39-.032.61-.032.735-.032.14 0 .344 0 .735.032v-.563c-.5 0-.36.203-.36-.015z"/></symbol><symbol overflow="visible" id="O"><path d="M2.53-1.72c0-.514-.108-.952-.264-1.264-.22-.422-.735-.58-1-.58C.672-3.56.312-3.06.25-2.92l-.063.14C.017-2.436 0-1.968 0-1.718c0 .314.078.94.313 1.314.218.36.703.5.953.5.234 0 .78-.125 1.015-.594.173-.344.25-.906.25-1.22zM1.267-.42C1.11-.422.97-.297.86-.797.812-1.077.812-1.53.812-1.78c0-.33 0-.657.046-.923.11-.485.28-.344.406-.344.156 0 .296-.11.39.328.063.267.063.626.063.94 0 .296 0 .718-.064.983-.093.5-.234.375-.39.375z"/></symbol><symbol overflow="visible"><path/></symbol><symbol overflow="visible" id="P"><path d="M4.844-2.328c.093 0 .422-.203.422-.328 0-.14-.313-.328-.422-.328H.61c-.094 0-.438.187-.438.328 0 .125.344.328.437.328zm0 1.344c.093 0 .422-.204.422-.329 0-.14-.313-.343-.422-.343H.61c-.094 0-.438.203-.438.328 0 .14.344.344.437.344z"/></symbol><symbol overflow="visible" id="Q"><path d="M3.406-2.5c0-.594-.03-1.172-.28-1.72-.298-.593-1.017-.952-1.376-.952-.406 0-1.125.406-1.39 1C.155-3.72.093-3.266.093-2.5c0 .703.11 1.36.36 1.875.28.547.92.78 1.296.78.625 0 1.125-.436 1.172-.53.484-1 .484-1.703.484-2.125zM1.75-.39c-.234 0-.5.062-.625-.72-.078-.42-.078-.968-.078-1.468 0-.594 0-1.125.11-1.547.124-.484.28-.5.593-.5.266 0 .484-.03.61.578.093.406.093.984.093 1.47 0 .483 0 1.014-.078 1.452C2.25-.328 2-.39 1.75-.39z"/></symbol><symbol overflow="visible" id="S"><path d="M2.266-4.797c0-.172-.204-.375-.438-.375-.22.266-.437.453-1.39.453v.61c.374 0 .734 0 .92-.077V-.75c0 .25.19.14-.436.14H.484v.626C.89-.016 1.578-.016 1.828-.016c.234 0 .922 0 1.313.032V-.61h-.42c-.626 0-.454.11-.454-.14z"/></symbol><symbol overflow="visible" id="T"><path d="M3.156-1.61h-.328c-.062.33-.047.58-.125.704-.047.062-.312 0-.53 0H.842l.14.344c.205-.172.642-.625.83-.797 1.078-1 1.546-1.53 1.546-2.234 0-.828-.86-1.578-1.688-1.578s-1.53.906-1.53 1.53c0 .36.53.564.545.564.157 0 .532-.313.532-.53 0-.204-.33-.548-.532-.548-.063 0-.08 0 .187-.078.047-.204.234-.329.703-.329.61 0 .78.313.78.97 0 .61-.296 1-.702 1.468L.14-.437V0h3l.25-1.61z"/></symbol><symbol overflow="visible" id="U"><path d="M.922-4.11c.297.094.562.11.64.11.797 0 1.516-.797 1.516-.89 0-.032-.203-.266-.25-.266-.015 0-.03 0-.094.015-.406.17-.75.202-.937.202-.47 0-.813-.14-.938-.203-.063-.016-.08-.016-.08-.016-.06 0-.264.234-.264.343v2.14c0 .126.203.376.296.376.032 0 .188-.062.25-.156.204-.297.407-.406.766-.406.375 0 .36.14.406.266.125.28.125.64.125.906 0 .282.078.547-.126.875-.156.25-.296.375-.61.375-.483 0-.75-.124-.796-.343C.594-.876.625-.876.672-.876c.11 0 .515-.266.515-.516 0-.188-.343-.516-.515-.516-.14 0-.53.265-.53.547C.14-.75.843.157 1.64.157c.81 0 1.717-.89 1.717-1.797 0-.86-.782-1.766-1.532-1.766-.406 0-.86.25-1.047.437l.345.142V-4.03z"/></symbol><symbol overflow="visible" id="W"><path d="M1.313-2.97c-.11 0-.344.204-.344.267 0 .078.233.28.358.28h.328c.625 0 .688.298.688.986 0 .937-.28 1-.64 1-.345 0-.735.03-.83-.188-.077-.016.33-.344.33-.61 0-.202-.345-.546-.548-.546-.172 0-.562.296-.562.56 0 .642.844 1.376 1.64 1.376.844 0 1.672-.86 1.672-1.578 0-.672-.72-1.375-1.406-1.5v.39c.625-.17 1.22-.89 1.22-1.452 0-.563-.783-1.188-1.486-1.188-.718 0-1.453.64-1.453 1.156 0 .297.423.547.532.547.157 0 .532-.296.532-.514 0-.235-.375-.532-.532-.532-.046 0-.062 0 .33-.125 0-.016.53.046.577.046.233 0 .483-.093.483.61 0 .14.047.406-.156.703-.22.31-.313.28-.516.28z"/></symbol><symbol overflow="visible" id="X"><path d="M3.61-4.656v-.36H1.67c-.86 0-.672.11-.75-.234H.437l-.28 1.844h.546c.063-.344.078-.64.172-.72.047-.046.438.017.547.017h1.125l-.516.75c-.186.282-.983 1.594-.983 2.938 0 .078.22.578.516.578.296 0 .5-.484.5-.578v-.36c0-1.062.11-1.75.453-2.234L3.61-4.594z"/></symbol><symbol overflow="visible"><path/></symbol><symbol overflow="visible" id="V"><path d="M2.97 9.453L1.577 4.578.39 5.953l.376.36.312-.36L2.39 10.53c.344 0 .547-.17.594-.327L6.266-.172c.03-.094.03-.125.03-.125 0-.062-.234-.297-.312-.297-.093 0-.312.235-.343.313L2.58 9.436z"/></symbol><clipPath id="a"><path d="M36 81h196.5v114H36z"/></clipPath><clipPath id="b"><path d="M36 74h196.5v121H36z"/></clipPath><clipPath id="c"><path d="M36 66h196.5v129H36z"/></clipPath><clipPath id="d"><path d="M36 61h196.5v134H36z"/></clipPath><clipPath id="e"><path d="M36 55h196.5v140H36z"/></clipPath><clipPath id="f"><path d="M36 29h196.5v166H36z"/></clipPath><clipPath id="g"><path d="M35.898 64H232.5v132H35.898z"/></clipPath><clipPath id="h"><path d="M35.898 64H232.5v94H35.898z"/></clipPath><clipPath id="i"><path d="M35.898 64H232.5v52H35.898z"/></clipPath><clipPath id="j"><path d="M35.898 64H232.5v30H35.898z"/></clipPath><clipPath id="k"><path d="M35.898 64H232.5v3H35.898z"/></clipPath><clipPath id="l"><path d="M35.898 28H232.5v39H35.898z"/></clipPath></defs><g><path d="M232.336 206H35.668V9.332h196.668z" fill="#fff"/><g clip-path="url(#a)"><path d="M232.5 194.492l-9.602-5.5-9.097-5.597-8.698-5.5-8.3-5.403-7.802-5.398-7.5-5.2-7.102-5.203-6.7-5-6.397-4.795-6.198-4.704-5.8-4.596-5.5-4.3-5.302-4.302-5-4-4.7-3.8-4.5-3.7-4.402-3.5-4.097-3.3-3.8-3.098-3.8-3-3.5-2.7-3.302-2.6-3.2-2.4-3.096-2.203-2.8-2-2.802-1.897-2.602-1.602-2.5-1.5L82 86.396l-2.2-1.102-2.1-1-2.098-.8-1.903-.598-1.802-.403-1.796-.3-1.704-.2H66.8l-1.5.2-1.402.203-1.398.5-1.3.5-1.2.7-1.2.8-1.1.898-1 1-2 2.398-.9 1.302-.902 1.403-.796 1.5-.8 1.5-.802 1.7-.7 1.698-.6 1.7-.7 1.8-.602 1.898-.597 1.802-.5 2-.6 1.903-.5 2-.4 2-.5 2-.402 2.097-.398 2-.398 2.102-.403 2-.4 2.097-.6 4-.302 2.103-.296 2-.3 1.898-.2 2-.3 2-.2 1.904-.3 1.898-.2 1.8-.204 1.9-.2 1.8-.198 1.7-.102 1.8-.2 1.7-.198 1.703-.102 1.597-.097 1.602-.198 1.597-.204 3-.2 1.404-.096 1.5-.102 1.3-.102 1.4-.097 1.3-.1 1.3-.098 1.2v1.2l-.102 1.198-.102 1.102-.097 1.097v1.103l-.1 1-.098 1v.898l-.102 1v.904l-.102.8v.9l-.097.8v1.5l-.1.8v.7l-.098.7v1.198l-.102.602v1.7l-.102.6" fill="none" stroke-width=".75" stroke-linecap="round" stroke-linejoin="round" stroke="rgb(39.99939%,0%,59.999084%)" stroke-opacity=".25" stroke-dasharray="1,2" stroke-miterlimit="2"/></g><g clip-path="url(#b)"><path d="M232.5 154.492l-9.602-4.5-9.097-4.3-8.698-4.297-8.3-4.204-7.802-4-7.5-3.897-7.102-3.8-6.7-3.7-6.397-3.602-6.198-3.397-5.8-3.3-5.5-3.2-5.302-3-5-2.898-4.7-2.8-4.5-2.603-4.402-2.5-4.097-2.3-3.8-2.2-3.8-2-3.5-1.898-3.302-1.8-3.2-1.603-3.096-1.397-2.8-1.3-2.802-1.2-2.602-1-2.5-.8L82 76.19l-2.2-.5-2.1-.397-2.098-.3-1.903-.2h-1.802l-1.796.102-1.704.296-1.597.404-1.5.5-1.402.597-1.398.802-1.3.903-1.2.898-1.2 1.102-1.1 1.2-1 1.198-1 1.398-1 1.5-.9 1.5-.902 1.603-.796 1.602-.8 1.796-.802 1.802-.7 1.8-.6 1.9-.7 2-.602 1.902-.597 2-.5 2.097-.6 2-.5 2.103-.4 2.102-.5 2.097-.402 2.2-.796 4.203-.403 2.097-.4 2.102-.3 2.097-.602 4.205-.296 2.097-.3 2-.2 2-.3 2-.2 2-.3 1.903-.2 1.898-.204 1.898-.398 3.603-.102 1.8-.398 3.4-.102 1.698-.097 1.603-.198 1.602-.204 3-.2 1.5-.096 1.398L38 167.69l-.102 1.404-.097 1.3-.1 1.297-.098 1.205v1.2l-.204 2.397-.097 1.102v1l-.1 1.097-.098 1v.904l-.102 1v.898l-.102.903v.796l-.097.802v1.602l-.1.7v.698l-.098.7v1.3l-.102.602v1.7l-.102.5" fill="none" stroke-width=".75" stroke-linecap="round" stroke-linejoin="round" stroke="rgb(9.799194%,9.799194%,43.998718%)" stroke-opacity=".25" stroke-miterlimit="2"/></g><g clip-path="url(#c)"><path d="M232.5 112.395l-9.602-2.602-9.097-2.602-8.698-2.5-8.3-2.5L189 99.794l-7.5-2.3-7.102-2.302-6.7-2.198-6.397-2.097-6.198-2.102-5.8-2-5.5-1.898-5.302-1.903-5-1.7-4.7-1.698-4.5-1.602-4.402-1.5-4.097-1.398-3.8-1.3-3.8-1.103-3.5-1.096-3.302-1-3.2-.8-3.096-.802-2.8-.597-2.802-.5-2.602-.403-2.5-.3-2.398-.2h-4.3l-2.098.2-1.903.3-1.802.403-1.796.5-1.704.7-1.597.698-1.5.8-1.402 1-1.398 1-1.3 1.2-1.2 1.2-1.2 1.402-1.1 1.398-2 3-1 1.7-.9 1.698-.902 1.802-.796 1.8-.8 1.9-.802 1.902-.7 2-.6 2-.7 2.097-.602 2.103-.597 2.102-.5 2.2-.6 2.096-.5 2.205-.4 2.2-.5 2.198-.402 2.2L44 117.19l-.398 2.205-.403 2.2-.4 2.096-.3 2.205-.3 2.097-.302 2.2-.296 2.1-.3 2-.2 2.103-.3 2-.2 2-.3 2-.2 1.898-.204 1.898-.2 1.904-.198 1.8-.102 1.797-.2 1.802-.198 1.7-.102 1.703-.097 1.597-.198 1.602-.102 1.597-.102 1.5-.2 1.5-.096 1.404-.102 1.398-.102 1.403-.097 1.296-.1 1.302-.098 1.3v1.2l-.102 1.2-.102 1.1-.097 1.103v1.097l-.1 1.102-.098 1v.898l-.102 1v.903l-.102.898v.8l-.097.9v1.5l-.1.8v.7l-.098.698v1.302l-.102.602v1.7l-.102.5" fill="none" stroke-width=".75" stroke-linecap="round" stroke-linejoin="round" stroke="rgb(69.799805%,13.198853%,13.198853%)" stroke-opacity=".25" stroke-dasharray="8,4" stroke-miterlimit="2"/></g><g clip-path="url(#d)"><path d="M232.5 89.395l-9.602-1.403-9.097-1.5-8.698-1.398-8.3-1.5L189 82.19l-7.5-1.5-7.102-1.397-6.7-1.398-6.397-1.3-6.198-1.404-5.8-1.295-5.5-1.204-5.302-1.198-5-1.2-4.7-1.1-4.5-1-4.402-.9-4.097-.897-7.6-1.602-3.5-.602-3.302-.596-3.2-.5-3.096-.3-2.8-.302-2.802-.2-2.602-.1h-2.5l-2.398.1-2.2.2-2.1.3-2.098.5-1.903.5-1.802.603-1.796.7-1.704.8-1.597 1-1.5 1-1.402 1.097-1.398 1.2-1.3 1.3-1.2 1.403-1.2 1.398-1.1 1.5-1 1.602-1 1.7-1 1.8-.9 1.796-.902 1.802-.796 2-.8 1.903-.802 2.097-.7 2-.6 2.102-.7 2.097-.602 2.205-.597 2.2-.5 2.198-.6 2.2-.5 2.198-.4 2.205-.5 2.296-.402 2.205-.796 4.398-.403 2.3-.4 2.2-.3 2.2-.3 2.1-.302 2.2-.296 2.102-.3 2.097-.2 2.102-.3 2-.2 2-.3 2-.2 2-.204 1.898-.2 1.903-.198 1.796-.102 1.802-.2 1.8-.198 1.7-.102 1.7-.097 1.6-.198 1.7-.102 1.5-.102 1.602-.2 1.5-.096 1.398-.102 1.403-.102 1.398-.097 1.3-.1 1.302-.098 1.296v1.205l-.204 2.398-.097 1.102v1.097l-.1 1-.098 1v1l-.102.903v1l-.102.796v.904l-.097.8v1.598l-.1.7v.703l-.098.7v1.3l-.102.597v1.8l-.102.5" fill="none" stroke-width=".75" stroke-linecap="round" stroke-linejoin="round" stroke="rgb(71.998596%,52.49939%,4.399109%)" stroke-opacity=".25" stroke-miterlimit="2"/></g><g clip-path="url(#e)"><path d="M232.5 61.69h-18.7l-8.698-.198-8.3-.2-7.802-.198-7.5-.3-7.102-.4-6.7-.402-6.397-.398-6.198-.403-5.8-.397-5.5-.398-5.302-.5-5-.403-4.7-.398-4.5-.3-4.402-.4-4.097-.3-3.8-.2-3.8-.203-3.5-.198h-3.302l-3.2-.097-3.096.097-2.8.102-2.802.2-2.602.3-2.5.3-2.398.5-2.2.5-2.1.598-2.098.7-1.903.8-1.802.8-1.796 1-1.704 1-1.597 1.2-1.5 1.2-1.402 1.3-1.398 1.3-1.3 1.5-1.2 1.5-1.2 1.603-1.1 1.7-1 1.698-1 1.8-1 1.9-.9 1.902-.902 2-.796 2-.8 2.097-.802 2.102-.7 2.097-.6 2.205-.7 2.2-.602 2.198-.597 2.3-.5 2.2-.6 2.3-.5 2.302-.4 2.2-.5 2.3-.402 2.296-.398 2.302-.398 2.2-.403 2.3-.4 2.2-.3 2.203-.602 4.398-.296 2.2-.3 2.1-.2 2.098-.3 2.103-.2 2-.3 2-.2 2-.204 1.898-.2 1.904-.198 1.898-.102 1.8-.2 1.802-.198 1.7-.102 1.698-.097 1.7-.198 1.6-.102 1.603-.102 1.5-.2 1.5-.096 1.5-.204 2.796-.097 1.302-.1 1.403-.098 1.2v1.198l-.204 2.398-.097 1.103v1.102l-.1 1-.098 1.097v.903l-.102 1v.898l-.102.898v.904l-.097.8v1.598l-.1.7v.703l-.098.7v1.3l-.102.597v1.7l-.102.6" fill="none" stroke-width=".75" stroke-linecap="round" stroke-linejoin="round" stroke="#000" stroke-opacity=".25" stroke-dasharray="8,4" stroke-miterlimit="2"/></g><g clip-path="url(#f)"><path d="M232.5 30.293l-9.602 1.8-9.097 1.5-8.698 1.5-8.3 1.2L189 37.395l-7.5 1-7.102.898-6.7.8-6.397.7-6.198.602-5.8.597-5.5.5-5.302.403-5 .398-4.7.398-4.5.404-4.402.398-4.097.3-3.8.4-3.8.402-3.5.398-3.302.5-3.2.5-3.096.5-2.8.602-2.802.597-2.602.705-2.5.7-2.398.8-2.2.898-2.1.898-2.098 1-1.903 1-1.802 1.205-1.796 1.2-1.704 1.3L66.8 59.69l-1.5 1.5-1.402 1.5-1.398 1.5-1.3 1.705-2.4 3.398-1.1 1.898-1 1.904-1 1.898-1 2-.9 2-.902 2.102-.796 2.097-.8 2.205-.802 2.2-.7 2.198-.6 2.3-.7 2.302-.602 2.296-.597 2.302-.5 2.3-.6 2.302-.5 2.398-.4 2.3-.5 2.302-.402 2.398-.796 4.602-.403 2.3-.4 2.2-.3 2.3-.602 4.4-.296 2.198-.3 2.2-.2 2.1-.3 2.103-.2 2.097-.3 2-.2 2-.204 1.903-.398 3.796-.102 1.904-.2 1.7-.198 1.8-.102 1.7-.097 1.698-.198 1.602-.102 1.597-.102 1.603-.2 1.5-.096 1.5L38 167.19l-.102 1.404-.097 1.3-.1 1.297-.098 1.302v1.3l-.102 1.2-.102 1.102-.097 1.097v1.103l-.1 1.102-.098 1v1l-.102.898v1l-.102.898v.802l-.097.8v1.603l-.1.796v.705l-.098.7v1.3l-.102.597v1.7l-.102.5" fill="none" stroke-width=".75" stroke-linecap="round" stroke-linejoin="round" stroke="#007f00" stroke-opacity=".25" stroke-dasharray="1,2" stroke-miterlimit="2"/></g><g clip-path="url(#g)"><path d="M232.5 194.992l-9.602-5.5-9.097-5.398-8.698-5.403-8.3-5.198-7.802-5-7.5-4.898-7.102-4.7-6.7-4.5-6.397-4.402-6.198-4.2-5.8-4-5.5-3.8-5.302-3.7-5-3.5-4.7-3.3-4.5-3.2-4.402-3.1-4.097-2.9-3.8-2.698-3.8-2.602-3.5-2.5-3.302-2.398-3.2-2.2-3.096-2.203-2.8-2-2.802-1.897-2.602-1.8-2.5-1.802L82 94.595l-2.2-1.602-2.1-1.398L75.6 90.19 73.7 88.794l-1.802-1.2-1.796-1.198-1.704-1.102L66.8 84.19l-1.5-1-1.402-.897-1.398-1-1.3-.8-1.2-.802-1.2-.795-1.1-.704-1-.698-1-.597-1-.704-.9-.5-.902-.596-.796-.5-1.602-1-.7-.403-.6-.397-.7-.398-.602-.403-.597-.3-.5-.4-.6-.3-.5-.3-.4-.297-.5-.204-.402-.295L44 69.69l-.398-.295-.403-.204-.4-.198-.3-.2-.3-.1-.302-.2-.296-.2-.3-.1-.2-.2-.3-.097-.2-.102-.3-.102-.2-.198-.204-.097-.398-.204-.102-.096h-.2L39 66.992l-.102-.097-.097-.102-.198-.102H38.5l-.102-.096h-.2l-.096-.102H38l-.102-.097H37.8l-.1-.102H37.6v-.102h-.204l-.097-.096h-.1l-.098-.102H37l-.102-.097H36.8l-.1-.102h-.2v-.102h-.102" fill="none" stroke-width="1.5" stroke-linecap="round" stroke-linejoin="round" stroke="rgb(39.99939%,0%,59.999084%)" stroke-dasharray="1,2" stroke-miterlimit="2"/></g><g clip-path="url(#h)"><path d="M232.5 156.293l-9.602-4.398-9.097-4.3-8.698-4.103-8.3-3.898-7.802-3.7-7.5-3.6-7.102-3.4-6.7-3.3-6.397-3.102-6.198-2.898-5.8-2.8-5.5-2.7-5.302-2.602-5-2.398-4.7-2.3-4.5-2.2-4.402-2-4.097-2-3.8-1.903-3.8-1.698-3.5-1.7-3.302-1.6-3.2-1.5-3.096-1.4-2.8-1.397-2.802-1.3-2.602-1.2-2.5-1.102L82 84.69l-2.2-1.096-2.1-.903-2.098-1-1.903-.795-1.802-.903-1.796-.8-1.704-.7-1.597-.7-1.5-.698-1.402-.602-1.398-.597-1.3-.602-2.4-1-1.1-.5-1-.398-1-.403-1-.5-.9-.3-.902-.4-.796-.3-.8-.398-.802-.3-.7-.302-.6-.2-.7-.3-.602-.2-.597-.3-.5-.2-.6-.198-.5-.2-.4-.203-.5-.096-.402-.2-.398-.203-.398-.096-.403-.102-.4-.2-.3-.1-.3-.098-.302-.102-.296-.097-.3-.102-.2-.102-.3-.096-.2-.102-.3-.097-.2-.102h-.204l-.2-.102-.198-.096h-.102l-.2-.102H39l-.102-.097H38.8l-.198-.102h-.204l-.2-.102h-.096L38 66.095h-.3l-.098-.102h-.204l-.097-.097h-.198L37 65.793h-.2l-.1-.102h-.302" fill="none" stroke-width="1.5" stroke-linecap="round" stroke-linejoin="round" stroke="rgb(9.799194%,9.799194%,43.998718%)" stroke-miterlimit="2"/></g><g clip-path="url(#i)"><path d="M232.5 115.19l-9.602-2.596-9.097-2.403-8.698-2.397-8.3-2.2-7.802-2.1-7.5-2.098-7.102-1.903-6.7-1.8-6.397-1.7-6.198-1.597-5.8-1.602-5.5-1.398-5.302-1.403-5-1.3-4.7-1.297-4.5-1.102-4.402-1.2-4.097-1-7.6-2-3.5-.902-3.302-.795-3.2-.8-3.096-.802-5.602-1.398-2.602-.602-2.5-.602L82 75.595l-2.2-.602-2.1-.5-2.098-.5-1.903-.398-1.802-.5-1.796-.403-1.704-.397-1.597-.3-1.5-.4-1.402-.3-1.398-.3-1.3-.302-1.2-.295-1.2-.3-1.1-.2-1-.3-1-.2-1-.204-.9-.198-.902-.2-.796-.198-.8-.102-.802-.2-.7-.1-.6-.2-.7-.097-.602-.102-.597-.2-.5-.1-.6-.098-.5-.102-.4-.102-.5-.096-.402-.102H44l-.398-.097-.403-.102-.4-.102h-.3l-.3-.096h-.302l-.296-.102-.3-.097h-.5l-.2-.102h-.3l-.2-.102H39.7l-.2-.096h-.3l-.2-.102h-.398l-.102-.097H38l-.102-.102H37.3v-.102h-.6v-.096h-.302" fill="none" stroke-width="1.5" stroke-linecap="round" stroke-linejoin="round" stroke="rgb(69.799805%,13.198853%,13.198853%)" stroke-dasharray="8,4" stroke-miterlimit="2"/></g><g clip-path="url(#j)"><path d="M232.5 92.793l-9.602-1.5-9.097-1.398-8.698-1.3-8.3-1.2L189 86.19l-7.5-1.096-7.102-1.102-6.7-1-6.397-.898-6.198-.903-5.8-.897-5.5-.8-5.302-.7-5-.7-4.7-.698-4.5-.704-4.402-.596-4.097-.5-3.8-.602-3.8-.5-3.5-.5-3.302-.5-3.2-.398-3.096-.403-5.602-.795-2.602-.3-2.5-.302-2.398-.3-2.2-.302-2.1-.295-2.098-.3-1.903-.2-1.802-.3-1.796-.2-1.704-.204-1.597-.198-1.5-.2-1.402-.198-1.398-.102-1.3-.2-1.2-.1-1.2-.2-1.1-.097-1-.204-1-.096-1-.102-.9-.097-.902-.102-.796-.102-.8-.096-.802-.102h-.7l-.6-.097-.7-.102-.602-.102H47.3l-.5-.096h-.6l-.5-.102-.4-.097H44.4L44 66.293h-.398l-.403-.102h-.7l-.3-.096H41.6l-.3-.102h-.7l-.3-.097H39.5l-.102-.102H38.5l-.102-.102H37.3l-.1-.096h-.802" fill="none" stroke-width="1.5" stroke-linecap="round" stroke-linejoin="round" stroke="rgb(71.998596%,52.49939%,4.399109%)" stroke-miterlimit="2"/></g><g clip-path="url(#k)"><path d="M232.5 65.594H36.398" fill="none" stroke-width="1.5" stroke-linecap="round" stroke-linejoin="round" stroke="#000" stroke-dasharray="8,4" stroke-miterlimit="2"/></g><g clip-path="url(#l)"><path d="M232.5 29.094l-9.602 2.097-9.097 1.904-8.698 1.8-8.3 1.7L189 38.19l-7.5 1.603-7.102 1.398-6.7 1.404-6.397 1.2-6.198 1.198-5.8 1.2-5.5 1.1-5.302 1-5 .9-4.7.902-4.5.898-4.402.8-4.097.802-7.6 1.398-3.5.602-3.302.597-3.2.603-3.096.5-5.602 1-2.602.5-2.5.398-2.398.404-2.2.398-2.1.3-2.098.4-1.903.3-1.802.3-1.796.302-1.704.3-1.597.2-1.5.3-1.402.2-1.398.2-1.3.198-1.2.2-1.2.203-1.1.2-1 .096-1 .205-1 .097-.9.2-.902.1-.796.103-.8.097-.802.2-.7.1-.6.103-.7.097h-.602l-.597.102-.5.097-.6.103h-.5l-.4.102-.5.097H44.4l-.398.102h-.398l-.403.097h-.4l-.3.103h-.3l-.302.102H41.3l-.198.097h-.5l-.3.102h-.603l-.2.097h-.602l-.097.103H38l-.102.102h-.796l-.102.097h-.602" fill="none" stroke-width="1.5" stroke-linecap="round" stroke-linejoin="round" stroke="#007f00" stroke-dasharray="1,2" stroke-miterlimit="2"/></g><path d="M35.898 205.895H232.5" fill="none" stroke-width=".75" stroke-linecap="square" stroke-linejoin="round" stroke="#000" stroke-miterlimit="2"/><path d="M35.898 198.69v7.205M75.3 198.69v7.205m39.302-7.204v7.205m39.296-7.204v7.205m39.3-7.204v7.205m39.302-7.204v7.205" fill="none" stroke-width=".9" stroke-linecap="square" stroke-linejoin="round" stroke="#000" stroke-miterlimit="2"/><path d="M45.8 202.293v3.602m9.802-3.602v3.602m9.796-3.602v3.602m19.704-3.602v3.602m9.796-3.602v3.602m9.8-3.602v3.602m19.7-3.602v3.602m9.8-3.602v3.602m9.802-3.602v3.602m19.7-3.602v3.602m9.8-3.602v3.602m9.8-3.602v3.602m19.7-3.602v3.602m9.8-3.602v3.602m9.802-3.602v3.602" fill="none" stroke-width=".7" stroke-linecap="square" stroke-linejoin="round" stroke="#000" stroke-miterlimit="2"/><path d="M35.898 205.895V9.395" fill="none" stroke-width=".75" stroke-linecap="square" stroke-linejoin="round" stroke="#000" stroke-miterlimit="2"/><path d="M43.102 205.895h-7.204m7.204-28h-7.204m7.204-28.102h-7.204m7.204-28.102h-7.204m7.204-28.096h-7.204m7.204-28h-7.204m7.204-28.102h-7.204m7.204-28.097h-7.204" fill="none" stroke-width=".9" stroke-linecap="square" stroke-linejoin="round" stroke="#000" stroke-miterlimit="2"/><path d="M39.5 198.895h-3.602m3.602-7h-3.602m3.602-7h-3.602m3.602-14.102h-3.602m3.602-7h-3.602m3.602-7h-3.602m3.602-14h-3.602m3.602-7.102h-3.602m3.602-7h-3.602m3.602-14h-3.602m3.602-7h-3.602m3.602-7.096h-3.602m3.602-14h-3.602m3.602-7h-3.602m3.602-7h-3.602M39.5 58.492h-3.602m3.602-7h-3.602m3.602-7h-3.602m3.602-14h-3.602m3.602-7.097h-3.602m3.602-7h-3.602" fill="none" stroke-width=".7" stroke-linecap="square" stroke-linejoin="round" stroke="#000" stroke-miterlimit="2"/><path d="M35.898 9.395H232.5" fill="none" stroke-width=".75" stroke-linecap="square" stroke-linejoin="round" stroke="#000" stroke-miterlimit="2"/><path d="M35.898 16.594v-7.2m39.403 7.2v-7.2m39.302 7.2v-7.2m39.296 7.2v-7.2m39.3 7.2v-7.2m39.302 7.2v-7.2" fill="none" stroke-width=".9" stroke-linecap="square" stroke-linejoin="round" stroke="#000" stroke-miterlimit="2"/><path d="M45.8 12.992V9.395m9.802 3.597V9.395m9.796 3.597V9.395m19.704 3.597V9.395m9.796 3.597V9.395m9.8 3.597V9.395m19.7 3.597V9.395m9.8 3.597V9.395M144 12.992V9.395m19.7 3.597V9.395m9.8 3.597V9.395m9.8 3.597V9.395m19.7 3.597V9.395m9.8 3.597V9.395m9.802 3.597V9.395" fill="none" stroke-width=".7" stroke-linecap="square" stroke-linejoin="round" stroke="#000" stroke-miterlimit="2"/><path d="M232.5 205.895V9.395" fill="none" stroke-width=".75" stroke-linecap="square" stroke-linejoin="round" stroke="#000" stroke-miterlimit="2"/><path d="M225.3 205.895h7.2m-7.2-28h7.2m-7.2-28.102h7.2m-7.2-28.102h7.2m-7.2-28.096h7.2m-7.2-28h7.2m-7.2-28.102h7.2m-7.2-28.097h7.2" fill="none" stroke-width=".9" stroke-linecap="square" stroke-linejoin="round" stroke="#000" stroke-miterlimit="2"/><path d="M228.898 198.895h3.602m-3.602-7h3.602m-3.602-7h3.602m-3.602-14.102h3.602m-3.602-7h3.602m-3.602-7h3.602m-3.602-14h3.602m-3.602-7.102h3.602m-3.602-7h3.602m-3.602-14h3.602m-3.602-7h3.602m-3.602-7.096h3.602m-3.602-14h3.602m-3.602-7h3.602m-3.602-7h3.602m-3.602-14.102h3.602m-3.602-7h3.602m-3.602-7h3.602m-3.602-14h3.602m-3.602-7.097h3.602m-3.602-7h3.602" fill="none" stroke-width=".7" stroke-linecap="square" stroke-linejoin="round" stroke="#000" stroke-miterlimit="2"/><path d="M53.3 125.19H74.9" fill="none" stroke-width="1.5" stroke-linecap="round" stroke-linejoin="round" stroke="rgb(39.99939%,0%,59.999084%)" stroke-dasharray="1,2" stroke-miterlimit="2"/><path d="M53.3 137.793H74.9" fill="none" stroke-width="1.5" stroke-linecap="round" stroke-linejoin="round" stroke="rgb(9.799194%,9.799194%,43.998718%)" stroke-miterlimit="2"/><path d="M53.3 150.395H74.9" fill="none" stroke-width="1.5" stroke-linecap="round" stroke-linejoin="round" stroke="rgb(69.799805%,13.198853%,13.198853%)" stroke-dasharray="8,4" stroke-miterlimit="2"/><path d="M53.3 162.992H74.9" fill="none" stroke-width="1.5" stroke-linecap="round" stroke-linejoin="round" stroke="rgb(71.998596%,52.49939%,4.399109%)" stroke-miterlimit="2"/><path d="M53.3 175.594H74.9" fill="none" stroke-width="1.5" stroke-linecap="round" stroke-linejoin="round" stroke="#000" stroke-dasharray="8,4" stroke-miterlimit="2"/><path d="M53.3 188.19H74.9" fill="none" stroke-width="1.5" stroke-linecap="round" stroke-linejoin="round" stroke="#007f00" stroke-dasharray="1,2" stroke-miterlimit="2"/><use xlink:href="#m" x="122.124" y="227.493"/><use xlink:href="#n" x="127.349" y="227.493"/><use xlink:href="#m" x="132.804" y="227.493"/><use xlink:href="#o" x="137.725" y="229.271"/><use xlink:href="#p" x="141.064" y="229.271"/><use xlink:href="#q" x="11.9" y="122.716"/><use xlink:href="#r" x="11.9" y="115.134"/><use xlink:href="#q" x="11.9" y="109.68"/><use xlink:href="#s" x="13.536" y="103.299"/><use xlink:href="#t" x="13.536" y="98.828"/><use xlink:href="#u" x="13.536" y="96.477"/><use xlink:href="#v" x="31.02" y="215.097"/><use xlink:href="#w" x="34.838" y="215.097"/><use xlink:href="#v" x="36.961" y="215.097"/><use xlink:href="#v" x="70.424" y="215.097"/><use xlink:href="#w" x="74.242" y="215.097"/><use xlink:href="#x" x="76.365" y="215.097"/><use xlink:href="#v" x="109.721" y="215.097"/><use xlink:href="#w" x="113.539" y="215.097"/><use xlink:href="#y" x="115.662" y="215.097"/><use xlink:href="#v" x="149.018" y="215.097"/><use xlink:href="#w" x="152.836" y="215.097"/><use xlink:href="#z" x="154.959" y="215.097"/><use xlink:href="#v" x="188.315" y="215.097"/><use xlink:href="#w" x="192.133" y="215.097"/><use xlink:href="#A" x="194.256" y="215.097"/><use xlink:href="#B" x="227.619" y="215.097"/><use xlink:href="#w" x="231.437" y="215.097"/><use xlink:href="#v" x="233.56" y="215.097"/><use xlink:href="#C" x="30.002" y="182.773"/><use xlink:href="#D" x="30.002" y="178.955"/><use xlink:href="#E" x="30.002" y="176.832"/><use xlink:href="#C" x="30.002" y="154.671"/><use xlink:href="#D" x="30.002" y="150.853"/><use xlink:href="#F" x="30.002" y="148.73"/><use xlink:href="#C" x="30.002" y="126.569"/><use xlink:href="#D" x="30.002" y="122.751"/><use xlink:href="#G" x="30.002" y="120.628"/><use xlink:href="#C" x="30.002" y="98.467"/><use xlink:href="#D" x="30.002" y="94.649"/><use xlink:href="#H" x="30.002" y="92.526"/><use xlink:href="#I" x="30.002" y="70.465"/><use xlink:href="#D" x="30.002" y="66.647"/><use xlink:href="#C" x="30.002" y="64.524"/><use xlink:href="#I" x="30.002" y="42.363"/><use xlink:href="#D" x="30.002" y="38.545"/><use xlink:href="#E" x="30.002" y="36.422"/><use xlink:href="#I" x="30.002" y="14.261"/><use xlink:href="#D" x="30.002" y="10.443"/><use xlink:href="#F" x="30.002" y="8.32"/><use xlink:href="#J" x="80.698" y="126.996"/><use xlink:href="#K" x="83.234" y="128.072"/><use xlink:href="#L" x="86.056" y="128.072"/><use xlink:href="#M" x="88.738" y="128.072"/><use xlink:href="#N" x="91.86" y="126.996"/><use xlink:href="#J" x="95.375" y="126.996"/><use xlink:href="#O" x="97.908" y="128.072"/><use xlink:href="#P" x="102.74" y="126.996"/><use xlink:href="#Q" x="110.2" y="126.996"/><use xlink:href="#R" x="113.708" y="126.996"/><use xlink:href="#Q" x="115.659" y="126.996"/><use xlink:href="#S" x="119.174" y="126.996"/><use xlink:href="#J" x="80.697" y="139.599"/><use xlink:href="#K" x="83.234" y="140.672"/><use xlink:href="#L" x="86.056" y="140.672"/><use xlink:href="#M" x="88.738" y="140.672"/><use xlink:href="#N" x="91.86" y="139.596"/><use xlink:href="#J" x="95.375" y="139.596"/><use xlink:href="#O" x="97.908" y="140.672"/><use xlink:href="#P" x="102.74" y="139.596"/><use xlink:href="#Q" x="110.2" y="139.596"/><use xlink:href="#R" x="113.708" y="139.596"/><use xlink:href="#S" x="115.659" y="139.596"/><use xlink:href="#J" x="80.697" y="152.199"/><use xlink:href="#K" x="83.234" y="153.272"/><use xlink:href="#L" x="86.056" y="153.272"/><use xlink:href="#M" x="88.738" y="153.272"/><use xlink:href="#N" x="91.86" y="152.196"/><use xlink:href="#J" x="95.375" y="152.196"/><use xlink:href="#O" x="97.908" y="153.272"/><use xlink:href="#P" x="102.74" y="152.196"/><use xlink:href="#Q" x="110.2" y="152.196"/><use xlink:href="#R" x="113.708" y="152.196"/><use xlink:href="#T" x="115.659" y="152.196"/><use xlink:href="#J" x="80.697" y="164.792"/><use xlink:href="#K" x="83.234" y="165.871"/><use xlink:href="#L" x="86.056" y="165.871"/><use xlink:href="#M" x="88.738" y="165.871"/><use xlink:href="#N" x="91.86" y="164.795"/><use xlink:href="#J" x="95.375" y="164.795"/><use xlink:href="#O" x="97.908" y="165.871"/><use xlink:href="#P" x="102.74" y="164.795"/><use xlink:href="#Q" x="110.2" y="164.795"/><use xlink:href="#R" x="113.708" y="164.795"/><use xlink:href="#T" x="115.659" y="164.795"/><use xlink:href="#U" x="119.174" y="164.795"/><use xlink:href="#J" x="80.697" y="177.398"/><use xlink:href="#K" x="83.234" y="178.471"/><use xlink:href="#L" x="86.056" y="178.471"/><use xlink:href="#M" x="88.738" y="178.471"/><use xlink:href="#N" x="91.86" y="177.395"/><use xlink:href="#J" x="95.375" y="177.395"/><use xlink:href="#O" x="97.908" y="178.471"/><use xlink:href="#P" x="102.74" y="177.395"/><use xlink:href="#V" x="110.196" y="170.192"/><path d="M116.172 170.074h14.047" fill="none" stroke-width=".239" stroke="#000" stroke-miterlimit="10"/><use xlink:href="#W" x="116.173" y="177.395"/><use xlink:href="#N" x="119.688" y="177.395"/><use xlink:href="#W" x="123.203" y="177.395"/><use xlink:href="#T" x="126.717" y="177.395"/><use xlink:href="#J" x="80.702" y="189.998"/><use xlink:href="#K" x="83.234" y="191.071"/><use xlink:href="#L" x="86.056" y="191.071"/><use xlink:href="#M" x="88.738" y="191.071"/><use xlink:href="#N" x="91.86" y="189.995"/><use xlink:href="#J" x="95.375" y="189.995"/><use xlink:href="#O" x="97.908" y="191.071"/><use xlink:href="#P" x="102.74" y="189.995"/><use xlink:href="#Q" x="110.2" y="189.995"/><use xlink:href="#R" x="113.708" y="189.995"/><use xlink:href="#W" x="115.659" y="189.995"/><use xlink:href="#X" x="119.174" y="189.995"/><use xlink:href="#U" x="122.689" y="189.995"/></g></svg>