<svg xmlns="http://www.w3.org/2000/svg" xmlns:xlink="http://www.w3.org/1999/xlink" width="239.76pt" height="231.954pt" viewBox="0 0 239.76 231.954"><defs><symbol overflow="visible"><path/></symbol><symbol overflow="visible" id="e"><path d="M2.25-4.36h1.016c.218 0 .484-.156.484-.374C3.75-4.86 3.484-5 3.297-5H2.53c.345-1.406.408-1.625.408-1.688 0-.187-.282-.437-.47-.437-.03 0-.5.156-.61.53L1.47-5H.58c-.22 0-.484.14-.484.36 0 .124.25.28.47.28h.75C.56-1.42.53-1.233.53-1.03c0 .577.564 1.155 1.157 1.155 1.11 0 1.89-1.75 1.89-1.844 0-.108-.233-.25-.28-.25-.094 0-.28.19-.328.298-.47 1.14-.892 1.25-1.25 1.25-.236 0-.19 0-.19-.36 0-.25.017-.327.064-.515L2.36-4.36z"/></symbol><symbol overflow="visible" id="f"><path d="M4.938-7.922C5-8.062 5-8.11 5-8.11c0-.124-.25-.374-.375-.374-.078 0-.266.078-.344.218L.485 2.156c-.046.14-.046.188-.046.203 0 .11.265.36.374.36.14 0 .33-.22.39-.408z"/></symbol><symbol overflow="visible"><path/></symbol><symbol overflow="visible" id="g"><path d="M5.64-5.75H.28L.095-3.578H.72c.124-1.53.124-1.547 1.343-1.547.156 0 .406 0 .468.016.142.032-.03-.062-.03.126v4.14c0 .28.188.22-.64.22h-.5v.64C1.843-.03 2.702-.03 3.046-.03c.344 0 1.203 0 1.687.046v-.64H4.25c-.828 0-.64.061-.64-.22v-4.14c0-.172-.188-.094-.032-.125.078-.015.313-.015.47-.015 1.218 0 1.202.016 1.327 1.547H6L5.812-5.75z"/></symbol><symbol overflow="visible" id="h"><path d="M2.078-4.984c0-.297-.172-.188.47-.188h.374v-.64c-.828.03-.844.03-1.406.03-.547 0-.563 0-1.39-.03v.64H.5c.625 0 .47-.11.47.188v4.156c0 .297.155.203-.47.203H.125v.64C.953-.03.97-.03 1.515-.03c.563 0 .58 0 1.407.046v-.64h-.375c-.64 0-.47.093-.47-.204z"/></symbol><symbol overflow="visible"><path/></symbol><symbol overflow="visible" id="i"><path d="M-7.89-3.78c-.126-.048-.14-.048-.204-.048-.125 0-.36.297-.36.422 0 .094.126.375.33.453l5 1.906c.077.016.202.047.265.047.032 0 .063 0 .188-.047l5-1.906c.125-.047.39-.313.39-.453 0-.125-.218-.422-.343-.422-.03 0-.047 0-.172.047L-2.86-1.845z"/></symbol><symbol overflow="visible" id="m"><path d="M-2.672-3.172c-.125-.062-.156-.062-.187-.062-.03 0-.046 0-.187.062l-5.015 1.906c-.188.063-.39.329-.39.454 0 .11.233.42.358.42.03 0 .063 0 .172-.06l5.03-1.907 5 1.907c.126.062.22.062.267.062.125 0 .344-.313.344-.422 0-.14-.236-.39-.345-.438z"/></symbol><symbol overflow="visible"><path/></symbol><symbol overflow="visible" id="j"><path d="M-5.078-2.875c.328 1.36 1.906 2.578 3.22 2.578 1.046 0 1.983-.86 1.983-1.89 0-1.266-1.86-2.33-3.36-2.33-1 0-1.656.486-2.14.845-.5.406-1.203 1-1.688 1-.234 0-.343-.062-.343-.453 0-.328.093-.422.25-.656.125-.204.312-.548.312-.72 0-.266-.406-.578-.578-.578-.25 0-.437.328-.516.72-.125.56-.125.717-.125.89 0 .843.626 1.405 1.282 1.405.593 0 1.31-.36 1.75-.593zm.516-.016c.5-.266.968-.563 1.765-.563.72 0 2.375.25 2.375 1.265 0 .61-.297.907-1.125.907-.687 0-2.594-.25-2.953-1.642z"/></symbol><symbol overflow="visible" id="k"><path d="M1.734-.203c.125.047.157.047.172.047.172 0 .453-.297.453-.47 0-.233-.25-.468-.282-.5-.094-.046-1.656-.452-2.844-.733l.11.266c.437-.218.78-.687.78-1.203 0-1.265-1.702-2.828-3.327-2.828-1.156 0-1.922.875-1.922 1.672 0 1.047 1.25 2.36 2.578 2.687zM-.422-2.78c0 .764-.72.78-.828.78-.03 0-.25-.047-.39-.078-1.235-.313-1.516-.375-1.954-.61-.797-.468-.984-.906-.984-1.25 0-.406.156-.593.906-.593.61 0 1.72.28 2.25.577.688.36 1 .75 1 1.172z"/></symbol><symbol overflow="visible" id="l"><path d="M-7.922-4.938C-8.062-5-8.11-5-8.11-5c-.124 0-.374.25-.374.375 0 .078.078.266.218.344L2.156-.485c.14.046.188.046.203.046.11 0 .36-.265.36-.374 0-.14-.22-.33-.408-.39z"/></symbol><symbol overflow="visible"><path/></symbol><symbol overflow="visible" id="n"><path d="M-2-1.656c-.594 0-1.28-.063-1.297-.828l-.312.14c.047.047.235.188.407.188.25 0 .547-.39.547-.547 0-.188-.313-.547-.547-.547-.266 0-.672.438-.672.797 0 .515.563 1.062.828 1.156v-.297h-.844l.11 1.5h.624c0-.734-.14-.594.25-.594h2.094c.36 0 .187-.093.187.594h.64C-.03-.594-.03-1.03-.03-1.22c0-.468 0-.483.046-1.186h-.64v.344c0 .578.093.406-.204.406z"/></symbol><symbol overflow="visible" id="o"><path d="M-2.594-6.406c-.656 0-1.28.468-1.28 1.328 0 .734.546 1.234.78 1.36l.125-.313c-.56.14-.905.78-.905 1.296 0 .78.734 1.328.766 1.343v-.282h-.78l.11 1.53h.624c0-.733-.14-.592.25-.592h2.094c.36 0 .187-.11.187.593h.64C-.03-.673-.03-1.017-.03-1.235c0-.235 0-.563.046-1.094h-.64c0 .687.17.61-.189.61H-2.25c-.828 0-1.047-.454-1.047-.954 0-.515.235-.406.672-.406h1.813c.36 0 .187-.094.187.594h.64C-.03-3.016-.03-3.36-.03-3.578c0-.235 0-.563.046-1.094h-.64c0 .703.17.61-.189.61H-2.25c-.828 0-1.047-.454-1.047-.954 0-.515.235-.406.672-.406h1.813c.36 0 .187-.094.187.594h.64c-.046-.53-.046-.875-.046-1.094 0-.234 0-.562.046-1.094h-.64c0 .704.17.61-.189.61z"/></symbol><symbol overflow="visible" id="p"><path d="M-3.53-3.016c-.126 0-.392.172-.392.282 0 .046.063.203.188.328 0 .015.015-.047.015-.03 0 .014.064-.095.033-.048-.094.125-.235.484-.235.843 0 1.11.797 1.546 1.172 1.546.406 0 .766-.344.78-.375.236-.31.33-.624.423-1.17.078-.376 0-.798.547-.798.313 0 .484.016.484.75 0 .813-.437.86-.86.97-.093.03-.327.218-.327.312 0 .125.25.312.406.312h.984c.126 0 .39-.187.39-.28 0-.064-.06-.189-.218-.33-.032-.046-.14-.14-.047-.046.203-.22.265-.734.265-.938 0-1.015-.765-1.546-1.297-1.546-.374 0-1.108.406-1.296 1.36-.015.062-.093.515-.093.546-.046.25-.03.437-.36.437-.233 0-.39 0-.39-.75 0-.89.47-.735.704-.766.062 0 .265-.25.265-.297 0-.14-.235-.313-.39-.313z"/></symbol><symbol overflow="visible"><path/></symbol><symbol overflow="visible" id="q"><path d="M3.672-2.64c0-.594-.094-1.407-.406-2.032-.313-.562-.97-.797-1.36-.797-.453 0-1.172.314-1.484 1-.25.564-.28 1.22-.28 1.83 0 .61.03 1.17.25 1.718C.7-.187 1.468.172 1.905.172c.547 0 1.22-.47 1.453-.984.234-.5.312-1 .312-1.83zM1.906-.595c-.39 0-.53-.14-.687-.687-.126-.44-.126-.845-.126-1.454 0-.47 0-.938.125-1.36.046-.14.06-.625.686-.625.594 0 .61.44.657.58.156.42.156.937.156 1.406 0 .515 0 .968-.142 1.437-.203.703-.422.703-.672.703z"/></symbol><symbol overflow="visible" id="r"><path d="M1.172-4.516H3.36v-.78H.437v3.11l.796-.002c.188-.453.297-.61.75-.61.36 0 .58.173.58 1.08C2.56-.44 1.81-.595 1.748-.595c-.516 0-.86-.25-1.203-.875L.11-.702c.374.515 1.03.875 1.64.875.922 0 1.86-.906 1.86-1.875 0-.953-.83-1.844-1.626-1.844-.296 0-.718.156-.64.078v-1.046z"/></symbol><symbol overflow="visible" id="s"><path d="M2.28-5.47h-.233c-.5.517-1 .486-1.547.517v.734c.438-.014.797-.03 1-.124v3.61H.547V0h2.875v-.734h-.97V-5.47z"/></symbol><symbol overflow="visible"><path/></symbol><symbol overflow="visible" id="t"><path d="M-5.47-2.28v.233c.517.5.486 1 .517 1.547h.734c-.014-.438-.03-.797-.124-1h3.61v.953H0v-2.875h-.734v.97H-5.47z"/></symbol><symbol overflow="visible" id="u"><path d="M-2.64-3.672c-.594 0-1.407.094-2.032.406-.562.313-.797.97-.797 1.36 0 .453.314 1.172 1 1.484.564.25 1.22.28 1.83.28.61 0 1.17-.03 1.718-.25C-.187-.7.172-1.468.172-1.905c0-.547-.47-1.22-.984-1.453-.5-.234-1-.312-1.83-.312zm2.046 1.766c0 .39-.14.53-.687.687-.44.126-.845.126-1.454.126-.47 0-.938 0-1.36-.125-.14-.046-.625-.06-.625-.686 0-.594.44-.61.58-.657.42-.156.937-.156 1.406-.156.515 0 .968 0 1.437.142.703.203.703.422.703.672z"/></symbol><symbol overflow="visible"><path/></symbol><symbol overflow="visible" id="v"><path d="M-1.266-3.906c0-.078-.17-.39-.296-.39-.125 0-.297.312-.297.39v3.203c0 .094.173.406.298.406s.296-.312.296-.406z"/></symbol><symbol overflow="visible"><path/></symbol><symbol overflow="visible" id="w"><path d="M-2.906-.688c-.453-.234-.53-.5-.53-.765-.002-.328.03-.39.342-.39.297 0 .5.015.563.437.014.03.014.047.046.61h.687v-.626c0-.53.25-.547.61-.547.437 0 .61.095.61.532 0 .39-.142.72-.798 1.22l.813.17c.437-.39.67-.968.67-1.405 0-.734-.702-1.438-1.296-1.438-.453 0-.984.546-1.11.984l.282-.125c-.218-.423-.718-.69-1.078-.69-.47 0-1.015.658-1.015 1.25 0 .5.313 1.048.766 1.36l.64-.468z"/></symbol><symbol overflow="visible" id="x"><path d="M-.766-1.578v.843l.297-.14-.764-.86c-.094-.093-.297-.374-.39-.484-.22-.233-.626-.624-1.11-.624-.64 0-1.375.656-1.375 1.453 0 .593.47 1.14 1.094 1.343l.672-.53c-.86-.236-1.047-.25-1.047-.736 0-.468.156-.64.656-.64.468 0 .61.22.937.547.11.125.36.422.47.53.14.173.514.548.702.767H0v-2.734h-.766z"/></symbol><symbol overflow="visible" id="y"><path d="M-4.11-1.797v.203c.39.422.36.75.376 1.266h.687c-.015-.406-.03-.688-.062-.78h2.422v.75H0v-2.345h-.688v.734h-3.42z"/></symbol><symbol overflow="visible"><path/></symbol><symbol overflow="visible" id="z"><path d="M1.516-6.234H.61V0h3.75v-.813c-.923.016-1.673.016-2.438.016h-.25v-5.437z"/></symbol><symbol overflow="visible" id="A"><path d="M1.36-6.11H.452v1H1.53v-1zM1.31-4.077H.5V0h.97v-4.078z"/></symbol><symbol overflow="visible" id="B"><path d="M3.813-2.72c0-.53-.282-1.452-1.313-1.452-.484 0-1.016.25-1.344.672l.282.094v-.72H.484V0h1v-2.266c0-.546.032-1.125.688-1.125.797 0 .656.42.656.734V0h.985z"/></symbol><symbol overflow="visible" id="C"><path d="M3.672-2.063c0-.374-.094-1-.36-1.453-.36-.593-1.078-.687-1.328-.687-.92 0-1.875 1.016-1.875 2.14 0 1.126 1 2.157 2 2.157.39 0 .984-.157 1.5-.53 0-.095-.016-.36-.016-.423-.063-.062-.03-.156-.03-.53-.798.67-1.173.702-1.44.702-.655 0-1.062-.468-1.077-1.25h2.625zM1.094-2.53c.14-.58.39-.908.89-.908.266 0 .688 0 .813.782H1.125z"/></symbol><symbol overflow="visible" id="D"><path d="M3.53-2.656c0-.828-.764-1.547-1.56-1.547-.517 0-1.017.14-1.5.422l.077.92c.64-.468.922-.593 1.422-.593.405 0 .577.187.577.812v.234c-.22.015-.735.03-1.25.203C.72-2 .203-1.547.203-1.125c0 .39.406 1.22 1.125 1.22.484 0 1.188-.19 1.234-.204V0h.97zM2.548-1.28c0 .17.047.28-.235.452-.234.14-.406.14-.53.14-.47 0-.626-.125-.626-.437 0-.594 1.032-.594 1.39-.594z"/></symbol><symbol overflow="visible" id="E"><path d="M1.47-2.016c0-.875.5-1.312 1.436-1.312v-.844c-.953.016-1.53.5-1.765.844l.282.094v-.89H.5V0h.97z"/></symbol><symbol overflow="visible" id="F"><path d="M3.25-5.39H5.61v-.798H.124v.797h2.203V0h1.078v-5.39z"/></symbol><symbol overflow="visible" id="G"><path d="M3.813-2.72c0-.53-.282-1.452-1.313-1.452-.594 0-1.11.375-1.328.64l.297.095v-2.797H.483V0h1v-2.266c0-.546.032-1.125.688-1.125.797 0 .656.42.656.734V0h.985z"/></symbol><symbol overflow="visible" id="H"><path d="M4.11-2.016c0-1.171-1.016-2.187-2-2.187-1.016 0-2.016 1.03-2.016 2.187 0 1.125 1.03 2.11 2 2.11 1.015 0 2.015-1 2.015-2.11zm-2 1.313c-.626 0-1.032-.39-1.032-1.406 0-1.046.484-1.328 1.016-1.328.594 0 1.03.33 1.03 1.33 0 1.06-.437 1.405-1.015 1.405z"/></symbol><symbol overflow="visible" id="I"><path d="M3.734-4.078h-.796C2.515-2.968 1.843-1.28 1.812-.75h.33c-.048-.39-.5-1.516-.564-1.688l-.672-1.64H-.11L1.548-.14 1.25.624C1.062 1.047 1.11 1 .953 1 .828 1 .547.97.093.797l.08.86c.218.046.5.093.78.093.203 0 .766-.125 1.14-1.063L3.94-4.077z"/></symbol><symbol overflow="visible"><path/></symbol><symbol overflow="visible" id="J"><path d="M1.734-3.453h.782c.17 0 .437-.172.437-.328 0-.095-.234-.267-.406-.267h-.53l.28-1.078c.03-.125.03-.14.03-.203 0-.14-.296-.39-.405-.39-.078 0-.453.187-.53.452l-.283 1.22H.436c-.17 0-.437.17-.437.343 0 .078.25.25.406.25h.547l-.53 2.078C.358-1.062.327-.97.327-.86c0 .407.47.954.953.954.876 0 1.517-1.422 1.517-1.485 0-.063-.22-.25-.266-.25-.014 0-.186.046-.202.077 0 .016-.078.125-.125.266-.187.422-.39.875-.89.875-.266 0-.094-.047-.094-.234 0 0 0-.172.014-.28l.64-2.517z"/></symbol><symbol overflow="visible" id="M"><path d="M3.875-6.297c0-.016.047-.14.047-.156 0-.11-.266-.344-.328-.344-.047 0-.313.156-.375.344L.327 1.657c0 .015-.047.155-.047.17 0 .095.267.33.345.33.047 0 .313-.173.36-.36z"/></symbol><symbol overflow="visible"><path/></symbol><symbol overflow="visible" id="K"><path d="M3.984-4.453H.14L0-2.703h.547C.64-3.86.53-3.86 1.437-3.86h.33c.124.032-.08-.11-.08.032v3.156c0 .203.204.094-.42.094H.812v.594c.453-.032 1.062-.032 1.343-.032.266 0 .89 0 1.328.032v-.594h-.437c-.625 0-.422.11-.422-.094v-3.156c0-.11-.203 0-.094-.03h.345c.906 0 .78 0 .89 1.155h.547l-.14-1.75z"/></symbol><symbol overflow="visible" id="L"><path d="M1.547-3.813c0-.218-.188-.093.297-.093h.343V-4.5c-.406.03-.874.03-1.11.03-.233 0-.702 0-1.108-.03v.594h.358c.47 0 .28-.125.28.094v3.14c0 .22.19.094-.28.094h-.36v.594c.407-.032.876-.032 1.11-.032.234 0 .703 0 1.11.032v-.594h-.344c-.485 0-.297.125-.297-.094z"/></symbol><symbol overflow="visible" id="N"><path d="M2.688-2.39h.874v-.58H2.86v-.5c0-.53.093-.624.36-.624.014 0 .108 0 .202.047v-.39c-.078.015-.39.296-.39.453 0 .125.296.453.468.453.172 0 .453-.33.453-.47 0-.22-.406-.61-.734-.61-.36 0-.767.282-.626.173-.063-.094-.53-.172-.703-.172-.562 0-1.452.5-1.452 1.157v.484h-.485v.58h.484v1.734c0 .265.126.078-.468.078v.594C.36 0 .687-.016.827-.016c.156 0 .453.016.86.016v-.578c-.594 0-.454.187-.454-.078V-2.39h.844v1.734c0 .265.14.078-.47.078V0c.44 0 .72-.016.892-.016.234 0 .516 0 .953.032v-.594H3.14c-.453 0-.265.125-.265-.094v-1.72zm-1.485-.39v-.673c0-.578.297-.64.688-.64.298 0 .47.124.266.124v-.374c.094 0-.22.266-.22.438.002.03.205.375.142.36v.577h-.875z"/></symbol><symbol overflow="visible"><path/></symbol><symbol overflow="visible" id="O"><path d="M5.813-2.797c.125 0 .453-.156.453-.312s-.329-.328-.454-.328H.734c-.11 0-.453.172-.453.33 0 .155.33.31.454.31zm0 1.61c.125 0 .453-.172.453-.313 0-.172-.329-.344-.454-.344H.734c-.11 0-.453.172-.453.328 0 .157.33.329.454.329z"/></symbol><symbol overflow="visible" id="P"><path d="M2.656-5.688c0-.187-.172-.375-.437-.375-.25.282-.548.547-1.626.547v.594c.39 0 .812 0 1.11-.14V-.83c0 .312.155.25-.595.25H.64v.594c.422-.032 1.266-.032 1.547-.032.282 0 1.11 0 1.516.032v-.594h-.437c-.766 0-.61.062-.61-.25z"/></symbol><symbol overflow="visible" id="Q"><path d="M4.03-2.922c0-.72-.03-1.406-.343-2.062-.36-.72-1.156-1.079-1.578-1.079-.5 0-1.297.407-1.626 1.125C.25-4.405.156-3.843.156-2.921c0 .844.125 1.594.438 2.203.344.657 1.062.907 1.5.907.75 0 1.312-.5 1.484-.86.438-.905.453-1.75.453-2.25zM2.095-.328c-.266 0-.64.016-.813-.922-.093-.516-.093-1.172-.093-1.766 0-.718 0-1.343.14-1.86.142-.577.407-.67.767-.67.328 0 .64.03.812.765.11.5.11 1.17.11 1.764 0 .58 0 1.204-.094 1.735-.172.952-.516.952-.828.952z"/></symbol><clipPath id="a"><path d="M30.2 13H164v176H30.2z"/></clipPath><clipPath id="b"><path d="M30.2 26H229.6v163H30.2z"/></clipPath><clipPath id="c"><path d="M30.2 66H229.6v123H30.2z"/></clipPath><clipPath id="d"><path d="M30.2 98H229.6v102H30.2z"/></clipPath></defs><g><path d="M230.363 206.547H29.758v-200h200.605z" fill="#fff"/><g clip-path="url(#a)"><path d="M30.2 187.395L163.1 14.195" fill="none" stroke-width="1.5" stroke-linecap="round" stroke-linejoin="round" stroke="rgb(82.798767%,82.798767%,82.798767%)" stroke-miterlimit="2"/></g><g clip-path="url(#b)"><path d="M30.2 187.293l13.5-11 13.402-15.8 13-14.9 13.296-15.3 26.602-31 13.3-16 13.302-19.098 13.296-19.203 13.3-10.398 13.2-4 13.403-1.8 13.2-.9 13.3-.5 13.302-.402" fill="none" stroke-width="1.5" stroke-linecap="round" stroke-linejoin="round" stroke="rgb(9.799194%,9.799194%,43.998718%)" stroke-miterlimit="2"/></g><g clip-path="url(#c)"><path d="M30.2 187.293l13.3-14.3 13.3-11.9 13.302-14.3 13.296-18.5 13.3-41.2L110 66.896l13.3 1.898 13.302 3.3 13.296.602 13.3 1.5 13.302-.3 13.2.398 13.3-1.098 13.3.797 13.302-1.097" fill="none" stroke-width="1.5" stroke-linecap="round" stroke-linejoin="round" stroke="rgb(71.998596%,52.49939%,4.399109%)" stroke-dasharray="4,2" stroke-miterlimit="2"/></g><g clip-path="url(#d)"><path d="M30.2 186.992l1.3 2.5 1.398 7.5 1.3-4.097 1.302-2.7 1.3 5.598 1.4 1.7 1.3-7.098 1.3 1.097 1.4 7.403 1.3-7 1.3-4.102 1.302 5.2 1.398 1.6 1.3-8.398 1.302.4 1.398 7.3 1.3-7.5 1.302-5 1.398 4.7 1.3 2.8 1.302-9.7 1.296-1.3 1.403 6.8 1.302-4.402 1.296-6.7 1.403 2 1.302 5.2 1.296-7.8 1.403-3.298 1.302 4.9 1.296.5 1.3-7.802 1.404-.398 1.296 5.8 1.3-4.1 1.404-5.5 1.296 2 1.3 3.698L82 162.695l1.398-2.703 1.3 3.3 1.302-.698 1.398-6.102 1.3-1.898L90 152.992l1.3-5.5 1.4-4.7 1.3-3.097 1.3-1.8 1.4-2.102 1.3-2.398 1.3-1.5 1.4-1.602 1.3-1.5 1.3-1.098 1.302-1.3 1.398-1.3 1.3-1.5 1.302-1.7 1.398-2.2 1.3-1.703 1.302-1.297 1.296-1.6 1.403-1.4 1.302-.6h1.296l1.403-.103 1.302-.597 1.296-.903 1.3-.597 1.404-.3 1.296.1 1.3-.1 1.404-.4 1.296-.203 1.3-.297 1.404-.6 1.296-.802 1.3-.7 1.302-.3 1.398-.5 1.3-.398h1.302l1.398-.102 1.3-.098 1.302.2 1.3.597 1.4.102 1.3-.2 1.3-.402 1.4-.5 1.3-.097 1.3-.2 1.4-.402 1.3-.5 1.3-.2 1.302-.1 1.398-.298 1.3-.1h1.302l1.398-.2 1.3-.102 1.302-.3 1.296-.098 1.403-.7 1.302-1.3 1.296-.903h1.403l1.302-.5 1.296-.898 1.403-.102 1.302-.097 1.296.398 1.3.602 1.404.8 1.296.598 1.3.5 1.404.402 1.296-.203 1.3-.7H191l1.398-.597 1.3-.402H195l1.398.402 1.3.098 1.302-.7 1.3-.8 1.4-.398 2.6 1.398 1.4.2h1.3l1.3-.5 1.4.3 1.3.3 1.3-.3 1.302-.7 1.398-.398 1.3.598 1.302 1 1.398.7 2.602 1.6 1.296-.198h1.403l1.302.5 1.296-.7 1.403-.5 1.302.098.097-.098" fill="none" stroke-width="1.5" stroke-linecap="round" stroke-linejoin="round" stroke="rgb(69.799805%,13.198853%,13.198853%)" stroke-dasharray="1,2" stroke-miterlimit="2"/></g><path d="M30.2 206.395H229.6" fill="none" stroke-width=".75" stroke-linecap="square" stroke-linejoin="round" stroke="#000" stroke-miterlimit="2"/><path d="M30.2 199.195v7.2m66.5-7.2v7.2m66.402-7.2v7.2m66.5-7.2v7.2" fill="none" stroke-width=".9" stroke-linecap="square" stroke-linejoin="round" stroke="#000" stroke-miterlimit="2"/><path d="M43.5 202.793v3.602m13.3-3.602v3.602m13.302-3.602v3.602m13.296-3.602v3.602M110 202.793v3.602m13.2-3.602v3.602m13.3-3.602v3.602m13.3-3.602v3.602m26.598-3.602v3.602m13.3-3.602v3.602M203 202.793v3.602m13.3-3.602v3.602" fill="none" stroke-width=".7" stroke-linecap="square" stroke-linejoin="round" stroke="#000" stroke-miterlimit="2"/><path d="M30.2 206.395V6.992" fill="none" stroke-width=".75" stroke-linecap="square" stroke-linejoin="round" stroke="#000" stroke-miterlimit="2"/><path d="M37.398 206.395h-7.2m7.2-39.903h-7.2m7.2-39.898h-7.2m7.2-39.8h-7.2m7.2-39.9h-7.2m7.2-39.902h-7.2" fill="none" stroke-width=".9" stroke-linecap="square" stroke-linejoin="round" stroke="#000" stroke-miterlimit="2"/><path d="M33.8 194.395h-3.6m3.6-7h-3.6m3.6-5h-3.6m3.6-3.903h-3.6m3.6-3.097h-3.6m3.6-2.7h-3.6m3.6-2.3h-3.6m3.6-2.102h-3.6m3.6-13.8h-3.6m3.6-7h-3.6m3.6-5h-3.6m3.6-3.9h-3.6m3.6-3.1h-3.6m3.6-2.7h-3.6m3.6-2.3h-3.6m3.6-2h-3.6m3.6-13.9h-3.6m3.6-7h-3.6m3.6-5h-3.6m3.6-3.8h-3.6m3.6-3.2h-3.6m3.6-2.698h-3.6m3.6-2.3h-3.6m3.6-2h-3.6m3.6-13.802h-3.6m3.6-7.098h-3.6m3.6-4.902h-3.6m3.6-3.898h-3.6m3.6-3.2h-3.6m3.6-2.6h-3.6m3.6-2.4h-3.6m3.6-2h-3.6m3.6-13.8h-3.6m3.6-7h-3.6m3.6-5h-3.6m3.6-3.903h-3.6m3.6-3.2h-3.6m3.6-2.597h-3.6m3.6-2.3h-3.6m3.6-2.102h-3.6" fill="none" stroke-width=".7" stroke-linecap="square" stroke-linejoin="round" stroke="#000" stroke-miterlimit="2"/><path d="M30.2 6.992H229.6" fill="none" stroke-width=".75" stroke-linecap="square" stroke-linejoin="round" stroke="#000" stroke-miterlimit="2"/><path d="M30.2 14.195V6.992m66.5 7.203V6.992m66.402 7.203V6.992m66.5 7.203V6.992" fill="none" stroke-width=".9" stroke-linecap="square" stroke-linejoin="round" stroke="#000" stroke-miterlimit="2"/><path d="M43.5 10.594V6.992m13.3 3.602V6.992m13.302 3.602V6.992m13.296 3.602V6.992M110 10.594V6.992m13.2 3.602V6.992m13.3 3.602V6.992m13.3 3.602V6.992m26.598 3.602V6.992m13.3 3.602V6.992M203 10.594V6.992m13.3 3.602V6.992" fill="none" stroke-width=".7" stroke-linecap="square" stroke-linejoin="round" stroke="#000" stroke-miterlimit="2"/><path d="M229.602 206.395V6.992" fill="none" stroke-width=".75" stroke-linecap="square" stroke-linejoin="round" stroke="#000" stroke-miterlimit="2"/><path d="M222.398 206.395h7.204m-7.204-39.903h7.204m-7.204-39.898h7.204m-7.204-39.8h7.204m-7.204-39.9h7.204m-7.204-39.902h7.204" fill="none" stroke-width=".9" stroke-linecap="square" stroke-linejoin="round" stroke="#000" stroke-miterlimit="2"/><path d="M226 194.395h3.602m-3.602-7h3.602m-3.602-5h3.602M226 178.492h3.602M226 175.395h3.602m-3.602-2.7h3.602m-3.602-2.3h3.602M226 168.293h3.602m-3.602-13.8h3.602m-3.602-7h3.602m-3.602-5h3.602m-3.602-3.9h3.602m-3.602-3.1h3.602m-3.602-2.7h3.602m-3.602-2.3h3.602m-3.602-2h3.602m-3.602-13.9h3.602m-3.602-7h3.602m-3.602-5h3.602m-3.602-3.8h3.602m-3.602-3.2h3.602M226 92.896h3.602m-3.602-2.3h3.602m-3.602-2h3.602M226 74.792h3.602M226 67.695h3.602M226 62.793h3.602M226 58.895h3.602m-3.602-3.2h3.602m-3.602-2.6h3.602m-3.602-2.4h3.602m-3.602-2h3.602M226 34.895h3.602m-3.602-7h3.602m-3.602-5h3.602M226 18.992h3.602m-3.602-3.2h3.602M226 13.196h3.602m-3.602-2.3h3.602M226 8.793h3.602" fill="none" stroke-width=".7" stroke-linecap="square" stroke-linejoin="round" stroke="#000" stroke-miterlimit="2"/><path d="M43.8 23.594h10.802" fill="none" stroke-width="1.5" stroke-linecap="round" stroke-linejoin="round" stroke="rgb(82.798767%,82.798767%,82.798767%)" stroke-miterlimit="2"/><path d="M43.8 37.293h10.802" fill="none" stroke-width="1.5" stroke-linecap="round" stroke-linejoin="round" stroke="rgb(9.799194%,9.799194%,43.998718%)" stroke-miterlimit="2"/><path d="M43.8 50.895h10.802" fill="none" stroke-width="1.5" stroke-linecap="round" stroke-linejoin="round" stroke="rgb(71.998596%,52.49939%,4.399109%)" stroke-dasharray="4,2" stroke-miterlimit="2"/><path d="M43.8 64.594h10.802" fill="none" stroke-width="1.5" stroke-linecap="round" stroke-linejoin="round" stroke="rgb(69.799805%,13.198853%,13.198853%)" stroke-dasharray="1,2" stroke-miterlimit="2"/><use xlink:href="#e" x="118.398" y="227.994"/><use xlink:href="#f" x="122.336" y="227.994"/><use xlink:href="#e" x="127.791" y="227.994"/><use xlink:href="#g" x="131.731" y="229.683"/><use xlink:href="#h" x="137.844" y="229.683"/><use xlink:href="#i" x="12.2" y="129.036"/><use xlink:href="#j" x="12.2" y="124.792"/><use xlink:href="#k" x="12.2" y="119.534"/><use xlink:href="#l" x="12.2" y="113.894"/><use xlink:href="#k" x="12.2" y="108.44"/><use xlink:href="#m" x="12.2" y="102.8"/><use xlink:href="#n" x="13.837" y="98.555"/><use xlink:href="#o" x="13.837" y="95.255"/><use xlink:href="#p" x="13.837" y="88.202"/><use xlink:href="#q" x="28.29" y="215.597"/><use xlink:href="#r" x="94.788" y="215.597"/><use xlink:href="#s" x="159.277" y="215.597"/><use xlink:href="#q" x="163.095" y="215.597"/><use xlink:href="#s" x="225.775" y="215.597"/><use xlink:href="#r" x="229.593" y="215.597"/><use xlink:href="#t" x="25.015" y="174.276"/><use xlink:href="#u" x="25.015" y="170.458"/><use xlink:href="#v" x="22.244" y="166.639"/><use xlink:href="#w" x="22.244" y="162.03"/><use xlink:href="#t" x="25.015" y="134.377"/><use xlink:href="#u" x="25.015" y="130.559"/><use xlink:href="#v" x="22.244" y="126.74"/><use xlink:href="#x" x="22.244" y="122.131"/><use xlink:href="#t" x="25.015" y="94.578"/><use xlink:href="#u" x="25.015" y="90.76"/><use xlink:href="#v" x="22.244" y="86.941"/><use xlink:href="#y" x="22.244" y="82.332"/><use xlink:href="#t" x="24.302" y="48.808"/><use xlink:href="#t" x="24.302" y="10.817"/><use xlink:href="#u" x="24.302" y="6.999"/><use xlink:href="#z" x="60.298" y="25.4"/><use xlink:href="#A" x="64.851" y="25.4"/><use xlink:href="#B" x="66.831" y="25.4"/><use xlink:href="#C" x="71.152" y="25.4"/><use xlink:href="#D" x="74.897" y="25.4"/><use xlink:href="#E" x="78.701" y="25.4"/><use xlink:href="#F" x="84.374" y="25.4"/><use xlink:href="#G" x="90.124" y="25.4"/><use xlink:href="#C" x="94.445" y="25.4"/><use xlink:href="#H" x="98.189" y="25.4"/><use xlink:href="#E" x="102.174" y="25.4"/><use xlink:href="#I" x="105.041" y="25.4"/><use xlink:href="#J" x="60.298" y="39.095"/><use xlink:href="#K" x="63.342" y="40.39"/><use xlink:href="#L" x="67.658" y="40.39"/><use xlink:href="#M" x="70.116" y="39.099"/><use xlink:href="#J" x="74.334" y="39.099"/><use xlink:href="#N" x="77.374" y="40.39"/><use xlink:href="#O" x="84.016" y="39.099"/><use xlink:href="#P" x="92.968" y="39.099"/><use xlink:href="#M" x="97.177" y="39.099"/><use xlink:href="#P" x="101.386" y="39.099"/><use xlink:href="#Q" x="105.604" y="39.099"/><use xlink:href="#J" x="60.302" y="52.699"/><use xlink:href="#K" x="63.342" y="53.99"/><use xlink:href="#L" x="67.658" y="53.99"/><use xlink:href="#M" x="70.116" y="52.699"/><use xlink:href="#J" x="74.334" y="52.699"/><use xlink:href="#N" x="77.374" y="53.99"/><use xlink:href="#O" x="84.016" y="52.699"/><use xlink:href="#P" x="92.968" y="52.699"/><use xlink:href="#J" x="60.302" y="66.394"/><use xlink:href="#K" x="63.342" y="67.689"/><use xlink:href="#L" x="67.658" y="67.689"/><use xlink:href="#M" x="70.116" y="66.398"/><use xlink:href="#J" x="74.334" y="66.398"/><use xlink:href="#N" x="77.374" y="67.689"/><use xlink:href="#O" x="84.016" y="66.398"/><use xlink:href="#P" x="92.968" y="66.398"/><use xlink:href="#Q" x="97.186" y="66.398"/></g></svg>