<svg xmlns="http://www.w3.org/2000/svg" xmlns:xlink="http://www.w3.org/1999/xlink" width="504pt" height="250.444pt" viewBox="0 0 504 250.444"><defs><symbol overflow="visible"><path d="M.594 1.72V-8.47h4.828V1.72zm.672-.673H4.75V-7.78H1.266z"/></symbol><symbol overflow="visible" id="f"><path d="M4.5-4.063c.29.18.69.297 1.203.36.52.062.836.11.953.14.407.106.707.258.907.454.195.2.296.454.296.766 0 .043-.008.094-.016.156-.012.063-.024.126-.032.188-.148.117-.29.203-.42.266-.126.062-.263.093-.408.093-.18 0-.355-.048-.53-.14-.17-.095-.356-.243-.563-.454-.062-.07-.257-.313-.577-.72-.313-.405-.633-.702-.954-.89l-.14-.078v.172c0 .324.108.762.327 1.313.02.042.035.078.047.11.156.386.254.667.297.843.05.18.08.336.08.468 0 .293-.075.532-.22.72-.137.187-.355.33-.656.437-.305-.105-.528-.25-.672-.437-.137-.187-.203-.426-.203-.72 0-.25.108-.643.327-1.186.02-.063.035-.102.047-.125.156-.375.254-.66.297-.86.05-.195.08-.382.08-.562v-.172l-.158.078c-.292.188-.6.485-.92.89-.314.407-.513.65-.595.72-.2.21-.387.36-.563.453-.18.093-.355.14-.53.14-.15 0-.29-.032-.423-.094C.646-1.797.51-1.89.376-2.016c-.023-.05-.04-.1-.047-.156v-.172c0-.312.098-.566.297-.765.195-.195.5-.347.906-.453.115-.03.427-.078.94-.14.518-.063.925-.18 1.217-.36l.14-.093-.14-.078c-.304-.164-.71-.282-1.218-.344-.513-.07-.825-.125-.94-.156-.405-.114-.71-.27-.905-.47-.2-.194-.297-.444-.297-.75v-.17c.008-.052.024-.114.047-.19.145-.112.28-.194.406-.248.134-.063.275-.094.423-.094.176 0 .348.047.516.14.175.094.366.246.577.454.082.085.28.328.594.734.32.406.63.695.922.86l.157.077v-.157c0-.187-.03-.38-.08-.578-.042-.195-.14-.477-.296-.844-.024-.038-.04-.08-.047-.124-.22-.55-.328-.953-.328-1.203 0-.29.065-.523.202-.703.144-.188.367-.336.672-.453.3.117.52.265.656.453.145.18.22.414.22.703 0 .25-.11.65-.33 1.188-.023.063-.038.11-.046.14-.012.025-.024.048-.032.08-.23.562-.343 1.01-.343 1.343v.156l.14-.08c.3-.175.61-.468.92-.874.322-.406.525-.648.61-.734.196-.195.383-.344.563-.438.176-.093.352-.14.53-.14.146 0 .283.03.408.093.133.055.274.14.423.266.007.063.02.125.03.188.01.055.016.106.016.157 0 .305-.102.555-.298.75-.2.2-.507.355-.92.47-.12.03-.43.085-.94.155-.51.062-.913.18-1.202.344l-.14.078z"/></symbol><symbol overflow="visible"><path/></symbol><symbol overflow="visible" id="g"><path d="M-5.063.047h.39l.064-.64L0-2.282v-.595L-4.578-4.72l-.094-.608h-.39v1.86h.39l.047-.563.172-.095 3.437 1.344-3.437 1.233-.172-.125-.047-.562h-.39z"/></symbol><symbol overflow="visible" id="k"><path d="M-7.547-4.063C-7.313-2.188-5.734-1.108-3-1.108c2.688 0 4.28-1.124 4.5-2.952h-.453C.813-2.657-.516-2.017-2.983-2.017c-2.533 0-3.876-.61-4.126-2.046z"/></symbol><symbol overflow="visible" id="l"><path d="M2.297-.234V-2.72h-.39l-.048.673-.173.188h-1.75c.063-.39.094-.718.094-.984 0-1.547-1.077-2.578-2.733-2.578-1.47 0-2.453.86-2.453 2.016 0 .5.203.984.625 1.547h-.58v.39l.376 1.236h.328v-.75h6.093l.172.17.046.58zM-.61-1.86h-3.53c-.235-.406-.36-.75-.36-1.11 0-.905.72-1.53 1.938-1.53 1.296 0 2.124.72 2.124 1.75 0 .25-.062.547-.17.89z"/></symbol><symbol overflow="visible" id="m"><path d="M-.438-4.47h-.546c.296.44.437.876.437 1.33 0 1.093-.765 1.796-2.062 1.796-1.328 0-2.14-.64-2.14-1.547 0-.188.063-.344.156-.5h.86c.11-.157.156-.33.156-.485 0-.36-.22-.578-.547-.578-.625 0-1.03.562-1.03 1.578 0 1.47 1.06 2.484 2.624 2.484C-.985-.39.077-1.33.077-2.75c0-.578-.187-1.14-.515-1.72z"/></symbol><symbol overflow="visible" id="o"><path d="M-5.063.016h.39l.064-.64 4.563-1.767c.75.25 1.28.562 1.578.843L1.14-.53c.157.17.36.264.563.264.344 0 .594-.28.594-.718 0-.688-.578-1.188-1.766-1.688l-5.108-2.11-.094-.61h-.39v1.876h.39l.047-.562.172-.094 3.266 1.328-3.266 1.25-.172-.125-.047-.546h-.39z"/></symbol><symbol overflow="visible" id="p"><path d="M0-.313v-2.53h-.375l-.063.734-.156.172H-3.61c-.5-.42-.765-.796-.765-1.14 0-.22.078-.406.25-.547v-.328h-.906c-.095.22-.126.422-.126.625 0 .094 0 .187.015.265.296.376.64.766 1.015 1.126h-.984v.406l.376 1.218h.328v-.75h3.812l.156.187.063.563z"/></symbol><symbol overflow="visible" id="q"><path d="M-7.547-.328h.438c.25-1.438 1.594-2.047 4.126-2.047 2.468 0 3.796.64 4.03 2.047H1.5C1.28-2.156-.313-3.266-3-3.266c-2.734 0-4.313 1.063-4.547 2.938z"/></symbol><symbol overflow="visible" id="S"><path d="M-7.03-4.03h1.968c-.063.327-.11.64-.11.936 0 1.594 1.125 2.72 2.813 2.72 1.47 0 2.454-.892 2.454-2.032 0-.578-.203-1.078-.64-1.625H0V-5.58h-.375l-.063.5-.156.172h-7.14v.406l.375 1.28h.33zm6.093 0c.25.39.375.764.375 1.155 0 .938-.75 1.578-1.985 1.578-1.312 0-2.172-.75-2.172-1.812 0-.25.08-.562.173-.92z"/></symbol><symbol overflow="visible" id="T"><path d="M-1.11-4.72c.39.61.61 1.142.61 1.657C-.5-2-1.297-1.296-2.656-1.296h-.11v-3.406c-.11-.016-.218-.016-.328-.016-1.297 0-2.062.75-2.062 1.907C-5.156-1.405-4.078-.39-2.5-.39-.953-.39.094-1.345.094-2.735c0-.657-.203-1.344-.625-1.985zm-2.093.94v2.436c-.89-.062-1.485-.672-1.485-1.343 0-.704.454-1.094 1.313-1.094h.172z"/></symbol><symbol overflow="visible" id="U"><path d="M-1.234-1.47c0 .376.28.69.67.69.376 0 .658-.314.658-.69 0-.358-.297-.655-.656-.655-.39 0-.672.297-.672.656z"/></symbol><symbol overflow="visible"><path/></symbol><symbol overflow="visible" id="h"><path d="M0-.203v-1.72h-.266l-.03.407-.126.14h-5v.282l.266.89h.234v-.562h4.5l.125.125.03.437z"/></symbol><symbol overflow="visible" id="i"><path d="M-3.61-1.984c0 1 .735 1.718 1.83 1.718C-.688-.266.062-1 .062-1.984c0-.985-.75-1.704-1.844-1.704-1.08 0-1.83.72-1.83 1.704zm.313 0C-3.297-2.578-2.72-3-1.78-3c.968 0 1.53.422 1.53 1.016C-.25-1.39-.828-.97-1.78-.97c-.954 0-1.517-.42-1.517-1.014z"/></symbol><symbol overflow="visible" id="j"><path d="M-3.453-2.53c-.11.25-.156.53-.156.858 0 .844.376 1.297 1.032 1.297.484 0 .72-.313 1-.938.22-.484.36-.75.734-.75.344 0 .594.266.594.688 0 .22-.047.422-.172.625l-.625.094v.344h.953c.094-.25.157-.58.157-.954 0-.875-.422-1.375-1.094-1.375-.282 0-.5.11-.642.28-.203.235-.297.516-.422.782-.203.406-.36.625-.672.625-.328 0-.53-.22-.53-.61 0-.187.046-.36.155-.546l.515-.062v-.36z"/></symbol><symbol overflow="visible"><path/></symbol><symbol overflow="visible" id="n"><path d="M-8.03-4.72v.657L1.983-.592v-.64z"/></symbol><symbol overflow="visible"><path/></symbol><symbol overflow="visible" id="r"><path d="M-2.328-5.156v4.53h.422v-4.53z"/></symbol><symbol overflow="visible"><path/></symbol><symbol overflow="visible" id="s"><path d="M-5.03-2.047c0 1.047.936 1.75 2.56 1.75C-.843-.297.095-1 .095-2.047c0-1.047-.938-1.75-2.563-1.75-1.624 0-2.56.703-2.56 1.75zm.343 0c0-.672.75-1.047 2.218-1.047 1.454 0 2.204.375 2.204 1.047C-.266-1.375-1.016-1-2.47-1c-1.467 0-2.217-.375-2.217-1.047z"/></symbol><symbol overflow="visible" id="t"><path d="M-.875-1.016c0 .25.22.47.484.47.265 0 .453-.22.453-.47 0-.265-.204-.468-.454-.468-.266 0-.485.203-.485.468z"/></symbol><symbol overflow="visible" id="u"><path d="M-5.03-2.28l.483 1.592h.313l-.204-1.156h3.954l.125.078.047.86H0v-2.47h-.313l-.03.798-.11.078H-5.03z"/></symbol><symbol overflow="visible" id="v"><path d="M-4.938-.75h2.422c-.015-.156-.03-.375-.03-.64 0-1.016.343-1.532 1.093-1.532.687 0 1.187.47 1.187 1.156 0 .172-.03.344-.093.5L-1-.97c-.016.08-.016.126-.016.173 0 .25.157.422.39.422.36 0 .69-.5.69-1.266C.06-2.845-.642-3.595-1.595-3.595c-.843 0-1.422.625-1.422 1.61 0 .234.047.5.125.78h-1.47v-2.17h-.577z"/></symbol><symbol overflow="visible" id="W"><path d="M-2 0h.453v-3.672H-2z"/></symbol><symbol overflow="visible" id="X"><path d="M-4.938-.516h1.235v-.36l-.672-.108V-3.25L.265-.86v-.61H.11l-4.75-2.436h-.298z"/></symbol><symbol overflow="visible" id="Y"><path d="M-.578-1.03C-1.875-2.657-2.703-3.548-3.64-3.548c-.83 0-1.39.578-1.39 1.516 0 .92.53 1.56 1.046 1.56.25 0 .406-.155.406-.405 0-.125-.03-.234-.11-.328h-.78c-.126-.22-.188-.438-.188-.656 0-.61.422-.984 1.11-.984.968 0 1.765.922 3.077 2.531H0v-3.406h-1.203v.33l.625.14z"/></symbol><symbol overflow="visible"><path/></symbol><symbol overflow="visible" id="w"><path d="M.922-4.422v3.39c0 .75.22 1.063 1.094 1.063.406 0 .89-.077 1.375-.233v-.39c-.234.062-.484.093-.718.093-.735 0-.875-.36-.875-1.156v-2.766H3.39v-.5H1.798v-1.11h-.39l-.454.97-.687.312v.328z"/></symbol><symbol overflow="visible" id="x"><path d="M1.625-7.438c-.344 0-.61.25-.61.61 0 .328.266.594.61.594.328 0 .61-.266.61-.594 0-.344-.282-.61-.61-.61zm-.047 2.33l-1.203.374v.328h.734v3.812L.92-.438l-.547.063V0h2.36v-.375L2.17-.438l-.188-.156V-5.11z"/></symbol><symbol overflow="visible" id="y"><path d="M4.78-4.453c-.25-.47-.655-.703-1.155-.703-.453 0-1 .218-1.688.625v-.58H1.53l-1.218.376v.328h.75v3.812l-.17.156-.58.063V0h2.313v-.375L2.11-.438l-.172-.156v-3.53c.453-.235.843-.345 1.203-.345.626 0 .922.345.922 1.08v2.796l-.187.156-.5.063V0H5.61v-.375l-.485-.063-.188-.156v-3.53c.454-.22.844-.345 1.188-.345.64 0 .938.345.938 1.08v2.796l-.188.156-.484.063V0h2.282v-.375l-.547-.063-.188-.156v-2.969c0-1.046-.53-1.593-1.36-1.593-.42 0-1.014.234-1.796.703z"/></symbol><symbol overflow="visible" id="z"><path d="M4.72-1.11c-.61.39-1.142.61-1.657.61C2-.5 1.296-1.297 1.296-2.656v-.11h3.406c.016-.11.016-.218.016-.328 0-1.297-.75-2.062-1.907-2.062C1.405-5.156.39-4.078.39-2.5.39-.953 1.345.094 2.735.094 3.39.094 4.078-.11 4.72-.53zm-.94-2.093H1.345c.062-.89.672-1.485 1.343-1.485.704 0 1.094.454 1.094 1.313v.172z"/></symbol><symbol overflow="visible" id="A"><path d="M4.063-7.547C2.188-7.313 1.108-5.734 1.108-3c0 2.688 1.124 4.28 2.952 4.5v-.453C2.657.813 2.017-.516 2.017-2.983c0-2.533.61-3.876 2.046-4.126z"/></symbol><symbol overflow="visible" id="B"><path d="M2.844-6.422v3.766c0 1.53-.36 2.28-1.36 2.28-.11 0-.234-.015-.375-.046l-.14-.14-.25-1.313H.124v1.75c.484.172.938.25 1.375.25 1.61 0 2.297-.906 2.297-2.813v-3.734l.172-.156.655-.063v-.423H1.97v.422l.702.062z"/></symbol><symbol overflow="visible" id="C"><path d="M2.938-7.063H.344v.422l.61.062.17.156v5.797l-.17.14-.61.047V0h2.594C4 0 4.798-.11 5.515-.656c.86-.64 1.312-1.625 1.312-2.875 0-2.204-1.39-3.533-3.89-3.533zm-.86.485h.828c1.922 0 2.86 1 2.86 3.047 0 2.03-.938 3.046-2.86 3.046h-.828z"/></symbol><symbol overflow="visible" id="D"><path d="M.328-7.547v.438c1.438.25 2.047 1.594 2.047 4.126 0 2.468-.64 3.796-2.047 4.03V1.5C2.156 1.28 3.266-.313 3.266-3c0-2.734-1.063-4.313-2.938-4.547z"/></symbol><symbol overflow="visible" id="O"><path d="M.344-7.063v.422l.61.062.17.156v5.797l-.17.14-.61.047V0h2.5v-.438L2.25-.483l-.172-.14v-2.517c.188 0 .36-.016.516-.016.953 0 1.375.28 1.656 1.14.22.672.266 1.36.766 1.797.25.204.593.298 1.062.298.234 0 .5-.03.813-.094v-.39h-.093c-.797 0-1.125-.125-1.36-.75-.187-.5-.203-1.078-.5-1.563-.203-.342-.562-.56-1.078-.702 1.14-.25 1.703-.844 1.703-1.734 0-1.297-.83-1.907-2.532-1.907zm1.734.485h.5c1.297 0 1.938.406 1.938 1.5 0 1.047-.61 1.453-1.86 1.453-.062 0-.265 0-.578-.016z"/></symbol><symbol overflow="visible" id="P"><path d="M2.984-7.14L.53-.564l-.608.125V0h2.062v-.438l-.687-.046-.11-.14.75-2.017h2.485l.75 2.015-.078.14-.64.047V0h2.374v-.438L6.203-.56l-2.516-6.58zm.172 1.11l1.078 2.905H2.11z"/></symbol><symbol overflow="visible" id="Q"><path d="M.234 2.297H2.72v-.39l-.673-.048-.188-.173v-1.75c.39.063.718.094.984.094 1.547 0 2.578-1.077 2.578-2.733 0-1.47-.86-2.453-2.016-2.453-.5 0-.984.203-1.547.625v-.58h-.39l-1.236.376v.328h.75v6.093l-.17.172-.58.046zM1.86-.61v-3.53c.406-.235.75-.36 1.11-.36.905 0 1.53.72 1.53 1.938 0 1.296-.72 2.124-1.75 2.124-.25 0-.547-.062-.89-.17z"/></symbol><symbol overflow="visible" id="R"><path d="M4.47-.438v-.546c-.44.296-.876.437-1.33.437-1.093 0-1.796-.765-1.796-2.062 0-1.328.64-2.14 1.547-2.14.188 0 .344.063.5.156v.86c.157.11.33.156.485.156.36 0 .578-.22.578-.547 0-.625-.562-1.03-1.578-1.03-1.47 0-2.484 1.06-2.484 2.624C.39-.985 1.33.077 2.75.077c.578 0 1.14-.187 1.72-.515z"/></symbol><symbol overflow="visible"><path/></symbol><symbol overflow="visible" id="E"><path d="M0-.438L-7.14-4.14v-.548L0-8.39zm-6.094-3.718L-.86-1.438v-5.437z"/></symbol><symbol overflow="visible"><path/></symbol><symbol overflow="visible" id="F"><path d="M2.28-5.03L.69-4.548v.313l1.156-.204v3.954l-.078.125-.86.047V0h2.47v-.313l-.798-.03-.078-.11V-5.03z"/></symbol><symbol overflow="visible" id="G"><path d="M3.03-2.344c-.342.172-.64.25-.936.25-.703 0-1.078-.437-1.078-1.265 0-.812.421-1.312 1.03-1.312.673 0 1.063.547 1.063 1.578 0 .235-.032.485-.08.75zM.923.376c1.828-.69 2.844-2.048 2.844-3.5 0-1.188-.625-1.892-1.657-1.892-1.063 0-1.797.72-1.797 1.735 0 .967.625 1.592 1.515 1.592.328 0 .688-.093 1.094-.296-.313.843-1.03 1.5-2.156 2.03z"/></symbol><symbol overflow="visible" id="H"><path d="M2.047-5.03C1-5.03.297-4.095.297-2.47.297-.843 1 .095 2.047.095c1.047 0 1.75-.938 1.75-2.563 0-1.624-.703-2.56-1.75-2.56zm0 .343c.672 0 1.047.75 1.047 2.218 0 1.454-.375 2.204-1.047 2.204C1.375-.266 1-1.016 1-2.47c0-1.467.375-2.217 1.047-2.217z"/></symbol><symbol overflow="visible" id="I"><path d="M1.03-.578C2.657-1.875 3.548-2.703 3.548-3.64c0-.83-.578-1.39-1.516-1.39-.92 0-1.56.53-1.56 1.046 0 .25.155.406.405.406.125 0 .234-.03.328-.11v-.78c.22-.126.438-.188.656-.188.61 0 .984.422.984 1.11 0 .968-.922 1.765-2.531 3.077V0h3.406v-1.203h-.33l-.14.625z"/></symbol><symbol overflow="visible" id="J"><path d="M2.328-2.594c.72-.203 1.094-.625 1.094-1.203 0-.734-.563-1.234-1.438-1.234-.92 0-1.562.5-1.562.983 0 .234.172.39.406.39.11 0 .203-.015.297-.093v-.688c.22-.14.438-.218.703-.218.563 0 .938.375.938.968 0 .594-.407.938-1.14.938h-.157v.438c.14-.032.264-.032.39-.032.702 0 1.077.328 1.077.922 0 .656-.484 1.156-1.156 1.156-.218 0-.42-.062-.624-.17l-.218-.627c-.08-.03-.157-.046-.22-.046-.234 0-.42.173-.42.376 0 .375.593.812 1.468.812 1.125 0 1.86-.672 1.86-1.484 0-.672-.47-1.125-1.298-1.188z"/></symbol><symbol overflow="visible" id="K"><path d="M2.703-4.984l-2.5 3.078v.484h2.36V.266h.578v-1.688h.83v-.484h-.83v-3.078zm-.14.796v2.282H.75z"/></symbol><symbol overflow="visible" id="L"><path d="M.75-4.938v2.422c.156-.015.375-.03.64-.03 1.016 0 1.532.343 1.532 1.093 0 .687-.47 1.187-1.156 1.187-.172 0-.344-.03-.5-.093L.97-1c-.08-.016-.126-.016-.173-.016-.25 0-.422.157-.422.39 0 .36.5.69 1.266.69C2.845.06 3.595-.642 3.595-1.595c0-.843-.625-1.422-1.61-1.422-.234 0-.5.047-.78.125v-1.47h2.17v-.577z"/></symbol><symbol overflow="visible" id="M"><path d="M0-2v.453h3.672V-2z"/></symbol><symbol overflow="visible" id="N"><path d="M1.016-.875c-.25 0-.47.22-.47.484 0 .265.22.453.47.453.265 0 .468-.204.468-.454 0-.266-.203-.485-.468-.485z"/></symbol><symbol overflow="visible"><path/></symbol><symbol overflow="visible" id="V"><path d="M5.156-2.328H.626v.422h4.53z"/></symbol><clipPath id="a"><path d="M291 12.492h202.8v162.2H291z"/></clipPath><clipPath id="b"><path d="M291 29h202.8v138H291z"/></clipPath><clipPath id="c"><path d="M291 194h202.8v2H291z"/></clipPath><clipPath id="d"><path d="M42 43h175v172.293H42z"/></clipPath><clipPath id="e"><path d="M30.2 13H231v202.293H30.2z"/></clipPath></defs><g><path d="M291 215.293h202.8v-202.8H291z" fill="#fff"/><g clip-path="url(#a)"><path d="M291.102 72.793h.597l.198-.102h.704l.2-.096h.5l.096-.102h.704l.2-.097H295l.102-.102h.5l.2-.102h.698l.102-.096h.7l.198-.102h.5l.2-.097h.5l.1-.102h.7l.2-.102h.5l.198-.096h.5l.102-.102h.7l.198-.097h.5l.204-.102h.5l.097-.102h.5l.198-.096h.5l.204-.102h.5l.2-.097h.5l.096-.102h.602l.102-.102H307l.102-.096h.5l.2-.102h.5l.198-.097h.5l.2-.102h.3l.2-.102h.5l.1-.096h.5l.2-.102h.398l.102-.097h.5l.2-.102h.3l.2-.102h.3l.2-.096h.5l.198-.102h.3l.2-.097h.3l.2-.102h.5l.204-.102h.296l.204-.096h.296l.204-.102h.296l.204-.097h.296l.204-.102h.5l.2-.102h.3l.2-.096h.3l.2-.102h.3l.2-.097h.3l.2-.102h.198l.102-.102H321l.2-.096h.3l.2-.102h.3l.2-.097h.3l.2-.102h.3l.2-.102h.198l.102-.096h.398l.102-.102h.398l.102-.097h.2l.198-.102h.3l.2-.102h.3l.2-.096h.204l.097-.102h.402l.097-.097h.198l.204-.102h.296l.204-.102h.097l.198-.096h.204l.2-.102h.3l.2-.097h.096l.204-.102h.296l.204-.102h.2l.096-.096h.204l.2-.102h.198l.102-.097H331l.102-.102h.2l.198-.102h.102l.2-.096H332l.102-.102h.2l.198-.097h.3l.2-.102h.2l.1-.102h.2l.2-.096h.1l.2-.102h.2l.1-.097h.2l.2-.102h.1l.2-.102h.2l.198-.096h.102l.2-.102h.198l.102-.097h.2l.198-.102.102-.102h.2l.198-.096H337l.2-.102h.198l.102-.097h.2l.198-.102h.204l.097-.102.198-.096h.204l.097-.102h.198l.204-.097h.097l.198-.102.204-.102h.097l.198-.096h.204l.2-.102.096-.097h.204l.2-.102h.096l.204-.102.2-.096h.096l.204-.102.2-.097h.096l.204-.102.2-.102h.198l.102-.096h.2l.198-.102.102-.097h.2l.198-.102.102-.102.2-.096H344l.102-.102.2-.097h.198l.102-.102.2-.102.198-.096h.2l.1-.102.2-.097h.2l.1-.102.2-.102.2-.096.1-.102h.2l.2-.097.1-.102.2-.102h.2l.198-.096.102-.102.2-.097.198-.102.102-.102h.2l.198-.096.102-.102.2-.097.198-.102.102-.102.2-.096h.198l.102-.102.2-.097.198-.102.204-.102.097-.096.198-.102.204-.097.097-.102.198-.102.204-.096.097-.102.198-.097.204-.102.097-.102.198-.096.204-.102.2-.097.096-.102.204-.102.2-.096.096-.102.204-.097.2-.102.096-.102.204-.096.2-.2.096-.1.204-.103.2-.096.198-.102.102-.097.2-.204.198-.096.102-.102.2-.097.198-.102.102-.2.2-.1.198-.098.102-.204.2-.096.198-.102.102-.2.2-.1.198-.098.5-.5.2-.102.1-.2.2-.1.2-.2.1-.097.2-.204.2-.096.1-.2.2-.203.2-.096.198-.2.102-.203.2-.096.198-.2.102-.203.2-.198.198-.097.102-.204.398-.397.102-.2.2-.198.198-.204.102-.198.398-.398.204-.2.097-.203.198-.198.204-.3.097-.2.198-.2.204-.198.097-.3.198-.2.204-.3.097-.2.198-.3.204-.2.2-.3.096-.302.204-.2.2-.3.096-.3.204-.297.2-.3.096-.302.204-.3.2-.302.096-.397.204-.3.2-.302.198-.397.102-.3.2-.4.198-.3.102-.398.2-.403.198-.398.102-.403.398-.795.102-.403.2-.398.198-.5.102-.403.2-.5.198-.397.2-.5.1-.398.4-1 .1-.403.2-.5.2-.398.1-.403.2-.295.2-.3.1-.302.2-.102h.2l.198.205.102.5.2.796.198 1.205.102 2 .2 2.796.198 3.904.102 5.597.2 7.603.198 10 .102 12.7.2 14.902.198 16.2.102 15.897.2 14 .198 11.3.204 8.4.097 5.902.198 3.8.204 2.297.097 1.205.198.398.204-.102.097-.5.198-.698.204-.898.097-1 .198-1.102.204-1.097.2-1.102.096-1.102.204-1.096.2-1.102.096-1.097.204-1 .2-1.102.096-1 .204-.898.2-1 .096-.903.204-.898.2-.903.198-.795.102-.8.398-1.603.102-.8.398-1.4.102-.698.2-.7.198-.703.102-.596.2-.602.198-.597.102-.704.2-.5.198-.596.2-.602.1-.5.2-.597.2-.5.1-.5.4-1 .1-.5.2-.5.2-.403.1-.5.2-.5.2-.398.198-.403.102-.5.398-.795.102-.403.2-.398.198-.403.102-.397.2-.398.198-.3.102-.404.2-.397.198-.3.204-.4.097-.3.198-.398.204-.3.097-.302.198-.398.204-.3.097-.302.198-.3.204-.302.097-.397.198-.3.204-.302.097-.295.198-.3.204-.2.2-.3.096-.302.204-.3.2-.302.096-.295.204-.204.2-.295.096-.3.204-.2.2-.3.096-.2.204-.3.2-.302.198-.2.102-.198.2-.3.198-.2.102-.3.2-.2.198-.3.102-.2.2-.204.198-.295.102-.204.398-.397.102-.3.597-.598.1-.204.2-.198.2-.3.1-.2.4-.398.1-.2.2-.203.2-.198.1-.2.4-.397.198-.204.102-.198.398-.398.102-.2.2-.203.198-.198.102-.097.2-.204.198-.198.102-.2.398-.397.204-.102.097-.2.402-.402.097-.198.198-.097.204-.204.097-.198.198-.2.204-.1.097-.2.198-.2.204-.1.097-.2.198-.2.204-.1.2-.2.096-.2.204-.1.2-.2.096-.2.204-.1.2-.2.096-.2.204-.1.5-.5.2-.098.198-.2.102-.203.2-.096.5-.5.198-.102.102-.2.2-.1.198-.2.102-.097.2-.204.198-.096.102-.2.2-.1.198-.2.2-.102.1-.2.2-.1.2-.098.1-.2.2-.1.5-.5.2-.103.1-.096.2-.2.2-.1.5-.5.198-.103.102-.096.2-.2.198-.1.3-.302.2-.097.102-.204.2-.096.198-.102.204-.2.097-.1.198-.098.204-.2.097-.1.198-.103.204-.198.097-.097.198-.102.204-.2.097-.1.198-.098.204-.102.097-.2.198-.1.204-.098.2-.204.096-.096.204-.102.2-.2.096-.1.204-.098.2-.102.096-.2.204-.1.2-.098.096-.2.204-.1.2-.103.198-.096.102-.2.398-.203.102-.096.2-.2.198-.1.102-.103.2-.096.3-.3.2-.103.198-.096.102-.2.398-.203.2-.096.1-.2.4-.203.1-.096.2-.2.2-.1.1-.103.2-.096.2-.102.1-.2.2-.1.2-.098.198-.102.102-.2.2-.1.198-.098.102-.102.2-.097.198-.204.102-.096.2-.102.198-.097.102-.204.2-.096.198-.102.204-.097.097-.102.198-.2.204-.1.097-.098.198-.102.204-.102.097-.198.198-.097.204-.102.097-.102.198-.096.204-.2.097-.1.198-.103.204-.096.2-.102.096-.2.204-.1.2-.098.096-.102.204-.2.2-.1.096-.098.204-.102.2-.097.096-.204.204-.096.2-.102.198-.097.3-.3.2-.103.102-.097.398-.204.102-.198.2-.097.198-.102.3-.3.2-.098.102-.102.2-.102.198-.096.3-.3.2-.103.2-.096.1-.2.4-.203.1-.096.2-.102.3-.3.2-.098.2-.102.3-.3.2-.098.198-.102.102-.2.2-.1.198-.098.3-.3.2-.103.102-.096.2-.102.198-.2.204-.1.097-.098.198-.102.204-.2.097-.1.198-.098.204-.102.097-.2.198-.1.204-.098.097-.102.198-.2.204-.1.296-.297.204-.102.2-.102.096-.096.204-.2.2-.1.096-.103.204-.198.2-.097.096-.102.204-.2.2-.1.3-.302.2-.096.198-.102.102-.2.2-.1.198-.098.102-.2.398-.203.102-.198.2-.097.198-.102.102-.2.2-.1.3-.302.2-.096.198-.2.2-.1.3-.302.2-.097.1-.204.2-.096.3-.3.2-.103.2-.198.1-.097.2-.204.2-.096.5-.5.198-.102.102-.097.2-.204.198-.096.102-.2.2-.1.698-.7.204-.102.097-.2.198-.1.204-.2.097-.097.198-.204.204-.096.097-.2.198-.203.204-.096.097-.2.198-.1.204-.2.097-.2.198-.1.204-.2.2-.2.096-.1.204-.2.2-.2.096-.1.204-.2.2-.2.096-.1.204-.2.2-.2.096-.203.204-.096.2-.2.198-.203.102-.198.2-.2.198-.1.102-.2.398-.398.102-.2.2-.203.198-.096.102-.2.2-.203.198-.198.102-.2.398-.397.2-.204.1-.198.4-.398.1-.2.2-.203.2-.198.1-.2.4-.397.1-.3.2-.2.2-.204.198-.198.102-.2.2-.198.198-.3.102-.2.2-.2.198-.3.102-.2.2-.203.198-.295.102-.204.2-.198.198-.3.204-.2.097-.3.198-.2.204-.3.097-.2.198-.3.204-.297.097-.204.198-.295.204-.3.097-.2.198-.3.204-.302.097-.3.198-.302.204-.295.2-.204.096-.295.204-.3.2-.404.096-.295.204-.3.2-.302.096-.3.204-.302.2-.397.096-.3.204-.302.2-.397.198-.3.102-.4.2-.402.198-.295.102-.403.2-.398.198-.403.102-.397.2-.3.198-.5.102-.4.2-.402.198-.397.102-.398.2-.5.198-.403.2-.5.1-.5.2-.398.2-.5.1-.5.4-1 .1-.602.2-.5.2-.597.1-.5.4-1.204.198-.596.102-.602.2-.7.198-.6.102-.7.2-.597.198-.704.102-.698.2-.8.198-.7.102-.7.398-1.6.204-.797.097-.8.198-.802.204-.8.097-.802.198-.698.204-.7.097-.698.198-.602.204-.398.097-.2.198.098.204.5.097 1.102.198 1.898.204 3.3.2 5 .096 7.603.204 10.898.2 14.8.096 18.598.204 21.103.2 20.7.096 17.698.204 13.404.2 9.097.096 5.5.204 2.904.2 1.2h.198l.102-.802.2-1.2.198-1.6.102-1.7.2-1.8.198-1.797.102-1.903.2-1.8.198-1.797.102-1.704.2-1.795.198-1.602.102-1.602.2-1.596.397-3 .1-1.403.2-1.397.2-1.3.1-1.4.2-1.198.2-1.3.1-1.2.2-1.102.2-1.2.1-1.1.2-1.098.398-2 .102-1.102.2-.898.198-1 .102-1 .2-.903.198-.898.102-.903.2-.795.198-.903.102-.8.2-.9.198-.8.204-.8.097-.797.198-.704.204-.795.097-.704.198-.795.204-.704.097-.698.198-.7.204-.698.097-.7.198-.703.204-.698.097-.7.198-.6.204-.7.2-.597.096-.704.204-.596.2-.602.096-.597.204-.602.2-.7.096-.6.204-.598.2-.5.096-.602.204-.602.2-.596.198-.602.102-.5.2-.597.198-.602.102-.5.2-.602.198-.596.102-.5.2-.602.198-.5.102-.5.2-.597.198-.5.2-.602.1-.5.2-.5.2-.602.1-.5.4-1 .1-.596.4-1 .1-.5.2-.5.2-.602.1-.5.598-1.5.102-.597.398-1 .102-.5.398-1 .102-.602.398-1 .102-.5.398-1 .204-.602.097-.5.198-.5.204-.5.097-.596.198-.5.204-.5.097-.5.198-.602.204-.5.097-.5.198-.597.204-.5.097-.602.198-.5.204-.602.2-.5.096-.596.204-.5.2-.602.096-.5.204-.597.2-.602.096-.602.204-.5.2-.596.096-.602.204-.597.398-1.204.102-.596.2-.602.198-.597.102-.704.2-.596.198-.602.102-.7.2-.6.198-.7.102-.597.2-.704.397-1.397.1-.7.2-.698.2-.704.1-.698.2-.8.2-.7.1-.8.2-.797.2-.704.1-.795.2-.903.2-.8.1-.797.2-.903.2-.898.198-.8.102-1 .2-.9.198-.902.102-1 .398-2 .102-1 .2-1.097.198-1.102.102-1.102.2-1.096.198-1.2.204-1.203.097-1.198.198-1.3.204-1.2.097-1.3.198-1.4.204-1.3.097-1.398.198-1.3.204-1.4.097-1.3.198-1.3.204-1.2.097-1 .198-.7.204-.3.2.3.096 1.297.204 2.802.2 5.2.096 8.703.204 13.597.2 19.7.096 25.3.204 27.7.2 25.203.096 18.898.204 12.102.2 6.5.198 2.7.102.198.2-1.3.198-2.098.102-2.602.2-2.898.198-3 .102-3 .398-6 .102-2.8.2-2.802.198-2.7.2-2.6.1-2.598.2-2.403.2-2.398.1-2.3.4-4.4.1-2.1.2-2.103.2-2 .1-2 .2-1.897.2-1.8.1-1.9.2-1.8.2-1.7.198-1.8.102-1.602.398-3.397.102-1.602.2-1.596.198-1.5.102-1.602.398-3 .102-1.5.398-3 .204-1.5.097-1.398.198-1.5.204-1.403.097-1.5.198-1.397.204-1.398.097-1.403.198-1.5.204-1.398.097-1.403.198-1.397.204-1.398.097-1.403.198-1.5.204-1.398.2-1.403.096-1.5.204-1.397.2-1.5.096-1.398.204-1.5.2-1.5.096-1.5.204-1.5.2-1.602.096-1.5.204-1.602.2-1.596.198-1.602.102-1.597.2-1.704.198-1.596.102-1.7.398-3.6.102-1.802.2-1.8.198-1.9.102-2 .2-1.897.198-2.102.2-2 .1-2.102.4-4.397.1-2.3.2-2.302.2-2.295.1-2.403.2-2.3.2-2.297.1-2.102.2-2 .2-1.5.1-.8.2.402.2 2.398.198 5.7.102 11 .2 18.902.198 28.398.102 35.602.2 34.7.198 26.198.102 15.3.2 6.802.198 1.296.102-1.897.2-3.5.198-4.5.204-4.8.097-4.9.198-5 .204-4.902.097-4.698.198-4.597.204-4.5.097-4.3.198-4.2.204-4.102.097-3.898.198-3.903.204-3.7.097-3.698.198-3.602.204-3.5.2-3.398.096-3.403.204-3.397.2-3.3.096-3.2.204-3.3.2-3.2.096-3.2.204-3.198.2-3.204.096-3.198.204-3.2.2-3.198.198-3.3.102-3.2.2-3.3.198-3.4.102-3.3.2-3.403.198-3.5.102-3.5.2-3.596.198-3.7.102-3.703.2-3.795.198-3.903.2-4 .1-4 .2-4 .2-4.097.1-3.903.2-3.7.2-3.1.1-2.2.2-.2.2 3.302.1 9.5.2 20.097.2 34.904.1 46.898.2 44.8.2 29.5.198 13.2.102 2.3.2-3.6.198-6.4.102-7.698.2-8.2.198-8.203.102-8.096.2-8 .198-7.7.102-7.5.2-7.203.198-7.096.204-7 .097-6.7.198-6.703.204-6.596.097-6.5.198-6.602.204-6.398.097-6.602.198-6.5.204-6.597.097-6.602.198-6.7.204-6.902.097-6.897.198-7 .204-7.102.2-7 .096-6.795.204-6.3.2-5.103.096-2.3.204 3.1.2 14.103.096 33.796.204 57.404.2 62.7.096 40 .204 13.5.2-2.5.198-9.802.102-12.7.2-13.698.198-13.903.102-13.596.2-13.3.198-13 .102-12.802.2-12.5.198-12.398.102-12.403.2-12.295.198-12.403.2-12.5.1-12.5.2-12.398.2-11.903.1-10.698.2-7.3.2.5.1 18.703.2 53.796.2 86.103.1 67 .2 20.5.2-7.898.1-19.204.2-22.897.2-23.602.198-23.397.102-23.102.2-22.795.198-22.5.102-22.5.2-22.102.198-21.2.102-18.6.2-10.5.198 12.198.102 66.205.2 119 .198 70.597.204-1.2.097-31.1.198-39.297.204-40.8.097-40.7.198-40 .204-38.602" fill="none" stroke-width="1.5" stroke-linecap="round" stroke-linejoin="round" stroke="rgb(82.798767%,82.798767%,82.798767%)" stroke-miterlimit="2"/></g><g clip-path="url(#b)"><path d="M-747.8 93.19h5.198l5.102-.096 10.2-.102 20.5-.2 44.402-.397 41.5-.403 40.597-.398 44.1-.403 41.2-.397 44.602-.5 43.7-.398 40.897-.403 44.3-.5 41.3-.5 40.5-.5 44-.597 41-.5 44.5-.704 43.7-.698 40.7-.7 44.198-.8 41.204-.898H61l1.398-.102h2.8l5.603-.2 11.098-.198 22.403-.602h.598l.704-.097H107l2.7-.102 5.5-.102 11-.295 21.902-.704h.7l.596-.096h1.3l2.5-.102 5.103-.2 10.302-.3.597-.097h1.902l2.597-.102 5.1-.2 10.2-.402.7-.096h2.1l2.802-.2 5.5-.203 11.097-.5h.698l.704-.096H214l2.8-.2 5.5-.3 11.098-.602h1.3l1.302-.097 2.602-.204 5.097-.295 10.402-.704h1.296l1.3-.096 2.603-.2 5.098-.402 10.403-.898h.598l.704-.102 1.2-.097 2.596-.204 5.102-.5.602-.096h.597l1.3-.102 2.5-.3 5.102-.598h.597l.698-.102 1.204-.2 2.597-.3 5.1-.597.598-.102.602-.102 1.3-.198 2.5-.398 5.098-.8.704-.103.7-.096 1.397-.2 2.698-.5.704-.203.7-.096 1.397-.3 2.698-.5.704-.2.7-.102 1.397-.3 2.698-.7.704-.2.7-.198 1.397-.3 2.698-.802.704-.2.7-.198 1.397-.5 2.698-1 .704-.2.7-.3 1.397-.5 2.698-1.2.704-.402.7-.3 1.397-.7.698-.398.704-.403 1.296-.897.704-.398 2.097-1.5.698-.602.704-.5 1.398-1.3.602-.598.597-.704.698-.698.602-.8.7-.797.6-.8 1.302-1.904.597-1.096.698-1.2 1.3-2.6.603-1.5.598-1.7 1.3-3.8.7-2L371 30.99l.7-.597.6 3.398.598 17.898.704 48.705.597 47.2.698 16.096.602 2.404.7-1.602.6-2.597.598-2.8.704-2.603.597-2.5 1.3-4.5.602-1.898.7-1.903.596-1.596.704-1.602.597-1.5.698-1.398 1.204-2.5.7-1.102.596-1.097 1.3-2.102.7-.898.602-.903 1.3-1.7.598-.8.704-.8 1.2-1.5 2.596-2.7.704-.597.597-.602 1.3-1.2 2.602-2.198.7-.5.596-.602 1.403-1 2.802-2 5.597-3.602.698-.397.704-.398 1.398-.8 2.8-1.603 5.5-2.898.7-.403.7-.295 1.402-.704 2.796-1.397L434 99.69l11.102-4.897 1.398-.602 1.3-.596 2.802-1.102 5.398-2.3 11-4.7.7-.3.6-.297 1.4-.602 2.698-1.2 5.5-2.5.704-.3.7-.3 1.3-.7 2.796-1.398 5.403-2.903.7-.398.602-.403 1.296-.698 2.5-1.597.704-.403.597-.398 1.3-.903 2.5-1.698.7-.5.6-.5 1.302-1 2.5-2 .7-.597.596-.5 1.3-1.204 3.2-3.198.602-.597 1.3-1.5 2.5-3 .7-.903.602-.8 1.296-1.797 2.5-3.903.704-1 .597-1.097 1.3-2.102.602-1 .7-1 .596-.898.602-.704.7-.5.6-.096.7.398.602 1.2.597 2.402.698 4.2.602 6.3.602 8.8.7 12.2.698 14.2.7 14.397.698 12.802.704 10.2.7 7.5.698 5.203.7 3.5.698 2.2.602 1.3.7.597.698.102.704-.2.7-.5.698-.6 1.398-1.603.704-.897 1.398-1.898 2.7-3.903 5.6-7.3.598-.9.704-.897 1.398-1.602 2.8-3.2 5.5-5.902 1.4-1.397 1.402-1.398 2.7-2.704 5.596-5 .602-.596.7-.5 1.3-1.2 2.5-2.203 5.2-4.295 10.3-8.403.7-.5.6-.5 1.302-1 2.597-2.097 5.1-4.204 10.4-9 .6-.596.598-.602 1.3-1.2 2.5-2.5 5.103-5.3.598-.7.704-.698 1.2-1.403 2.596-2.795.602-.704.602-.795 1.296-1.403 2.5-2.7.602-.698.7-.602.6-.597.598-.5.704-.5.597-.403.6-.398.7-.2.602-.203h.597l.698.205.602.296.602.603.7.8.596 1.2.602 1.5.7 1.898.6 2.302.598 2.8.704 3.2.597 3.8.6 4.302.7 4.7.602 5.1.597 5.4.698 5.5 1.204 11.198.7 5.3.596 5 .602 4.603.7 4.097.6 4 .7 3.5.7 3 .698 2.5.704 2 .7 1.7.698 1.3.602 1 .7.8.698.5.7.302.698.097h.704l.7-.198.698-.3.602-.297 1.398-1 1.398-1.204.704-.698.7-.7 1.3-1.6.7-.797.698-.8 1.398-1.7 2.704-3.5.7-.903.698-.898 1.398-1.903 2.704-3.596 5.5-7.3 11-14.103.597-.795.698-.8 1.204-1.603 2.597-3.097 5.1-6.3 10.302-12.302.597-.8.698-.802 1.204-1.5 2.597-3 5.1-6 .7-.795.602-.704 1.296-1.397.602-.7.7-.698 1.198-1.403.704-.597.597-.602 1.3-1.2.7-.6.6-.5.598-.5.704-.4.7-.5.698-.402.7-.295.6-.3.7-.2.7-.102h1.402l.7.2.698.3.7.398.698.5.704.705.7.898.698 1 .7 1.2.698 1.402.704 1.597.7 1.7.698 2 .7 2.203.6 2.398 1.4 5.398.698 2.904.704 3.097L760 84.396l2.8 13.898.7 3.398.7 3.404 1.402 6.398.7 3 .698 2.8 1.3 5.103.7 2.296.7 2 .698 1.904.704 1.7.7 1.5.698 1.397.7 1.103.698 1 .704.8.7.7.698.5.7.398.698.302.704.102.7.097.596-.096.704-.2.7-.203 1.397-.795.698-.5.704-.5.7-.602 1.397-1.398.6-.704 1.302-1.596 2.597-3.403.6-1 .7-.897 1.3-2 2.598-4.2.602-1.1.7-1.098 1.3-2.204 2.602-4.5 5.097-9.295.698-1.204.602-1.198 1.3-2.3 2.598-4.7 5.204-9 .7-1.097.596-1.102 1.3-2.2 2.603-4.198 5.2-7.903.602-1 .7-.898 1.198-1.7.7-.902.6-.8 1.302-1.598.597-.7.6-.8 1.302-1.403.7-.596.596-.602 1.3-1.2.603-.5.598-.5.704-.397.597-.403.6-.3.7-.297.602-.3.597-.2.698-.102.602-.102h1.3l.598.103.704.2.597.198.6.404.7.3.602.5.597.5.698.598.602.7.602.8.7.8.596 1 .704 1 .597 1.103.6 1.2.7 1.198.602 1.398.597 1.404 1.3 3.097.602 1.705.7 1.7 1.198 3.698 2.602 8 5.097 17.602.698 2.296.602 2.404 1.398 4.5.704 2.2.7 2.198 2.096 6 .704 1.8.7 1.7.596 1.7.704 1.5.7 1.5 1.397 2.6.698 1.103.704 1 .7.898.698.8.602.7.7.602.698.5.7.398.698.3.704.098.7.103h.698l.7-.2.6-.198.7-.3.7-.404.698-.397.704-.602.7-.596.698-.7.7-.8.698-.903 1.3-1.897.7-1 .704-1.102 1.398-2.397 2.8-5.3.598-1.4.704-1.402 1.398-3.096 2.8-6.3 5.5-13.4.598-1.6.704-1.603 1.296-3.096 2.5-6.3.704-1.5.597-1.5 1.3-3 2.602-5.7.597-1.3.698-1.302 1.3-2.597.603-1.204.598-1.198 1.3-2.3.7-1 .602-1 .7-1 .6-.9.598-.897.704-.8 1.296-1.5.602-.7.7-.602.6-.5.7-.5.602-.398.597-.3.698-.302.602-.2.7-.1h1.3l.602.1.597.2.698.3.602.302.7.398.6.5.7.602.602.7.597.698.698.898.602.904 1.3 2 .7 1.2.602 1.198 1.296 2.7.602 1.5.7 1.5 1.3 3.203 1.398 3.796 1.403 4.103 2.7 8.602.7 2.296.698 2.302 1.403 4.602 2.802 9.2L965 108.69l1.398 4.302.704 2.102.7 2 1.397 3.8.698 1.797.704 1.802.7 1.602 1.397 3 .698 1.398.704 1.2.7 1.203.698 1.097.7.903.698.796.704.802.7.602.698.5.7.398.698.2.704.203.7.097.596-.097.704-.204.7-.295.698-.403.7-.5.698-.597.704-.704.7-.795.698-.903.7-1 .698-1.097.704-1.102 1.398-2.602.7-1.397.698-1.5 1.403-3.2 2.802-7.1.7-1.9.698-1.902 1.3-3.897 2.802-8.102.7-2.096.596-2.102 1.403-4.2 2.7-8.198.7-2.102.698-2 1.403-3.898.7-1.8.7-1.9 1.3-3.6.7-1.7.698-1.602 1.403-3.097.598-1.403.704-1.398 1.398-2.5.7-1.102.698-1.097.602-.903.7-.898 1.402-1.403 1.398-1 .7-.295.6-.204.7-.096h.7l.698.097.704.205.7.398.596.398.704.603.7.7.698.8 1.398 2 .704 1.2.597 1.198.698 1.404.704 1.5.7 1.597 1.397 3.5.6 1.802.7 2 1.398 4.102.602 2.097.7 2.103 1.3 4.3 2.5 9.098.602 2.302.7 2.403 1.3 4.597 2.5 9.2.7 2.203.596 2.2 1.3 4.198.603 2 .598 2 1.3 3.7.7 1.698 1.204 3.205.7 1.398.596 1.398.704 1.205.597 1.2.6 1 .7 1 .602.8.597.7.698.596.602.5.7.302.6.2.598.203h.704l.597-.204.698-.198.602-.3.602-.5.7-.598.596-.7.704-.8.597-.903.6-1 .7-1.096.602-1.3.597-1.302.698-1.398 1.3-3.102.603-1.597.598-1.8 1.3-3.7 2.603-8.204.7-2.295.7-2.403 1.3-4.898 2.8-10 .7-2.602.7-2.5 1.402-4.898 2.7-9.602 1.397-4.398 1.402-4.102.7-2 .698-1.8 1.398-3.4.704-1.5.7-1.397.698-1.3.7-1.2.6-1 .7-.903.7-.8.698-.598.704-.5.7-.3.698-.103.7-.096.698.2.704.3.7.5.698.597.7.802.6.903.7 1.097.7 1.2.698 1.402.704 1.5.7 1.7.698 1.8.7 1.898.698 2.102 1.403 4.398.7 2.403.7 2.5 1.3 5.2.7 2.698.698 2.8 1.403 5.7 2.802 11.602.597 2.7.698 2.596 1.3 5.205.603 2.597.7 2.403 1.3 4.796.598 2.205.602 2.097.7 2.102.6 1.898.7 1.903.602 1.7.7 1.5.596 1.5.704 1.3.597 1.2.698 1 .602.897 1.3 1.3.598.4.704.3.597.102.698-.102.602-.2.7-.3.6-.597.7-.602.602-.898.7-.903.596-1.2.704-1.198.597-1.403.698-1.596.602-1.602.602-1.8 1.296-3.9.704-2.198.597-2.2 1.3-4.703 2.602-10.295.7-2.704.596-2.698 1.3-5.597 2.603-11.102.598-2.8.704-2.7 1.296-5.2 2.602-9.698.602-2.204.597-2 .698-2 .602-1.795.602-1.704.7-1.596.596-1.403.602-1.295.7-1.102.6-1 .598-.898.704-.704.597-.5.6-.295.7-.204h.602l.597.205.698.296.602.5.602.705.7.898.596 1 .602 1.2.7 1.402.6 1.5.598 1.7.704 1.8.597 2 .6 2.097.7 2.2 1.2 4.902.698 2.597.602 2.705 1.3 5.597 2.5 11.903.598 3.097.704 3.102 1.2 6.097 2.596 11.802.602 2.8.602 2.7 1.296 5.102.602 2.398.7 2.2 1.198 4.1.704 1.802.597 1.7.6 1.5.7 1.3.602 1.097.597.904.698.8.602.5.7.4.698.198.704-.097.7-.3.596-.603.704-.8.7-1 .698-1.2.7-1.5.698-1.597.704-1.903.7-2.097.596-2.204.704-2.5 1.398-5.295.7-2.903.698-3 1.403-6.398 2.7-13.602.7-3.5.698-3.597 1.403-6.903 2.7-13.3.7-3.098.698-2.903.704-2.795.7-2.602.596-2.5.704-2.3.7-2.098.698-1.8.7-1.7.698-1.403.704-1.2.7-.897.596-.704.704-.397.7-.102.698.103.7.398.698.705.704.898.7 1.2.596 1.5.704 1.698.7 2 .698 2.205.7 2.398.698 2.602 1.403 5.898.598 3.2.704 3.402 1.398 7.097.7 3.403.6 3.597 1.302 7.2 2.5 14.402.7 3.5.596 3.398 1.3 6.602.7 3 .602 3 1.3 5.398.598 2.403.704 2.296.597 2 .6 1.705.7 1.597.602 1.3.7 1.103.596.7.602.596.7.302h.6l.7-.3.602-.598.7-.8.596-1 .602-1.4.7-1.5.6-1.902.7-2 .602-2.3.597-2.5.698-2.7 1.3-6 .603-3.2.7-3.397 1.2-7.102 2.6-15.2.598-3.902.704-3.795 1.296-7.602.602-3.7.7-3.6 1.198-6.802.704-3.198.597-3 .698-2.898.602-2.602.602-2.398.7-2.102.596-1.898.704-1.7.7-1.5.698-1.1.7-.802.698-.398h.8l.7.398.704.8.7 1.2.698 1.5.7 1.903.698 2.296.8 2.603.7 2.898.704 3.302 1.398 7.3.7 4 .8 4.2 1.398 9 2.903 18.8.7 4.603.7 4.7 1.402 8.8.7 4.097.8 3.903.7 3.7.698 3.3.7 3.097.698 2.7.704 2.3.796 2 .704 1.5.7 1.2.698.703.7.2.698-.2.704-.602.796-1.102.704-1.5.7-1.897.698-2.398.7-2.704.698-3.096.8-3.5.7-3.8 1.403-8.4.7-4.6.7-4.7 1.5-9.903.698-5.096.704-5.102 1.398-10 .8-4.898.7-4.7.7-4.6.698-4.302" fill="none" stroke-width="1.5" stroke-linecap="round" stroke-linejoin="round" stroke="rgb(9.799194%,9.799194%,43.998718%)" stroke-miterlimit="2"/></g><path d="M335.898 64.793v2.8M332.3 64.793h7.2M332.3 67.594h7.2" fill="none" stroke-width="1" stroke-linecap="round" stroke-linejoin="round" stroke="rgb(71.998596%,52.49939%,4.399109%)" stroke-miterlimit="2"/><path d="M335.898 64.793v2.8M334.102 64.793h3.597M334.102 67.594h3.597" fill="none" stroke-width="1" stroke-linecap="round" stroke-linejoin="round" stroke="rgb(69.799805%,13.198853%,13.198853%)" stroke-miterlimit="2"/><path d="M340.102 63.69v1.603M336.5 63.69h7.2M336.5 65.293h7.2" fill="none" stroke-width="1" stroke-linecap="round" stroke-linejoin="round" stroke="rgb(71.998596%,52.49939%,4.399109%)" stroke-miterlimit="2"/><path d="M340.102 63.69v1.603M338.3 63.69h3.598M338.3 65.293h3.598" fill="none" stroke-width="1" stroke-linecap="round" stroke-linejoin="round" stroke="rgb(69.799805%,13.198853%,13.198853%)" stroke-miterlimit="2"/><path d="M342.398 64.293v2.7M338.8 64.293h7.2M338.8 66.992h7.2" fill="none" stroke-width="1" stroke-linecap="round" stroke-linejoin="round" stroke="rgb(71.998596%,52.49939%,4.399109%)" stroke-miterlimit="2"/><path d="M342.398 64.293v2.7M340.602 64.293h3.597M340.602 66.992h3.597" fill="none" stroke-width="1" stroke-linecap="round" stroke-linejoin="round" stroke="rgb(69.799805%,13.198853%,13.198853%)" stroke-miterlimit="2"/><path d="M352.7 58.293v1.102M349.102 58.293h7.2M349.102 59.395h7.2" fill="none" stroke-width="1" stroke-linecap="round" stroke-linejoin="round" stroke="rgb(71.998596%,52.49939%,4.399109%)" stroke-miterlimit="2"/><path d="M352.7 58.293v1.102M350.898 58.293h3.602M350.898 59.395h3.602" fill="none" stroke-width="1" stroke-linecap="round" stroke-linejoin="round" stroke="rgb(69.799805%,13.198853%,13.198853%)" stroke-miterlimit="2"/><path d="M356.5 53.895v1.7M352.898 53.895h7.204M352.898 55.594h7.204" fill="none" stroke-width="1" stroke-linecap="round" stroke-linejoin="round" stroke="rgb(71.998596%,52.49939%,4.399109%)" stroke-miterlimit="2"/><path d="M356.5 53.895v1.7M354.7 53.895h3.6M354.7 55.594h3.6" fill="none" stroke-width="1" stroke-linecap="round" stroke-linejoin="round" stroke="rgb(69.799805%,13.198853%,13.198853%)" stroke-miterlimit="2"/><path d="M359.8 50.793v1.398M356.2 50.793h7.198M356.2 52.19h7.198" fill="none" stroke-width="1" stroke-linecap="round" stroke-linejoin="round" stroke="rgb(71.998596%,52.49939%,4.399109%)" stroke-miterlimit="2"/><path d="M359.8 50.793v1.398M358 50.793h3.602M358 52.19h3.602" fill="none" stroke-width="1" stroke-linecap="round" stroke-linejoin="round" stroke="rgb(69.799805%,13.198853%,13.198853%)" stroke-miterlimit="2"/><path d="M363.102 45.094v3.398M359.5 45.094h7.2M359.5 48.492h7.2" fill="none" stroke-width="1" stroke-linecap="round" stroke-linejoin="round" stroke="rgb(71.998596%,52.49939%,4.399109%)" stroke-miterlimit="2"/><path d="M363.102 45.094v3.398M361.3 45.094h3.598M361.3 48.492h3.598" fill="none" stroke-width="1" stroke-linecap="round" stroke-linejoin="round" stroke="rgb(69.799805%,13.198853%,13.198853%)" stroke-miterlimit="2"/><path d="M363.898 46.594v3.3M360.3 46.594h7.2M360.3 49.895h7.2" fill="none" stroke-width="1" stroke-linecap="round" stroke-linejoin="round" stroke="rgb(71.998596%,52.49939%,4.399109%)" stroke-miterlimit="2"/><path d="M363.898 46.594v3.3M362.102 46.594h3.597M362.102 49.895h3.597" fill="none" stroke-width="1" stroke-linecap="round" stroke-linejoin="round" stroke="rgb(69.799805%,13.198853%,13.198853%)" stroke-miterlimit="2"/><path d="M366.102 38.69v2.802M362.5 38.69h7.2M362.5 41.492h7.2" fill="none" stroke-width="1" stroke-linecap="round" stroke-linejoin="round" stroke="rgb(71.998596%,52.49939%,4.399109%)" stroke-miterlimit="2"/><path d="M366.102 38.69v2.802M364.3 38.69h3.598M364.3 41.492h3.598" fill="none" stroke-width="1" stroke-linecap="round" stroke-linejoin="round" stroke="rgb(69.799805%,13.198853%,13.198853%)" stroke-miterlimit="2"/><path d="M366.602 38.793v2.8M363 38.793h7.2M363 41.594h7.2" fill="none" stroke-width="1" stroke-linecap="round" stroke-linejoin="round" stroke="rgb(71.998596%,52.49939%,4.399109%)" stroke-miterlimit="2"/><path d="M366.602 38.793v2.8M364.8 38.793h3.598M364.8 41.594h3.598" fill="none" stroke-width="1" stroke-linecap="round" stroke-linejoin="round" stroke="rgb(69.799805%,13.198853%,13.198853%)" stroke-miterlimit="2"/><path d="M367 36.094v2.7M363.398 36.094h7.204M363.398 38.793h7.204" fill="none" stroke-width="1" stroke-linecap="round" stroke-linejoin="round" stroke="rgb(71.998596%,52.49939%,4.399109%)" stroke-miterlimit="2"/><path d="M367 36.094v2.7M365.2 36.094h3.6M365.2 38.793h3.6" fill="none" stroke-width="1" stroke-linecap="round" stroke-linejoin="round" stroke="rgb(69.799805%,13.198853%,13.198853%)" stroke-miterlimit="2"/><path d="M367.7 35.594v2.8M364.102 35.594h7.2M364.102 38.395h7.2" fill="none" stroke-width="1" stroke-linecap="round" stroke-linejoin="round" stroke="rgb(71.998596%,52.49939%,4.399109%)" stroke-miterlimit="2"/><path d="M367.7 35.594v2.8M365.898 35.594h3.602M365.898 38.395h3.602" fill="none" stroke-width="1" stroke-linecap="round" stroke-linejoin="round" stroke="rgb(69.799805%,13.198853%,13.198853%)" stroke-miterlimit="2"/><path d="M369.602 31.895v2.796M366 31.895h7.2M366 34.69h7.2" fill="none" stroke-width="1" stroke-linecap="round" stroke-linejoin="round" stroke="rgb(71.998596%,52.49939%,4.399109%)" stroke-miterlimit="2"/><path d="M369.602 31.895v2.796M367.8 31.895h3.598M367.8 34.69h3.598" fill="none" stroke-width="1" stroke-linecap="round" stroke-linejoin="round" stroke="rgb(69.799805%,13.198853%,13.198853%)" stroke-miterlimit="2"/><path d="M382.2 146.395v7.898M378.602 146.395h7.2M378.602 154.293h7.2" fill="none" stroke-width="1" stroke-linecap="round" stroke-linejoin="round" stroke="rgb(39.199829%,58.499146%,92.999268%)" stroke-miterlimit="2"/><path d="M382.2 146.395v7.898M380.398 146.395H384M380.398 154.293H384" fill="none" stroke-width="1" stroke-linecap="round" stroke-linejoin="round" stroke="rgb(0%,19.999695%,79.998779%)" stroke-miterlimit="2"/><path d="M388 133.69v7.904M384.398 133.69h7.204M384.398 141.594h7.204" fill="none" stroke-width="1" stroke-linecap="round" stroke-linejoin="round" stroke="rgb(39.199829%,58.499146%,92.999268%)" stroke-miterlimit="2"/><path d="M388 133.69v7.904M386.2 133.69h3.6M386.2 141.594h3.6" fill="none" stroke-width="1" stroke-linecap="round" stroke-linejoin="round" stroke="rgb(0%,19.999695%,79.998779%)" stroke-miterlimit="2"/><path d="M394.898 120.992v7.903M391.3 120.992h7.2M391.3 128.895h7.2" fill="none" stroke-width="1" stroke-linecap="round" stroke-linejoin="round" stroke="rgb(39.199829%,58.499146%,92.999268%)" stroke-miterlimit="2"/><path d="M394.898 120.992v7.903M393.102 120.992h3.597M393.102 128.895h3.597" fill="none" stroke-width="1" stroke-linecap="round" stroke-linejoin="round" stroke="rgb(0%,19.999695%,79.998779%)" stroke-miterlimit="2"/><path d="M291 174.69h202.8" fill="none" stroke-width=".7000000000000001.5" stroke-linecap="square" stroke-linejoin="round" stroke="#000" stroke-miterlimit="2"/><path d="M291 167.492v7.2m33.8-7.2v7.2m33.802-7.2v7.2m33.796-7.2v7.2m33.8-7.2v7.2m33.802-7.2v7.2m33.8-7.2v7.2" fill="none" stroke-width=".9" stroke-linejoin="round" stroke="#000" stroke-miterlimit="2"/><path d="M299.5 171.094v3.597m8.398-3.596v3.597m8.5-3.596v3.597m16.903-3.596v3.597m8.4-3.596v3.597m8.5-3.596v3.597m16.902-3.596v3.597m8.398-3.596v3.597m8.5-3.596v3.597m16.898-3.596v3.597m8.403-3.596v3.597m8.5-3.596v3.597m16.9-3.596v3.597m8.402-3.596v3.597m8.5-3.596v3.597m16.898-3.596v3.597m8.398-3.596v3.597m8.5-3.596v3.597" fill="none" stroke-width=".7000000000000001" stroke-linejoin="round" stroke="#000" stroke-miterlimit="2"/><path d="M291 174.69V12.493" fill="none" stroke-width=".7000000000000001.5" stroke-linecap="square" stroke-linejoin="round" stroke="#000" stroke-miterlimit="2"/><path d="M298.2 134.094H291m7.2-40.5H291m7.2-40.602H291" fill="none" stroke-width=".9" stroke-linejoin="round" stroke="#000" stroke-miterlimit="2"/><path d="M294.602 164.594H291m3.602-10.2H291m3.602-10.1H291m3.602-20.302H291m3.602-10.097H291m3.602-10.204H291m3.602-20.295H291m3.602-10.102H291m3.602-10.102H291m3.602-20.295H291m3.602-10.102H291m3.602-10.2H291" fill="none" stroke-width=".7000000000000001" stroke-linejoin="round" stroke="#000" stroke-miterlimit="2"/><path d="M291 12.492h202.8" fill="none" stroke-width=".7000000000000001.5" stroke-linecap="square" stroke-linejoin="round" stroke="#000" stroke-miterlimit="2"/><path d="M291 19.69v-7.198m33.8 7.2v-7.2m33.802 7.2v-7.2m33.796 7.2v-7.2m33.8 7.2v-7.2m33.802 7.2v-7.2m33.8 7.2v-7.2" fill="none" stroke-width=".9" stroke-linejoin="round" stroke="#000" stroke-miterlimit="2"/><path d="M299.5 16.094v-3.602m8.398 3.602v-3.602m8.5 3.602v-3.602m16.903 3.602v-3.602m8.4 3.602v-3.602m8.5 3.602v-3.602m16.902 3.602v-3.602m8.398 3.602v-3.602m8.5 3.602v-3.602m16.898 3.602v-3.602m8.403 3.602v-3.602m8.5 3.602v-3.602m16.9 3.602v-3.602m8.402 3.602v-3.602m8.5 3.602v-3.602m16.898 3.602v-3.602m8.398 3.602v-3.602m8.5 3.602v-3.602" fill="none" stroke-width=".7000000000000001" stroke-linejoin="round" stroke="#000" stroke-miterlimit="2"/><path d="M493.8 174.69V12.493" fill="none" stroke-width=".7000000000000001.5" stroke-linecap="square" stroke-linejoin="round" stroke="#000" stroke-miterlimit="2"/><path d="M486.602 134.094h7.2m-7.2-40.5h7.2m-7.2-40.602h7.2" fill="none" stroke-width=".9" stroke-linejoin="round" stroke="#000" stroke-miterlimit="2"/><path d="M490.2 164.594h3.6m-3.6-10.2h3.6m-3.6-10.1h3.6m-3.6-20.302h3.6m-3.6-10.097h3.6m-3.6-10.204h3.6m-3.6-20.295h3.6m-3.6-10.102h3.6m-3.6-10.102h3.6m-3.6-20.295h3.6m-3.6-10.102h3.6m-3.6-10.2h3.6" fill="none" stroke-width=".7000000000000001" stroke-linejoin="round" stroke="#000" stroke-miterlimit="2"/><g clip-path="url(#c)"><path d="M291 194.992h202.8" fill="none" stroke-width="1.5" stroke-linecap="round" stroke-linejoin="round" stroke="#000" stroke-miterlimit="2"/></g><path d="M335.898 193.895v4.097M332.3 193.895h7.2M332.3 197.992h7.2" fill="none" stroke-width="1" stroke-linecap="round" stroke-linejoin="round" stroke="rgb(71.998596%,52.49939%,4.399109%)" stroke-miterlimit="2"/><path d="M335.898 194.895v2.097M334.102 194.895h3.597M334.102 196.992h3.597" fill="none" stroke-width="1" stroke-linecap="round" stroke-linejoin="round" stroke="rgb(69.799805%,13.198853%,13.198853%)" stroke-miterlimit="2"/><path d="M340.102 193.69v3.904M336.5 193.69h7.2M336.5 197.594h7.2" fill="none" stroke-width="1" stroke-linecap="round" stroke-linejoin="round" stroke="rgb(71.998596%,52.49939%,4.399109%)" stroke-miterlimit="2"/><path d="M340.102 194.992v1.2M338.3 194.992h3.598M338.3 196.19h3.598" fill="none" stroke-width="1" stroke-linecap="round" stroke-linejoin="round" stroke="rgb(69.799805%,13.198853%,13.198853%)" stroke-miterlimit="2"/><path d="M342.398 194.895v4.398M338.8 194.895h7.2M338.8 199.293h7.2" fill="none" stroke-width="1" stroke-linecap="round" stroke-linejoin="round" stroke="rgb(71.998596%,52.49939%,4.399109%)" stroke-miterlimit="2"/><path d="M342.398 196.094v2M340.602 196.094h3.597M340.602 198.094h3.597" fill="none" stroke-width="1" stroke-linecap="round" stroke-linejoin="round" stroke="rgb(69.799805%,13.198853%,13.198853%)" stroke-miterlimit="2"/><path d="M352.7 193.293v4.5M349.102 193.293h7.2M349.102 197.793h7.2" fill="none" stroke-width="1" stroke-linecap="round" stroke-linejoin="round" stroke="rgb(71.998596%,52.49939%,4.399109%)" stroke-miterlimit="2"/><path d="M352.7 195.094v.898M350.898 195.094h3.602M350.898 195.992h3.602" fill="none" stroke-width="1" stroke-linecap="round" stroke-linejoin="round" stroke="rgb(69.799805%,13.198853%,13.198853%)" stroke-miterlimit="2"/><path d="M356.5 191.992v4.8M352.898 191.992h7.204M352.898 196.793h7.204" fill="none" stroke-width="1" stroke-linecap="round" stroke-linejoin="round" stroke="rgb(71.998596%,52.49939%,4.399109%)" stroke-miterlimit="2"/><path d="M356.5 193.793v1.2M354.7 193.793h3.6M354.7 194.992h3.6" fill="none" stroke-width="1" stroke-linecap="round" stroke-linejoin="round" stroke="rgb(69.799805%,13.198853%,13.198853%)" stroke-miterlimit="2"/><path d="M359.8 191.492v5.2M356.2 191.492h7.198M356.2 196.69h7.198" fill="none" stroke-width="1" stroke-linecap="round" stroke-linejoin="round" stroke="rgb(71.998596%,52.49939%,4.399109%)" stroke-miterlimit="2"/><path d="M359.8 193.594v1M358 193.594h3.602M358 194.594h3.602" fill="none" stroke-width="1" stroke-linecap="round" stroke-linejoin="round" stroke="rgb(69.799805%,13.198853%,13.198853%)" stroke-miterlimit="2"/><path d="M363.102 190.395v6M359.5 190.395h7.2M359.5 196.395h7.2" fill="none" stroke-width="1" stroke-linecap="round" stroke-linejoin="round" stroke="rgb(71.998596%,52.49939%,4.399109%)" stroke-miterlimit="2"/><path d="M363.102 192.094v2.5M361.3 192.094h3.598M361.3 194.594h3.598" fill="none" stroke-width="1" stroke-linecap="round" stroke-linejoin="round" stroke="rgb(69.799805%,13.198853%,13.198853%)" stroke-miterlimit="2"/><path d="M363.898 192.293v6.102M360.3 192.293h7.2M360.3 198.395h7.2" fill="none" stroke-width="1" stroke-linecap="round" stroke-linejoin="round" stroke="rgb(71.998596%,52.49939%,4.399109%)" stroke-miterlimit="2"/><path d="M363.898 194.094v2.5M362.102 194.094h3.597M362.102 196.594h3.597" fill="none" stroke-width="1" stroke-linecap="round" stroke-linejoin="round" stroke="rgb(69.799805%,13.198853%,13.198853%)" stroke-miterlimit="2"/><path d="M366.102 188.793v6.5M362.5 188.793h7.2M362.5 195.293h7.2" fill="none" stroke-width="1" stroke-linecap="round" stroke-linejoin="round" stroke="rgb(71.998596%,52.49939%,4.399109%)" stroke-miterlimit="2"/><path d="M366.102 190.992v2.102M364.3 190.992h3.598M364.3 193.094h3.598" fill="none" stroke-width="1" stroke-linecap="round" stroke-linejoin="round" stroke="rgb(69.799805%,13.198853%,13.198853%)" stroke-miterlimit="2"/><path d="M366.602 189.594v6.597M363 189.594h7.2M363 196.19h7.2" fill="none" stroke-width="1" stroke-linecap="round" stroke-linejoin="round" stroke="rgb(71.998596%,52.49939%,4.399109%)" stroke-miterlimit="2"/><path d="M366.602 191.895v2M364.8 191.895h3.598M364.8 193.895h3.598" fill="none" stroke-width="1" stroke-linecap="round" stroke-linejoin="round" stroke="rgb(69.799805%,13.198853%,13.198853%)" stroke-miterlimit="2"/><path d="M367 188.19v6.705M363.398 188.19h7.204M363.398 194.895h7.204" fill="none" stroke-width="1" stroke-linecap="round" stroke-linejoin="round" stroke="rgb(71.998596%,52.49939%,4.399109%)" stroke-miterlimit="2"/><path d="M367 190.492v2.102M365.2 190.492h3.6M365.2 192.594h3.6" fill="none" stroke-width="1" stroke-linecap="round" stroke-linejoin="round" stroke="rgb(69.799805%,13.198853%,13.198853%)" stroke-miterlimit="2"/><path d="M367.7 188.992v6.903M364.102 188.992h7.2M364.102 195.895h7.2" fill="none" stroke-width="1" stroke-linecap="round" stroke-linejoin="round" stroke="rgb(71.998596%,52.49939%,4.399109%)" stroke-miterlimit="2"/><path d="M367.7 191.395v2.097M365.898 191.395h3.602M365.898 193.492h3.602" fill="none" stroke-width="1" stroke-linecap="round" stroke-linejoin="round" stroke="rgb(69.799805%,13.198853%,13.198853%)" stroke-miterlimit="2"/><path d="M369.602 189.895v7.5M366 189.895h7.2M366 197.395h7.2" fill="none" stroke-width="1" stroke-linecap="round" stroke-linejoin="round" stroke="rgb(71.998596%,52.49939%,4.399109%)" stroke-miterlimit="2"/><path d="M369.602 192.594v2.097M367.8 192.594h3.598M367.8 194.69h3.598" fill="none" stroke-width="1" stroke-linecap="round" stroke-linejoin="round" stroke="rgb(69.799805%,13.198853%,13.198853%)" stroke-miterlimit="2"/><path d="M382.2 195.992v8.5M378.602 195.992h7.2M378.602 204.492h7.2" fill="none" stroke-width="1" stroke-linecap="round" stroke-linejoin="round" stroke="rgb(39.199829%,58.499146%,92.999268%)" stroke-miterlimit="2"/><path d="M382.2 197.293v5.898M380.398 197.293H384M380.398 203.19H384" fill="none" stroke-width="1" stroke-linecap="round" stroke-linejoin="round" stroke="rgb(0%,19.999695%,79.998779%)" stroke-miterlimit="2"/><path d="M388 195.094v7.597M384.398 195.094h7.204M384.398 202.69h7.204" fill="none" stroke-width="1" stroke-linecap="round" stroke-linejoin="round" stroke="rgb(39.199829%,58.499146%,92.999268%)" stroke-miterlimit="2"/><path d="M388 195.895v6M386.2 195.895h3.6M386.2 201.895h3.6" fill="none" stroke-width="1" stroke-linecap="round" stroke-linejoin="round" stroke="rgb(0%,19.999695%,79.998779%)" stroke-miterlimit="2"/><path d="M394.898 192.19v7M391.3 192.19h7.2M391.3 199.19h7.2" fill="none" stroke-width="1" stroke-linecap="round" stroke-linejoin="round" stroke="rgb(39.199829%,58.499146%,92.999268%)" stroke-miterlimit="2"/><path d="M394.898 192.69v6M393.102 192.69h3.597M393.102 198.69h3.597" fill="none" stroke-width="1" stroke-linecap="round" stroke-linejoin="round" stroke="rgb(0%,19.999695%,79.998779%)" stroke-miterlimit="2"/><path d="M291 215.293h202.8" fill="none" stroke-width=".7000000000000001.5" stroke-linecap="square" stroke-linejoin="round" stroke="#000" stroke-miterlimit="2"/><path d="M291 208.094v7.2m33.8-7.2v7.2m33.802-7.2v7.2m33.796-7.2v7.2m33.8-7.2v7.2m33.802-7.2v7.2m33.8-7.2v7.2" fill="none" stroke-width=".9" stroke-linejoin="round" stroke="#000" stroke-miterlimit="2"/><path d="M299.5 211.69v3.603m8.398-3.602v3.603m8.5-3.602v3.603m16.903-3.602v3.603m8.4-3.602v3.603m8.5-3.602v3.603m16.902-3.602v3.603m8.398-3.602v3.603m8.5-3.602v3.603m16.898-3.602v3.603m8.403-3.602v3.603m8.5-3.602v3.603m16.9-3.602v3.603m8.402-3.602v3.603m8.5-3.602v3.603m16.898-3.602v3.603m8.398-3.602v3.603m8.5-3.602v3.603" fill="none" stroke-width=".7000000000000001" stroke-linejoin="round" stroke="#000" stroke-miterlimit="2"/><path d="M291 215.293V174.69" fill="none" stroke-width=".7000000000000001.5" stroke-linecap="square" stroke-linejoin="round" stroke="#000" stroke-miterlimit="2"/><path d="M298.2 215.293H291m7.2-20.3H291m7.2-20.302H291" fill="none" stroke-width=".9" stroke-linejoin="round" stroke="#000" stroke-miterlimit="2"/><path d="M294.602 210.19H291m3.602-5.096H291m3.602-5.102H291m3.602-10.097H291m3.602-5.102H291m3.602-5H291" fill="none" stroke-width=".7000000000000001" stroke-linejoin="round" stroke="#000" stroke-miterlimit="2"/><path d="M291 174.69h202.8" fill="none" stroke-width=".7000000000000001.5" stroke-linecap="square" stroke-linejoin="round" stroke="#000" stroke-miterlimit="2"/><path d="M291 181.895v-7.204m33.8 7.205v-7.204m33.802 7.205v-7.204m33.796 7.205v-7.204m33.8 7.205v-7.204M460 181.896v-7.204m33.8 7.205v-7.204" fill="none" stroke-width=".9" stroke-linejoin="round" stroke="#000" stroke-miterlimit="2"/><path d="M299.5 178.293v-3.602m8.398 3.603v-3.602m8.5 3.603v-3.602m16.903 3.603v-3.602m8.4 3.603v-3.602m8.5 3.603v-3.602m16.902 3.603v-3.602m8.398 3.603v-3.602m8.5 3.603v-3.602m16.898 3.603v-3.602m8.403 3.603v-3.602m8.5 3.603v-3.602m16.9 3.603v-3.602m8.402 3.603v-3.602m8.5 3.603v-3.602m16.898 3.603v-3.602m8.398 3.603v-3.602m8.5 3.603v-3.602" fill="none" stroke-width=".7000000000000001" stroke-linejoin="round" stroke="#000" stroke-miterlimit="2"/><path d="M493.8 215.293V174.69" fill="none" stroke-width=".7000000000000001.5" stroke-linecap="square" stroke-linejoin="round" stroke="#000" stroke-miterlimit="2"/><path d="M486.602 215.293h7.2m-7.2-20.3h7.2m-7.2-20.302h7.2" fill="none" stroke-width=".9" stroke-linejoin="round" stroke="#000" stroke-miterlimit="2"/><path d="M490.2 210.19h3.6m-3.6-5.096h3.6m-3.6-5.102h3.6m-3.6-10.097h3.6m-3.6-5.102h3.6m-3.6-5h3.6" fill="none" stroke-width=".7000000000000001" stroke-linejoin="round" stroke="#000" stroke-miterlimit="2"/><path d="M30.2 215.293H233.1v-202.8H30.2z" fill="#fff"/><g clip-path="url(#d)"><path d="M42.898 241.69l.102-.198v-.3l.102-.297.097-.3.1-.302.098-.3v-.2l.204-.602.097-.295.1-.3.098-.302v-.3l.102-.2.102-.3.097-.302.1-.295.098-.3v-.302l.204-.602.097-.198.1-.3.098-.297.102-.3v-.302l.102-.3.097-.302.1-.295.098-.3.204-.603v-.2l.097-.3.1-.3.098-.297.204-.602.097-.3.1-.302v-.295l.098-.3.204-.603.097-.3.1-.297.098-.3.204-.603.097-.3v-.2l.1-.3.098-.297.204-.602.097-.3.1-.302.098-.295.204-.602.097-.3.1-.302.098-.295.102-.3v-.302l.102-.3.097-.302.1-.295.098-.3.102-.404.102-.295.097-.3.1-.302.098-.3.102-.302.102-.295.097-.3.1-.302.098-.3.102-.302.102-.295.097-.3.1-.302.098-.3.102-.302.102-.295.097-.3.1-.404.098-.295.204-.602.097-.3.1-.302.098-.295.204-.602.097-.398.1-.3.098-.302.204-.602.097-.295.1-.3.098-.302.102-.398.102-.3.097-.302.198-.3.102-.302.102-.295.097-.403.1-.3.098-.297.204-.602.097-.3.1-.4.098-.3.204-.602.2-.295.096-.403.102-.3.102-.297.097-.3.1-.302.098-.398.204-.602.2-.3.096-.4.204-.6.097-.302.1-.397.098-.3.102-.302.2-.295.1-.403.098-.3.102-.297.102-.3.097-.404.198-.295.102-.3.102-.404.097-.295.1-.3.2-.302.102-.398.097-.3.1-.302.098-.398.204-.3.097-.302.1-.398.098-.3.102-.302.2-.398.1-.3.098-.302.102-.398.2-.3.1-.404.098-.295.102-.3.2-.404.1-.295.098-.3.102-.404.2-.295.1-.403.098-.3.102-.297.2-.403.1-.3.098-.4.204-.3.097-.398.1-.3.098-.302.204-.398.097-.3.1-.4.2-.3.102-.403.097-.295.198-.403.102-.3.102-.4.2-.3.096-.398.102-.3.2-.4.1-.3.2-.403.102-.295.097-.403.198-.3.102-.4.2-.3.1-.398.098-.3.204-.4.097-.3.198-.403.102-.397.102-.3.2-.4.096-.3.204-.398.097-.3.198-.404.102-.397.2-.3.1-.4.098-.3.204-.398.097-.403.198-.3.102-.4.2-.397.1-.3.2-.404.102-.397.2-.3.096-.4.204-.402.097-.295.198-.403.204-.398.097-.3.198-.4.102-.402.2-.3.1-.4.2-.397.2-.403.1-.3.2-.4.102-.397.2-.3.198-.404.102-.397.2-.398.096-.403.204-.3.2-.4.096-.397.204-.403.2-.3.096-.4.204-.397.2-.403.096-.398.204-.403.2-.295.096-.403.204-.398.2-.403.198-.397.102-.398.2-.403.198-.3.2-.4.1-.397.2-.403.2-.398.198-.403.102-.397.2-.398.198-.403.204-.398.2-.403.096-.397.204-.398.2-.403.198-.3.398-.797.204-.403.097-.398.198-.403.204-.397.2-.5.198-.398.2-.403.198-.398.204-.403.398-.795.2-.403.198-.398.204-.403.097-.397.198-.398.204-.403.2-.398.3-.5.2-.403.397-.795.198-.403.204-.398.2-.5.198-.403.398-.795.204-.403.2-.5.198-.398.3-.403.4-.795.198-.5.204-.403.2-.398.3-.5.2-.403.397-.795.3-.5.2-.403.198-.398.204-.5.296-.403.204-.5.2-.397.3-.398.2-.5.198-.403.3-.398.2-.5.2-.403.3-.5.2-.397.3-.5.2-.398.3-.5.2-.403.3-.5.2-.398.3-.5.2-.403.3-.5.2-.397.3-.5.2-.398.3-.5.2-.5.3-.403.3-.5.2-.398.602-1 .2-.403.3-.5.296-.5.3-.5.2-.397.602-1 .3-.398.302-.5.296-.5.204-.5.296-.5.3-.403.904-1.5.296-.5.602-1 .3-.398.302-.5.296-.5.3-.5.404-.5.296-.5.903-1.5.4-.5.6-1 .4-.5.3-.5.3-.602.4-.5.3-.5.398-.5.3-.5.404-.5.296-.597.403-.5.302-.5.398-.5.398-.602.3-.5.404-.5.398-.602.398-.5.403-.5.4-.596.3-.5.398-.5.403-.602.4-.5.402-.597.5-.5.398-.602.398-.5.403-.602.4-.596.5-.5.402-.602.5-.597.398-.5.398-.602.5-.602.5-.5.403-.596.5-.602.5-.597.5-.602.5-.5.5-.602.5-.596.5-.602.5-.597 1-1.204.598-.596.5-.602.602-.597.5-.704.602-.596.597-.602.5-.597.6-.602.598-.7.704-.6.597-.598.6-.704.7-.596.602-.7.7-.6.698-.7.7-.602.698-.7.704-.6.7-.7.8-.7.796-.6 2.403-2.098.9-.602.8-.7.898-.698.903-.7 1-.703 3-2.096 1.098-.7 1.102-.703 2.398-1.397 1.204-.7 1.296-.698 1.403-.704 1.4-.698 1.5-.597 1.6-.704 1.598-.596 1.8-.602 1.904-.5 2-.5 2.097-.5 2.3-.3 2.398-.2 2.5-.097 2.704.097 2.796.3 2.8.603 2.7.796 2.602 1 2.398 1.103 2.204 1.2 2 1.402 1.796 1.296 1.602 1.404 1.5 1.398 1.3 1.3 1.098 1.4 1.102 1.3 1 1.3.898 1.2.8 1.3.7 1.2.704 1.2.597 1.203.6 1.097.5 1.102.5 1.097.5 1.103.4 1 .3 1.102.398 1 .602 2 .3.898.302 1 .2.898.198.904.2.898.198.903.102.898.2.8.1.9.2.8.102.8.097.802v.796l.1.802.098.8v.7l.102.8v.7l.102.8v4.2l-.102.602v1.398l-.102.602v.597l-.097.705v.597l-.1.602-.098.597v.603l-.102.602-.102.597-.097.602-.1.597-.098.5v.603l-.102.602-.2.5-.1.597-.098.5-.102.5-.102.602-.097.5-.1.5-.2.5-.102.5-.097.5-.198.5-.204 1-.2.5-.096.5-.204.398-.097.5-.198.5-.102.403-.2.5-.1.398-.2.5-.2.398-.1.5-.2.404-.2.398-.1.403-.2.5-.398.796-.102.404-.2.398-.198.403-.204.398-.2.398-.096.404-.204.398-.2.3-.198.4-.2.402-.198.398-.204.3-.2.4-.198.402-.2.3-.198.4-.204.3-.2.398-.397.602-.198.398-.204.3-.2.302-.198.398-.398.602-.204.3-.2.297-.198.302-.2.403-.198.296-.3.302-.2.3-.204.302-.2.2-.397.6-.198.297-.3.302-.2.3-.204.2-.398.602-.3.2-.4.6-.698.7-.204.3-.7.7-.198.3-.2.2-.3.2-.2.3-.198.2-.204.198-.296.3-.204.2-.2.2-.3.203-.398.398-.3.2-.2.3-.2.2-.3.198-.2.205-.198.2-.3.198-.2.102-.204.2-.296.198-.204.2-.2.198-.3.205-.2.2-.3.096-.2.205-.198.2-.3.198-.2.102-.2.2-.3.096-.2.205-.3.2-.2.096-.198.205-.3.097-.2.2-.3.1-.2.2-.204.102-.296.2-.204.1-.2.098-.3.2-.2.1-.3.103-.2.2-.3.096-.398.205-.3.2-.2.096-.3.103-.2.102-.2.097-.3.102-.2.2-.3.1-.2.098-.198.102-.3.097-.2.103-.3.102-.2.097-.3.102h-.2l-.204.097-.296.103-.204.102-.296.097-.204.102h-.2l-.3.097-.2.103-.3.102h-.2l-.3.097-.2.102-.198.097h-.3l-.2.103h-.3l-.2.102-.2.097h-.3l-.2.102h-.3l-.2.097h-.198l-.3.103h-.5l-.2.102h-.204l-.296.097h-.5l-.204.102h-.7l-.198.097h-1l-.2.103h-3.6l-.2-.102h-1.2l-.198-.096h-.5l-.204-.102h-.5l-.2-.097h-.5l-.198-.102h-.2l-.198-.102h-.5l-.204-.096h-.296l-.204-.102h-.2l-.198-.097-.3-.102h-.2l-.2-.102h-.198l-.3-.096-.2-.102h-.204l-.2-.097-.3-.102h-.2l-.198-.102-.2-.096-.198-.102-.3-.097h-.2l-.204-.102-.2-.102-.198-.096-.3-.102-.2-.097-.398-.204h-.204l-.296-.096-.204-.102-.2-.097-.397-.204-.198-.198-.204-.097-.296-.102-.204-.102-.2-.096-.198-.102-.2-.097-.198-.102-.204-.2-.2-.1-.3-.098-.398-.204-.2-.198-.198-.097-.204-.102-.2-.2-.198-.1-.2-.098-.198-.204-.204-.096-.2-.2-.397-.203-.198-.198-.204-.097-.2-.204-.198-.096-.2-.2-.198-.203-.204-.096-.2-.2-.198-.1-.398-.4-.204-.1-.398-.4-.2-.1-.198-.2-.204-.2-.2-.203-.198-.096-.102-.2-.2-.203-.596-.596-.204-.102-.398-.398-.102-.2-.2-.203-.596-.596-.102-.2-.2-.203-.198-.198-.204-.2-.2-.3-.096-.2-.204-.198-.2-.2-.198-.203-.102-.198-.2-.3-.198-.2-.102-.2-.2-.198-.198-.3-.102-.2-.2-.2-.198-.3-.102-.2-.2-.3-.198-.2-.102-.203-.2-.295-.198-.204-.102-.295-.2-.204-.096-.295-.204-.204-.097-.295-.198-.3-.102-.2-.2-.3-.1-.302-.2-.2-.102-.3-.2-.3-.096-.2-.204-.3-.097-.302-.198-.295-.102-.3-.2-.2-.1-.3-.098-.302-.204-.3-.097-.302-.1-.295-.2-.3-.102-.302-.097-.3-.198-.302-.102-.295-.102-.3-.097-.302-.198-.3-.102-.302-.102-.397-.097-.3-.198-.302-.102-.295-.102-.3-.097-.404-.1-.295-.098-.3-.102-.404-.102-.295-.097-.3-.198-.404-.102-.295-.102-.403-.097-.3-.1-.4-.098-.3v-.398l-.102-.3-.102-.4-.097-.402-.1-.3-.098-.4-.102-.397-.102-.3v-.404l-.097-.397-.1-.398-.098-.3v-.404l-.204-.795-.097-.403v-.398l-.1-.403v-.397l-.098-.398-.102-.403v-.398l-.102-.403v-.397l-.097-.398v-.903l-.1-.398v-.903l-.098-.397v-.898l-.102-.403v-6.597l.102-.403v-1l.097-.5v-1l.1-.597v-.5l.098-.5.102-.5v-.5l.102-.602.097-.5.1-.5v-.602l.098-.5.102-.596.102-.5.097-.602.1-.597.2-.5.102-.602.097-.602.1-.5.2-.596.102-.602.2-.597.096-.602.204-.602.2-.596.198-.602.2-.597.198-.704.204-.596.2-.602.198-.7.2-.6.3-.598.2-.7.3-.703.3-.596.302-.7.296-.703.3-.596.302-.7.3-.703.4-.698.3-.7.398-.698.403-.7.4-.8.402-.7.5-.703.398-.795.5-.704.5-.795.602-.704.5-.795.597-.8.6-.802.598-.8.704-.802.7-.795 1.397-1.602.902-.8.796-.802.903-.897 2-1.602 1-.795 1.2-.903 1.2-.8 1.3-.797 1.398-.8 3.204-1.603 1.796-.7 2-.6 2.102-.5 2.3-.5 2.5-.2 2.802-.097 2.796.296 2.903.5 2.802.904 2.597 1.097 2.402 1.302 2.097 1.403 1.902 1.5 1.5 1.5 1.398 1.5 1.102 1.5 1 1.5.898 1.398.7 1.398.6 1.302.5 1.3.5 1.2.302 1.2.296 1.203.3 1.097.2 1.102.102 1.097.102 1 .097 1v2.904l-.098.898v.8l-.102.9-.2.8-.1.8-.2.802-.102.7-.2.698-.198.8-.3.7-.2.602-.2.7-.3.6-.3.7-.302.597-.2.603-.3.5-.398.602-.3.5-.302.597-.296.5-.403.5-.302.5-.398.5-.3.403-.4.5-.3.398-2.398 2.398-.403.302-.4.403-.402.296-.796.603-.403.3-.4.302-.402.296-.5.302-.398.2-.398.3-.403.2-.5.203-.4.296-.402.205-.5.2-.398.198-.398.102-.5.2-.403.198-.5.102-.4.2-.402.096-.5.103-.398.2-.5.1-.398.098-.5.103-.403.102h-.4l-.5.097-.402.102h-.5l-.398.097h-1.3l-.5.103h-.9l-.402-.102h-1.296l-.5-.096h-.403l-.4-.102-.5-.097h-.402l-.398-.102-.5-.102-.398-.096-.403-.102-.4-.097-.5-.102-.402-.2-.398-.1-.398-.098-.403-.204-.5-.096-.4-.2-.402-.203-.398-.096-.398-.2-.403-.203-.4-.198-.402-.2-.398-.3-.398-.2-.403-.198-.4-.2-.3-.3-.398-.2-.403-.3-.4-.3-.3-.302-.398-.2-.403-.3-.302-.3-.398-.297-.3-.403-.4-.3-.3-.297-.398-.403-.3-.3-.404-.4-.296-.3-.3-.398-.302-.403-.602-.795-.398-.403-.3-.398-.2-.403-.3-.397-.302-.5-.296-.398-.3-.5-.2-.403-.3-.5-.2-.5-.3-.5-.2-.5-.204-.5-.296-.5-.204-.5-.2-.5-.198-.597-.2-.5-.1-.602-.2-.602-.2-.596-.1-.5-.098-.7-.204-.6-.097-.603-.1-.596-.098-.7-.102-.6v-.7l-.102-.7v-3.5l.102-.703.102-.795v-.8l.2-.7.096-.8.204-.802.2-.898.397-1.602.3-.898.398-.903.3-.898.404-.903 1-1.795.5-.903.597-1 .698-.898 1.602-2 .898-.903 1-1 1.204-1 1.296-.897 1.403-1 1.598-.898 1.8-.8 2-.7 2.302-.602 2.602-.398h2.796l3 .296 3 .705 2.8 1.097 2.5 1.403 2.103 1.597 1.802 1.602 1.398 1.7 1.102 1.6.898 1.598.7 1.5.5 1.5.3 1.403.3 1.296.098 1.205.102 1.2-.102 1.198-.097 1.102-.1 1-.302 1-.2.898-.3.898-.398.904-.3.8-.5.7-.4.7-.5.698-.402.7-.597.6-.5.5-.5.603-.6.5-.5.5-.598.398-.602.398-.602.404-.597.398-.698.3-1.204.603-.7.2-.596.3-.704.2-.597.096-.698.205-.602.097-.7.102-.698.097-.602.103h-2.7l-.6-.102-.7-.096-.7-.102-.6-.097-.598-.102-.704-.2-.597-.198-.698-.204-.602-.198-.602-.3-.597-.2-.6-.3-.598-.297-.602-.403-.602-.3-.597-.4-.5-.397-.6-.403-.5-.398-.598-.5-1.5-1.5-.403-.602-.5-.5-.4-.597-.402-.602-.5-.7-.296-.6-.403-.7-.302-.7-.296-.698-.3-.8-.302-.7-.2-.8-.198-.904-.204-.795-.097-.903-.1-.898V62.69l.1-.897.098-1 .204-1 .296-1.102.403-1.096.4-1.102.6-1.097.598-1.102.903-1.102.9-1.198 1.198-1.097 1.403-1.102 1.7-1 1.898-.898 2.3-.704 2.7-.5h3l3.102.603 3 1.102 2.602 1.5 2.097 1.7 1.6 1.8 1.2 1.796.8 1.802.5 1.602.302 1.5v1.5l-.102 1.3-.2 1.2-.3 1.2-1 2-.602.8-.597.8-.698.7-.704.7-.796.6-.8.5-.802.4-.898.397-.8.302-.904.3-.898.2-.898.102-.903.097-.9.103-.902-.102H181l-.898-.096-.903-.2-.9-.203-.8-.295-.898-.3-.8-.404-1.603-.795-.802-.5-.796-.602-.704-.602-.7-.596-.698-.7-.602-.8-.5-.8-.597-.802-.402-.898-.5-.903-.296-1-.3-1.096-.2-1.102v-2.3l.097-1.2.3-1.3.5-1.2.7-1.398 1-1.3 1.198-1.2 1.704-1.2 2-1.1 2.597-.7 3.1-.102 3.2.5 3.102 1.3 2.5 1.802 1.796 1.898 1.102 2 .602 1.903.2 1.7-.103 1.596-.302 1.404-.597 1.2-.698 1.1-.8.9-1 .8-1 .597-1 .5-1.103.404-1.2.2-1.102.198h-1.2l-1.198-.097-1.102-.204-1.097-.198-1.198-.398-1-.5-1.102-.602-1-.7-.898-.8-.8-.898-.802-.903-.7-1.096-.5-1.2-.402-1.203-.2-1.295v-1.5l.302-1.403.602-1.5 1-1.5 1.5-1.5 2.097-1.097 2.902-.704 3.296.205 3.403 1.2 2.5 2 1.598 2.198.704 2.102.097 1.898-.4 1.7-.8 1.3-1 1.102-1.2.796-1.402.603-1.398.3-1.398.098-1.403-.096-1.5-.3-1.4-.5-1.3-.7-1.2-.903-1.1-1.096-.9-1.2-.6-1.402-.4-1.597.098-1.704.5-1.698 1.3-1.7 2.103-1.397 3.2-.602 3.602.7 3 2 1.597 2.402.3 2.296-.5 1.904-1 1.398-1.5 1-1.602.5-1.796.102-1.8-.403-1.603-.596-1.5-1.102-1.302-1.3-.796-1.7-.3-1.898.5-2 1.698-1.8 3.2-.9 3.8.9 2.602 2.5.597 2.6-.802 2-1.597 1.297-2 .404-2.1-.2-2-1-1.5-1.5" fill="none" stroke-width="1.5" stroke-linecap="round" stroke-linejoin="round" stroke="rgb(82.798767%,82.798767%,82.798767%)" stroke-miterlimit="2"/></g><g clip-path="url(#e)"><path d="M-106.398 807.395h-.102v.097l-.102.102-.296.097-.403.302-.802.403h-.097v.097h-.1l-.2.102-.398.2-.8.198h-.103l-.098.102h-.3l-.103.097h-1v.103h-.2v-.102h-.8l-.098-.096h-.403v-.102h-.2l-.102-.097-.296-.102-.704-.3-1.097-1h-.1v-.098l-.2-.102-.2-.398-.5-.602-.902-1.7v-.1l-.097-.2-.1-.2-.2-.6-.398-1.098-.8-2.602v-.398l-.103-.3-.098-.7-.3-1.5-.404-3.204v-.295l-.097-.204v-.5l-.1-.897-.098-2.102H-120v-1l-.102-1.096v-2.8l-.097-.603v-4.897l.098-1.3v-3l.102-.302v-1.897l.2-2.7.3-5.698v-.204l.102-.198v-.398l.097-.903.1-1.596.302-3.403.7-7.096 1.8-14.7 2.296-16.203 3.3-19.698 3.904-20.398 5-24.602 5.898-26.8 6.602-27.5 8.398-32.9 9.102-34 11.796-40.698 13.704-44.8 15.2-46.9 20.397-58 24.198-63.1 32.3-74.802v-.097l.103-.102.098-.2.102-.3.398-.8.602-1.4 1.398-2.902 2.8-5.897 5.904-12.102 13.2-25.897.096-.102.102-.096.102-.2.2-.5.5-.8.897-1.7 1.902-3.5 3.898-7.1 8.602-15 22-33.603.097-.198.1-.097.2-.3.398-.5.8-1.103 1.603-2.2 3.4-4.5 7.8-9.397.102-.204.2-.096.198-.3.602-.603 1.097-1.295 2.198-2.5 5-5.102L145 53.993l.2-.2.198-.102.5-.397 1-.7L149 51.192l4.5-2.698.398-.2.3-.1.603-.4 1.302-.6L159 45.894l.3-.102.4-.2.8-.3 1.602-.5 3.5-1 .5-.102.398-.096 1-.2.5-.1h.5l1-.2h.602l.5-.102h1.097l.6-.097h1.7l.602.097h1.2l.596.102.704.097.597.103 1.3.2.602.1.7.098.596.205.704.2.597.198.698.2.602.198.7.205.6.296.7.302 1.2.5.698.3.602.302 1.2.7.6.3.598.398 1.102.7 2.102 1.5.5.402.5.3 1 .797 1.7 1.603 3.096 3 .403.398.302.404.7.7 1.198 1.5 2.2 2.8 3.402 5.3 4.5 9 .097.297.1.205.598 1.5.704 1.898 1.2 3.7 1.596 6.402v.398l.102.398.2.705.198 1.398.403 2.8v.302l.098.296v.705l.204 1.2.097 2.397v.602l.1.597v3.802l-.1.5v1.5l-.098.5-.102 1v.903l-.2.898-.198 1.8-.602 3.302h-.102v.296l-.097.404-.198.8-.403 1.4-.9 2.698v.102l-.1.097v.103l-.2.398-.2.603-.5 1.2-1.1 2.198-2.4 3.904-5.5 5.8v.098h-.1l-.098.102-.204.2-.398.3-.8.5-1.598 1.097-3.3 1.705h-.103l-.098.097h-.204l-.5.2-.796.3-1.704.602-3.5.7h-.097l-.1.1h-.7l-.8.098-.098.102h-.8l-.904.097H185.8l-.402-.096h-.898l-.898-.102-1.8-.2-.103-.1h-.302l-.5-.098-.898-.2-1.7-.3-.1-.102h-.2l-.2-.097-.402-.102-.898-.2-1.8-.6-3.5-1.2-.098-.102H171l-.2-.096-.5-.2-.8-.402-1.8-.8-3.4-1.797h-.1v-.102h-.098l-.3-.2-.404-.198-.796-.5-1.704-1-3.398-2.3-.2-.2-.198-.102-.403-.3-.802-.598-1.597-1.3h-.1l-.098-.103-.204-.2-.5-.3-.796-.7-1.602-1.3v-.097l-.3-.3-.4-.302h-.1v-.102l-.098-.096-.204-.102-.398-.398h-.102v-.102l-.097-.097-.198-.102-.403-.398-.098-.102-.102-.102-.2-.096v-.102l-.1-.097-.098-.102-.102-.102h-.102v-.096h-.097v-.102h-.1v-.097h-.098v-.102h-.102l-.3-.3v-.098h-.098l-.3-.3-.302-.404h-.102l-2.2-2.198-.698-.8-1.5-1.5-2.8-3.297-.098-.102-.3-.3-.302-.4-.7-.902-1.402-1.698-2.597-3.5-5-7.398v-.102l-.1-.097-.098-.102-.102-.2-.3-.5-.598-1-1.102-1.902-2.3-4.096-4-8.3-.098-.103v-.096l-.102-.102-.102-.3-.2-.5-.5-1.098-.897-2.2-1.6-4.402-2.802-9.2v-.1l-.097-.098v-.102l-.1-.3-.098-.5-.3-1.098-.5-2.2-.802-4.5v-.203l-.102-.295-.097-.602-.1-1.102-.302-2.295v-.5l-.097-.602-.1-1.102v-.596l-.098-.602v-1.7l-.102-.5v-4l.102-.6v-1.2l.097-.2v-.8l.1-1.097v-.102l.098-.102v-.397l.102-.602.102-1.096.398-2.2 1.2-4.402h.1v-.2l.098-.3.204-.5.398-1.097 1-2v-.102l.102-.102v-.096l.2-.2.3-.5.597-1 1.3-1.902.102-.097.097-.204.198-.198.403-.398.802-.903L121 18.493l.102-.097.097-.102.3-.2.5-.402 1.102-.698 2.5-1.2.097-.1h.1l.2-.098.3-.102.802-.3 1.5-.4h.2l.198-.1.398-.098.8-.102.2-.097h.3l.404-.102.898-.102h.5l.5-.096h3.102l.2.097h1l1.198.205h.602l.597.097 1.3.3h.2l.1.103h.4l.698.2 1.403.397 3.098.903.204.097.2.102.397.097.8.302 1.7.7 3.8 1.703.2.2.3.096.398.302 1.102.5 2.102 1.2 4.5 2.8.296.2.3.203.603.398 1.2.8 2.5 1.9 5.3 4.198.4.302.3.3.8.603 1.5 1.296 3 2.802.4.403.402.296.796.705 1.5 1.5.403.398 2.7 2.7.398.402.403.398.302.398.398.404 1.2 1.2.3.397.398.404.403.398.7.8.398.5.403.4.7.8.398.403.3.398.802.898 1.398 1.603 2.8 3.3.302.4.3.5.7.8 1.3 1.602 2.5 3.296 4.5 6.205 7.4 11.2.198.397.204.3.398.603.7 1.296 1.402 2.404 2.597 4.597 3.902 8 .097.205.1.2.2.5.398.897.704 1.7 1.296 3.1 1.903 5.603v.097l.098.2v.3l.204.602.296 1.2.5 2.198.102.102v.398l.102.5.2.903.3 1.796v1.103l.097.2v2.8l-.098.3v.598l-.102.603v.102l-.102.097v.3l-.097.5-.402.9v.203l-.097.2-.198.397-.5.602v.097l-1 1H227v.103l-.2.102-.3.097-.602.3h-.097v.103h-.3l-.3.097h-.098l-.102.102h-.602l-.097.097h-1.1l-.098-.096h-.602l-.398-.102-.903-.2h-.2l-.2-.1-.5-.098-.902-.3h-.097l-.1-.103-.2-.096-.5-.2-1-.402-1.898-1-4.204-2.597h-.097v-.102l-.198-.102-.204-.096-.597-.403-1.1-.795-2.2-1.8-4.602-3.802-9.398-9.3-.102-.098-.097-.102-.1-.102-.302-.295-.5-.602-1.2-1.2-2.198-2.5-4.5-5.198-.102-.102-.097-.102-.1-.096-.302-.403-.5-.596-1.2-1.403-2.198-2.698-4.5-5.7-.102-.1v-.098l-.2-.2-.198-.3-.602-.8-1.097-1.4-.1-.1-.098-.103-.102-.198-.3-.3-.5-.797-1.098-1.5-.102-.102h-.102l-.097-.2-.3-.402-.5-.795h-.102l-.097-.102-.1-.2-.302-.402v-.096l-.097-.102-.1-.2-.4-.397v-.102l-.198-.2v-.1l-.102-.098-.102-.102-.097-.102v-.096l-.1-.102-.098-.2-.102-.1-.102-.098" fill="none" stroke-width="1.5" stroke-linecap="round" stroke-linejoin="round" stroke="rgb(9.799194%,9.799194%,43.998718%)" stroke-miterlimit="2"/></g><path d="M75 141.19v12.5M71.398 141.19h7.204M71.398 153.69h7.204M68 147.492h13.898M68 151.094v-7.2M81.898 151.094v-7.2" fill="none" stroke-width="1" stroke-linecap="round" stroke-linejoin="round" stroke="rgb(71.998596%,52.49939%,4.399109%)" stroke-miterlimit="2"/><path d="M75 145.69v3.5M73.2 145.69h3.6M73.2 149.19h3.6M74 147.492h2M74 149.293v-3.602M76 149.293v-3.602" fill="none" stroke-width="2" stroke-linecap="round" stroke-linejoin="round" stroke="rgb(69.799805%,13.198853%,13.198853%)" stroke-miterlimit="2"/><path d="M87.7 135.094v12.097M84.102 135.094h7.2M84.102 147.19h7.2M81.3 141.19H94M81.3 144.793v-7.2M94 144.793v-7.2" fill="none" stroke-width="1" stroke-linecap="round" stroke-linejoin="round" stroke="rgb(71.998596%,52.49939%,4.399109%)" stroke-miterlimit="2"/><path d="M87.7 138.992v4.3M85.898 138.992H89.5M85.898 143.293H89.5M85.7 141.19H89.6M85.7 142.992v-3.597M89.602 142.992v-3.597" fill="none" stroke-width="2" stroke-linecap="round" stroke-linejoin="round" stroke="rgb(69.799805%,13.198853%,13.198853%)" stroke-miterlimit="2"/><path d="M83.8 127.594v11.7M80.2 127.594h7.198M80.2 139.293h7.198M77.2 133.395h13.198M77.2 136.992v-7.2M90.398 136.992v-7.2" fill="none" stroke-width="1" stroke-linecap="round" stroke-linejoin="round" stroke="rgb(71.998596%,52.49939%,4.399109%)" stroke-miterlimit="2"/><path d="M83.8 130.594v5.7M82 130.594h3.602M82 136.293h3.602M81.8 133.395h3.9M81.8 135.19v-3.596M85.7 135.19v-3.596" fill="none" stroke-width="2" stroke-linecap="round" stroke-linejoin="round" stroke="rgb(69.799805%,13.198853%,13.198853%)" stroke-miterlimit="2"/><path d="M99.398 103.992v8.3M95.8 103.992h7.2M95.8 112.293h7.2M93.898 108.094H104.8M93.898 111.69v-7.198M104.8 111.69v-7.198" fill="none" stroke-width="1" stroke-linecap="round" stroke-linejoin="round" stroke="rgb(71.998596%,52.49939%,4.399109%)" stroke-miterlimit="2"/><path d="M99.398 105.992v4.3M97.602 105.992h3.597M97.602 110.293h3.597M97.898 108.094h2.903M97.898 109.895v-3.602M100.8 109.895v-3.602" fill="none" stroke-width="2" stroke-linecap="round" stroke-linejoin="round" stroke="rgb(69.799805%,13.198853%,13.198853%)" stroke-miterlimit="2"/><path d="M96.3 101.992v7.602M92.7 101.992h7.198M92.7 109.594h7.198M90.602 105.793H102M90.602 109.395v-7.204M102 109.395v-7.204" fill="none" stroke-width="1" stroke-linecap="round" stroke-linejoin="round" stroke="rgb(71.998596%,52.49939%,4.399109%)" stroke-miterlimit="2"/><path d="M96.3 103.992v3.5M94.5 103.992h3.602M94.5 107.492h3.602M94.898 105.793h2.8M94.898 107.594v-3.602M97.7 107.594v-3.602" fill="none" stroke-width="2" stroke-linecap="round" stroke-linejoin="round" stroke="rgb(69.799805%,13.198853%,13.198853%)" stroke-miterlimit="2"/><path d="M117.102 82.992v6.3M113.5 82.992h7.2M113.5 89.293h7.2M112.7 86.094h8.8M112.7 89.69v-7.198M121.5 89.69v-7.198" fill="none" stroke-width="1" stroke-linecap="round" stroke-linejoin="round" stroke="rgb(71.998596%,52.49939%,4.399109%)" stroke-miterlimit="2"/><path d="M117.102 83.793v4.7M115.3 83.793h3.598M115.3 88.492h3.598M115.602 86.094h2.898M115.602 87.895v-3.602M118.5 87.895v-3.602" fill="none" stroke-width="2" stroke-linecap="round" stroke-linejoin="round" stroke="rgb(69.799805%,13.198853%,13.198853%)" stroke-miterlimit="2"/><path d="M123 75.492v4.7M119.398 75.492h7.204M119.398 80.19h7.204M119.102 77.793h7.796M119.102 81.395V74.19M126.898 81.395V74.19" fill="none" stroke-width="1" stroke-linecap="round" stroke-linejoin="round" stroke="rgb(71.998596%,52.49939%,4.399109%)" stroke-miterlimit="2"/><path d="M123 76.094v3.398M121.2 76.094h3.6M121.2 79.492h3.6M121.898 77.793h2.204M121.898 79.594v-3.602M124.102 79.594v-3.602" fill="none" stroke-width="2" stroke-linecap="round" stroke-linejoin="round" stroke="rgb(69.799805%,13.198853%,13.198853%)" stroke-miterlimit="2"/><path d="M122.7 66.594v8.5M119.102 66.594h7.2M119.102 75.094h7.2M117.7 70.895h9.902M117.7 74.492v-7.2M127.602 74.492v-7.2" fill="none" stroke-width="1" stroke-linecap="round" stroke-linejoin="round" stroke="rgb(71.998596%,52.49939%,4.399109%)" stroke-miterlimit="2"/><path d="M122.7 66.793v8.2M120.898 66.793h3.602M120.898 74.992h3.602M119.5 70.895h6.3M119.5 72.69v-3.596M125.8 72.69v-3.596" fill="none" stroke-width="2" stroke-linecap="round" stroke-linejoin="round" stroke="rgb(69.799805%,13.198853%,13.198853%)" stroke-miterlimit="2"/><path d="M128.7 63.895v4.296M125.102 63.895h7.2M125.102 68.19h7.2M125.102 66.094h7.2M125.102 69.69v-7.198M132.3 69.69v-7.198" fill="none" stroke-width="1" stroke-linecap="round" stroke-linejoin="round" stroke="rgb(71.998596%,52.49939%,4.399109%)" stroke-miterlimit="2"/><path d="M128.7 64.094v4M126.898 64.094h3.602M126.898 68.094h3.602M127.5 66.094h2.398M127.5 67.895v-3.602M129.898 67.895v-3.602" fill="none" stroke-width="2" stroke-linecap="round" stroke-linejoin="round" stroke="rgb(69.799805%,13.198853%,13.198853%)" stroke-miterlimit="2"/><path d="M132.8 65.395v4.296M129.2 65.395h7.198M129.2 69.69h7.198M129.602 67.492h6.5M129.602 71.094v-7.2M136.102 71.094v-7.2" fill="none" stroke-width="1" stroke-linecap="round" stroke-linejoin="round" stroke="rgb(71.998596%,52.49939%,4.399109%)" stroke-miterlimit="2"/><path d="M132.8 65.594v3.8M131 65.594h3.602M131 69.395h3.602M132.2 67.492h1.3M132.2 69.293V65.69M133.5 69.293V65.69" fill="none" stroke-width="2" stroke-linecap="round" stroke-linejoin="round" stroke="rgb(69.799805%,13.198853%,13.198853%)" stroke-miterlimit="2"/><path d="M148 51.293v2.102M144.398 51.293h7.204M144.398 53.395h7.204M145.7 52.293h4.6M145.7 55.895V48.69M150.3 55.895V48.69" fill="none" stroke-width="1" stroke-linecap="round" stroke-linejoin="round" stroke="rgb(71.998596%,52.49939%,4.399109%)" stroke-miterlimit="2"/><path d="M148 51.293v2.102M146.2 51.293h3.6M146.2 53.395h3.6M147.398 52.293h1.204M147.398 54.094v-3.602M148.602 54.094v-3.602" fill="none" stroke-width="2" stroke-linecap="round" stroke-linejoin="round" stroke="rgb(69.799805%,13.198853%,13.198853%)" stroke-miterlimit="2"/><path d="M217.102 90.094v8.2M213.5 90.094h7.2M213.5 98.293h7.2M214.102 94.19h6.097M214.102 97.793v-7.2M220.2 97.793v-7.2" fill="none" stroke-width="1" stroke-linecap="round" stroke-linejoin="round" stroke="rgb(79.998779%,79.998779%,0%)" stroke-miterlimit="2"/><path d="M217.102 90.992v6.3M215.3 90.992h3.598M215.3 97.293h3.598M215.102 94.19h4.097M215.102 95.992v-3.597M219.2 95.992v-3.597" fill="none" stroke-width="2" stroke-linecap="round" stroke-linejoin="round" stroke="rgb(0%,39.199829%,0%)" stroke-miterlimit="2"/><path d="M214.2 95.69v7.904M210.602 95.69h7.2M210.602 103.594h7.2M211.602 99.594h5.296M211.602 103.19v-7.198M216.898 103.19v-7.198" fill="none" stroke-width="1" stroke-linecap="round" stroke-linejoin="round" stroke="rgb(79.998779%,79.998779%,0%)" stroke-miterlimit="2"/><path d="M214.2 97.094v5.097M212.398 97.094H216M212.398 102.19H216M212.602 99.594h3.296M212.602 101.395v-3.602M215.898 101.395v-3.602" fill="none" stroke-width="2" stroke-linecap="round" stroke-linejoin="round" stroke="rgb(0%,39.199829%,0%)" stroke-miterlimit="2"/><path d="M215.102 101.992v7.8M211.5 101.992h7.2M211.5 109.793h7.2M212.602 105.895h4.898M212.602 109.492v-7.2M217.5 109.492v-7.2" fill="none" stroke-width="1" stroke-linecap="round" stroke-linejoin="round" stroke="rgb(79.998779%,79.998779%,0%)" stroke-miterlimit="2"/><path d="M215.102 103.895v4M213.3 103.895h3.598M213.3 107.895h3.598M213.8 105.895h2.5M213.8 107.69v-3.596M216.3 107.69v-3.596" fill="none" stroke-width="2" stroke-linecap="round" stroke-linejoin="round" stroke="rgb(0%,39.199829%,0%)" stroke-miterlimit="2"/><path d="M213.7 111.094v8.8M210.102 111.094h7.2M210.102 119.895h7.2M211.3 115.492h4.802M211.3 119.094v-7.2M216.102 119.094v-7.2" fill="none" stroke-width="1" stroke-linecap="round" stroke-linejoin="round" stroke="rgb(79.998779%,79.998779%,0%)" stroke-miterlimit="2"/><path d="M213.7 113.594v3.7M211.898 113.594h3.602M211.898 117.293h3.602M212.398 115.492h2.704M212.398 117.293v-3.602M215.102 117.293v-3.602" fill="none" stroke-width="2" stroke-linecap="round" stroke-linejoin="round" stroke="rgb(0%,39.199829%,0%)" stroke-miterlimit="2"/><path d="M210.102 119.19v10M206.5 119.19h7.2M206.5 129.19h7.2M207.898 124.19h4.403M207.898 127.793v-7.2M212.3 127.793v-7.2" fill="none" stroke-width="1" stroke-linecap="round" stroke-linejoin="round" stroke="rgb(79.998779%,79.998779%,0%)" stroke-miterlimit="2"/><path d="M210.102 122.19v4M208.3 122.19h3.598M208.3 126.19h3.598M208.898 124.19h2.5M208.898 125.992v-3.597M211.398 125.992v-3.597" fill="none" stroke-width="2" stroke-linecap="round" stroke-linejoin="round" stroke="rgb(0%,39.199829%,0%)" stroke-miterlimit="2"/><path d="M200.398 125.69v10.705M196.8 125.69h7.2M196.8 136.395h7.2M198.7 131.094h3.402M198.7 134.69v-7.198M202.102 134.69v-7.198" fill="none" stroke-width="1" stroke-linecap="round" stroke-linejoin="round" stroke="rgb(79.998779%,79.998779%,0%)" stroke-miterlimit="2"/><path d="M200.398 129.094v4M198.602 129.094h3.597M198.602 133.094h3.597M199.2 131.094h2.402M199.2 132.895v-3.602M201.602 132.895v-3.602" fill="none" stroke-width="2" stroke-linecap="round" stroke-linejoin="round" stroke="rgb(0%,39.199829%,0%)" stroke-miterlimit="2"/><path d="M194.5 127.094v11.097M190.898 127.094h7.204M190.898 138.19h7.204M193 132.594h3.102M193 136.19v-7.198M196.102 136.19v-7.198" fill="none" stroke-width="1" stroke-linecap="round" stroke-linejoin="round" stroke="rgb(79.998779%,79.998779%,0%)" stroke-miterlimit="2"/><path d="M194.5 130.492v4.3M192.7 130.492h3.6M192.7 134.793h3.6M193.2 132.594h2.698M193.2 134.395v-3.602M195.898 134.395v-3.602" fill="none" stroke-width="2" stroke-linecap="round" stroke-linejoin="round" stroke="rgb(0%,39.199829%,0%)" stroke-miterlimit="2"/><path d="M226.2 85.492v11.102M222.602 85.492h7.2M222.602 96.594h7.2M222.2 90.992h8M222.2 94.594v-7.2M230.2 94.594v-7.2" fill="none" stroke-width="1" stroke-linecap="round" stroke-linejoin="round" stroke="rgb(39.199829%,58.499146%,92.999268%)" stroke-miterlimit="2"/><path d="M226.2 86.094v9.898M224.398 86.094H228M224.398 95.992H228M223.3 90.992h5.7M223.3 92.793V89.19M229 92.793V89.19" fill="none" stroke-width="2" stroke-linecap="round" stroke-linejoin="round" stroke="rgb(0%,19.999695%,79.998779%)" stroke-miterlimit="2"/><path d="M211.7 117.492v13.102M208.102 117.492h7.2M208.102 130.594h7.2M207.898 124.094h7.704M207.898 127.69v-7.198M215.602 127.69v-7.198" fill="none" stroke-width="1" stroke-linecap="round" stroke-linejoin="round" stroke="rgb(39.199829%,58.499146%,92.999268%)" stroke-miterlimit="2"/><path d="M211.7 119.395v9.296M209.898 119.395h3.602M209.898 128.69h3.602M208.398 124.094h6.704M208.398 125.895v-3.602M215.102 125.895v-3.602" fill="none" stroke-width="2" stroke-linecap="round" stroke-linejoin="round" stroke="rgb(0%,19.999695%,79.998779%)" stroke-miterlimit="2"/><path d="M198.5 128.094v14.097M194.898 128.094h7.204M194.898 142.19h7.204M195.102 135.19h6.7M195.102 138.793v-7.2M201.8 138.793v-7.2" fill="none" stroke-width="1" stroke-linecap="round" stroke-linejoin="round" stroke="rgb(39.199829%,58.499146%,92.999268%)" stroke-miterlimit="2"/><path d="M198.5 130.492v9.3M196.7 130.492h3.6M196.7 139.793h3.6M195.3 135.19h6.302M195.3 136.992v-3.597M201.602 136.992v-3.597" fill="none" stroke-width="2" stroke-linecap="round" stroke-linejoin="round" stroke="rgb(0%,19.999695%,79.998779%)" stroke-miterlimit="2"/><use xlink:href="#f" x="178.257" y="57.168"/><path d="M30.2 215.293H233.1" fill="none" stroke-width=".7000000000000001.5" stroke-linecap="square" stroke-linejoin="round" stroke="#000" stroke-miterlimit="2"/><path d="M233.102 208.094v7.2m-50.8-7.2v7.2m-50.7-7.2v7.2m-50.704-7.2v7.2m-50.7-7.2v7.2" fill="none" stroke-width=".9" stroke-linejoin="round" stroke="#000" stroke-miterlimit="2"/><path d="M222.898 211.69v3.603M212.8 211.69v3.603m-10.198-3.602v3.603M192.5 211.69v3.603m-20.3-3.602v3.603M162.1 211.69v3.603m-10.204-3.602v3.603M141.8 211.69v3.603m-20.3-3.602v3.603m-10.102-3.602v3.603m-10.2-3.602v3.603m-10.096-3.602v3.603m-20.3-3.602v3.603m-10.103-3.602v3.603m-10.2-3.602v3.603m-10.102-3.602v3.603" fill="none" stroke-width=".7000000000000001" stroke-linejoin="round" stroke="#000" stroke-miterlimit="2"/><path d="M30.2 215.293v-202.8" fill="none" stroke-width=".7000000000000001.5" stroke-linecap="square" stroke-linejoin="round" stroke="#000" stroke-miterlimit="2"/><path d="M37.398 174.69h-7.2m7.2-40.596h-7.2m7.2-40.5h-7.2m7.2-40.602h-7.2m7.2-40.5h-7.2" fill="none" stroke-width=".9" stroke-linejoin="round" stroke="#000" stroke-miterlimit="2"/><path d="M33.8 205.094h-3.6m3.6-10.102h-3.6m3.6-10.2h-3.6m3.6-20.198h-3.6m3.6-10.2h-3.6m3.6-10.1h-3.6m3.6-20.302h-3.6m3.6-10.097h-3.6m3.6-10.204h-3.6m3.6-20.295h-3.6m3.6-10.102h-3.6m3.6-10.102h-3.6m3.6-20.295h-3.6m3.6-10.102h-3.6m3.6-10.2h-3.6" fill="none" stroke-width=".7000000000000001" stroke-linejoin="round" stroke="#000" stroke-miterlimit="2"/><path d="M30.2 12.492H233.1" fill="none" stroke-width=".7000000000000001.5" stroke-linecap="square" stroke-linejoin="round" stroke="#000" stroke-miterlimit="2"/><path d="M233.102 19.69v-7.198m-50.8 7.2v-7.2m-50.7 7.2v-7.2m-50.704 7.2v-7.2m-50.7 7.2v-7.2" fill="none" stroke-width=".9" stroke-linejoin="round" stroke="#000" stroke-miterlimit="2"/><path d="M222.898 16.094v-3.602M212.8 16.094v-3.602m-10.198 3.602v-3.602M192.5 16.094v-3.602m-20.3 3.602v-3.602M162.1 16.094v-3.602m-10.204 3.602v-3.602M141.8 16.094v-3.602m-20.3 3.602v-3.602m-10.102 3.602v-3.602m-10.2 3.602v-3.602m-10.096 3.602v-3.602m-20.3 3.602v-3.602m-10.103 3.602v-3.602m-10.2 3.602v-3.602m-10.102 3.602v-3.602" fill="none" stroke-width=".7000000000000001" stroke-linejoin="round" stroke="#000" stroke-miterlimit="2"/><path d="M233.102 215.293v-202.8" fill="none" stroke-width=".7000000000000001.5" stroke-linecap="square" stroke-linejoin="round" stroke="#000" stroke-miterlimit="2"/><path d="M225.898 174.69h7.204m-7.204-40.596h7.204m-7.204-40.5h7.204m-7.204-40.602h7.204m-7.204-40.5h7.204" fill="none" stroke-width=".9" stroke-linejoin="round" stroke="#000" stroke-miterlimit="2"/><path d="M229.5 205.094h3.602m-3.602-10.102h3.602m-3.602-10.2h3.602m-3.602-20.198h3.602m-3.602-10.2h3.602m-3.602-10.1h3.602M229.5 123.99h3.602m-3.602-10.097h3.602M229.5 103.69h3.602M229.5 83.396h3.602M229.5 73.293h3.602M229.5 63.19h3.602M229.5 42.896h3.602M229.5 32.793h3.602m-3.602-10.2h3.602" fill="none" stroke-width=".7000000000000001" stroke-linejoin="round" stroke="#000" stroke-miterlimit="2"/><use xlink:href="#g" x="269.993" y="119.315"/><use xlink:href="#h" x="272.371" y="114.118"/><use xlink:href="#i" x="272.371" y="112.041"/><use xlink:href="#j" x="272.371" y="108.072"/><use xlink:href="#k" x="269.993" y="101.693"/><use xlink:href="#l" x="269.993" y="97.306"/><use xlink:href="#m" x="269.993" y="91.509"/><use xlink:href="#n" x="269.993" y="86.816"/><use xlink:href="#o" x="269.993" y="81.493"/><use xlink:href="#p" x="269.993" y="76.285"/><use xlink:href="#q" x="269.993" y="72.266"/><use xlink:href="#r" x="284.98" y="148.254"/><use xlink:href="#s" x="284.98" y="142.458"/><use xlink:href="#t" x="284.98" y="138.364"/><use xlink:href="#s" x="284.98" y="136.316"/><use xlink:href="#s" x="284.98" y="132.222"/><use xlink:href="#u" x="284.98" y="128.127"/><use xlink:href="#v" x="284.98" y="124.032"/><use xlink:href="#s" x="285.087" y="104.857"/><use xlink:href="#t" x="285.087" y="100.763"/><use xlink:href="#s" x="285.087" y="98.715"/><use xlink:href="#s" x="285.087" y="94.621"/><use xlink:href="#s" x="285.087" y="90.526"/><use xlink:href="#s" x="285.087" y="86.431"/><use xlink:href="#s" x="285.087" y="64.258"/><use xlink:href="#t" x="285.087" y="60.164"/><use xlink:href="#s" x="285.087" y="58.116"/><use xlink:href="#s" x="285.087" y="54.022"/><use xlink:href="#u" x="285.087" y="49.927"/><use xlink:href="#v" x="285.087" y="45.832"/><use xlink:href="#w" x="370.307" y="239.293"/><use xlink:href="#x" x="373.821" y="239.293"/><use xlink:href="#y" x="376.767" y="239.293"/><use xlink:href="#z" x="385.636" y="239.293"/><use xlink:href="#A" x="393.736" y="239.293"/><use xlink:href="#B" x="398.123" y="239.293"/><use xlink:href="#C" x="402.795" y="239.293"/><use xlink:href="#D" x="410.085" y="239.293"/><use xlink:href="#E" x="260.993" y="202.027"/><use xlink:href="#g" x="260.993" y="193.158"/><use xlink:href="#F" x="282.803" y="224.338"/><use xlink:href="#G" x="286.897" y="224.338"/><use xlink:href="#G" x="290.992" y="224.338"/><use xlink:href="#H" x="295.087" y="224.338"/><use xlink:href="#I" x="316.602" y="224.496"/><use xlink:href="#H" x="320.696" y="224.496"/><use xlink:href="#H" x="324.791" y="224.496"/><use xlink:href="#H" x="328.886" y="224.496"/><use xlink:href="#I" x="350.401" y="224.496"/><use xlink:href="#H" x="354.495" y="224.496"/><use xlink:href="#F" x="358.59" y="224.496"/><use xlink:href="#H" x="362.685" y="224.496"/><use xlink:href="#I" x="384.2" y="224.496"/><use xlink:href="#H" x="388.295" y="224.496"/><use xlink:href="#I" x="392.39" y="224.496"/><use xlink:href="#H" x="396.484" y="224.496"/><use xlink:href="#I" x="418" y="224.496"/><use xlink:href="#H" x="422.094" y="224.496"/><use xlink:href="#J" x="426.189" y="224.496"/><use xlink:href="#H" x="430.284" y="224.496"/><use xlink:href="#I" x="451.799" y="224.385"/><use xlink:href="#H" x="455.893" y="224.385"/><use xlink:href="#K" x="459.988" y="224.385"/><use xlink:href="#H" x="464.083" y="224.385"/><use xlink:href="#I" x="485.598" y="224.496"/><use xlink:href="#H" x="489.692" y="224.496"/><use xlink:href="#L" x="493.787" y="224.496"/><use xlink:href="#H" x="497.882" y="224.496"/><use xlink:href="#M" x="265.784" y="217.757"/><use xlink:href="#H" x="269.466" y="217.757"/><use xlink:href="#N" x="273.561" y="217.757"/><use xlink:href="#H" x="275.608" y="217.757"/><use xlink:href="#H" x="279.703" y="217.757"/><use xlink:href="#F" x="283.797" y="217.757"/><use xlink:href="#H" x="269.467" y="197.457"/><use xlink:href="#N" x="273.561" y="197.457"/><use xlink:href="#H" x="275.609" y="197.457"/><use xlink:href="#H" x="279.703" y="197.457"/><use xlink:href="#H" x="283.798" y="197.457"/><use xlink:href="#H" x="269.467" y="177.158"/><use xlink:href="#N" x="273.561" y="177.158"/><use xlink:href="#H" x="275.609" y="177.158"/><use xlink:href="#H" x="279.703" y="177.158"/><use xlink:href="#F" x="283.798" y="177.158"/><use xlink:href="#O" x="113.738" y="239.293"/><use xlink:href="#P" x="120.534" y="239.293"/><use xlink:href="#A" x="130.192" y="239.293"/><use xlink:href="#Q" x="134.579" y="239.293"/><use xlink:href="#R" x="140.376" y="239.293"/><use xlink:href="#D" x="145.068" y="239.293"/><use xlink:href="#S" x="9.2" y="134.712"/><use xlink:href="#T" x="9.2" y="128.768"/><use xlink:href="#m" x="9.2" y="123.602"/><use xlink:href="#U" x="9.2" y="118.91"/><use xlink:href="#k" x="9.2" y="112.345"/><use xlink:href="#l" x="9.2" y="107.958"/><use xlink:href="#m" x="9.2" y="102.161"/><use xlink:href="#q" x="9.2" y="97.469"/><use xlink:href="#V" x="220.983" y="224.382"/><use xlink:href="#H" x="226.779" y="224.382"/><use xlink:href="#N" x="230.873" y="224.382"/><use xlink:href="#H" x="232.921" y="224.382"/><use xlink:href="#H" x="237.015" y="224.382"/><use xlink:href="#L" x="241.11" y="224.382"/><use xlink:href="#H" x="173.082" y="224.488"/><use xlink:href="#N" x="177.177" y="224.488"/><use xlink:href="#H" x="179.224" y="224.488"/><use xlink:href="#H" x="183.319" y="224.488"/><use xlink:href="#H" x="187.413" y="224.488"/><use xlink:href="#H" x="122.383" y="224.488"/><use xlink:href="#N" x="126.478" y="224.488"/><use xlink:href="#H" x="128.525" y="224.488"/><use xlink:href="#H" x="132.62" y="224.488"/><use xlink:href="#L" x="136.714" y="224.488"/><use xlink:href="#H" x="71.685" y="224.488"/><use xlink:href="#N" x="75.78" y="224.488"/><use xlink:href="#H" x="77.827" y="224.488"/><use xlink:href="#F" x="81.922" y="224.488"/><use xlink:href="#H" x="86.016" y="224.488"/><use xlink:href="#H" x="20.986" y="224.488"/><use xlink:href="#N" x="25.081" y="224.488"/><use xlink:href="#H" x="27.128" y="224.488"/><use xlink:href="#F" x="31.223" y="224.488"/><use xlink:href="#L" x="35.317" y="224.488"/><use xlink:href="#W" x="24.146" y="187.796"/><use xlink:href="#s" x="24.146" y="184.114"/><use xlink:href="#t" x="24.146" y="180.019"/><use xlink:href="#s" x="24.146" y="177.972"/><use xlink:href="#s" x="24.146" y="173.877"/><use xlink:href="#X" x="24.146" y="169.783"/><use xlink:href="#v" x="24.146" y="165.688"/><use xlink:href="#W" x="24.262" y="147.197"/><use xlink:href="#s" x="24.262" y="143.515"/><use xlink:href="#t" x="24.262" y="139.42"/><use xlink:href="#s" x="24.262" y="137.373"/><use xlink:href="#s" x="24.262" y="133.278"/><use xlink:href="#v" x="24.262" y="129.184"/><use xlink:href="#s" x="24.262" y="125.089"/><use xlink:href="#W" x="24.262" y="106.698"/><use xlink:href="#s" x="24.262" y="103.016"/><use xlink:href="#t" x="24.262" y="98.921"/><use xlink:href="#s" x="24.262" y="96.874"/><use xlink:href="#s" x="24.262" y="92.779"/><use xlink:href="#Y" x="24.262" y="88.685"/><use xlink:href="#v" x="24.262" y="84.59"/><use xlink:href="#s" x="24.262" y="64.258"/><use xlink:href="#t" x="24.262" y="60.164"/><use xlink:href="#s" x="24.262" y="58.116"/><use xlink:href="#s" x="24.262" y="54.022"/><use xlink:href="#s" x="24.262" y="49.927"/><use xlink:href="#s" x="24.262" y="45.832"/><use xlink:href="#s" x="24.262" y="23.759"/><use xlink:href="#t" x="24.262" y="19.665"/><use xlink:href="#s" x="24.262" y="17.617"/><use xlink:href="#s" x="24.262" y="13.523"/><use xlink:href="#Y" x="24.262" y="9.428"/><use xlink:href="#v" x="24.262" y="5.333"/></g></svg>